<svg xmlns="http://www.w3.org/2000/svg" viewBox="0 0 841.89 841.89"><defs><style>.cls-1{fill:#1c1c1c;}.cls-2{fill:#c6b29a;}.cls-3{fill:#ab9987;}.cls-4{fill:#cdcccc;}.cls-5{fill:#cdcbce;}.cls-6{fill:#b9a990;}.cls-7{fill:#afafaf;}.cls-8{fill:#b3b2b2;}.cls-9{fill:#988b7a;}.cls-10{fill:#e7e6e6;}.cls-11{fill:#f3f5fa;}.cls-12{fill:#656564;}.cls-13{fill:#e0e1e1;}.cls-14{fill:#474747;}.cls-15{fill:#8c8c8c;}.cls-16{fill:#6c6c6c;}.cls-17{fill:#f1f1f1;}.cls-18{fill:#050404;}.cls-19{fill:#d3d3d3;}.cls-20{fill:#b53d2c;}.cls-21{fill:#9b3429;}</style></defs><title>ant_man_1</title><g id="Layer_11" data-name="Layer 11"><path class="cls-1" d="M436.93,639.24V797.76s-23.18-4.83-24.52-31.4c0,0-.54-21.2,16.37-32.48l-2.07-2.17-23.79,1.5-6.7,7-13.23,28L376.13,790,364.4,804.9,370.93,790l11.39-33.33,9.38-18.93,9-9.88,22.69-1.34v-5.19l-16.42-12.73L376.8,727.35l-17.93,15.74-6.86,1,3.68-4.19,19.93-17.84,31.83-20.18,16.41,13.74,2-6.2L398.29,682,374.87,667.3l-17.84-8,7.36-2.23L389.59,670l14.72,9.59L425.5,701.2l1.09-1.39A19.36,19.36,0,0,1,424,688.63s2-6.89,6.15-9.84c0,0-11.31-2.21-10.94-12.66a28.42,28.42,0,0,1,3.07-13.4l-9.09-5.65-14.51-10.82-1.6-19.67-4.06-24,4.92,3.56L402,615.24l1,18.19,8.61,6.89,13.52,7.25S430.3,639.15,436.93,639.24Z"/><path d="M436.93,639.24V797.76s23.18-4.83,24.52-31.4c0,0,.54-21.2-16.37-32.48l2.07-2.17,23.79,1.5,6.7,7,13.23,28L497.73,790l11.73,14.91L502.93,790l-11.39-33.33-9.38-18.93-9-9.88-22.69-1.34v-5.19l16.42-12.73,30.14,18.76L515,743.09l6.87,1-3.68-4.19-19.93-17.84-31.83-20.18L450,715.63l-2-6.2L475.57,682,499,667.3l17.84-8L509.47,657,484.27,670l-14.72,9.59L448.36,701.2l-1.09-1.39a19.36,19.36,0,0,0,2.58-11.18s-2-6.89-6.15-9.84c0,0,11.31-2.21,10.94-12.66a28.42,28.42,0,0,0-3.07-13.4l9.09-5.65,14.51-10.82,1.6-19.67,4.06-24-4.92,3.56-4.06,19.06-1,18.19-8.61,6.89-13.52,7.25S443.56,639.15,436.93,639.24Z"/></g><g id="Layer_6" data-name="Layer 6"><polyline class="cls-2" points="436.93 330.22 436.93 395.7 411.73 420.89 382.29 421.69 356.34 408.42 364.01 355.19 429.96 327.13 436.93 330.22"/><polyline class="cls-3" points="436.93 330.22 436.93 395.7 462.13 420.89 491.57 421.69 517.52 408.42 509.84 355.19 443.9 327.13 436.93 330.22"/></g><g id="Layer_4" data-name="Layer 4"><path class="cls-4" d="M436.93,129.94v-3S360.85,126.24,319,180.2c0,0-19.07,25.59-24.65,48.84V337l53.49-2.79Z"/><path class="cls-5" d="M436.93,441.74v-46s-21.49-3.53-32.28,20.38c0,0-26.12.63-32.93-11.58l-15.05-40.32-36.91,9.65-4.55,25,48,35.78,46.85,36.91,26.88-29.77"/><path class="cls-6" d="M436.93,322.06v8.16s-13,.46-20.39,10.58c0,0-14.7,13.1-24.13,16.31,0,0-18.15,12.18-20.22,20.23l-6.56-24.82,71.3-35.63v5.17"/><path class="cls-7" d="M436.93,129.94v-3s76.08-.65,118,53.31c0,0,19.07,25.59,24.65,48.84V337L526,334.17Z"/><path class="cls-8" d="M436.93,441.74v-46s21.49-3.53,32.28,20.38c0,0,26.12.63,32.93-11.58l15.05-40.32,36.91,9.65,4.55,25-48,35.78-46.85,36.91-26.88-29.77"/><path class="cls-9" d="M436.93,322.06v8.16s13,.46,20.39,10.58c0,0,14.7,13.1,24.13,16.31,0,0,18.15,12.18,20.22,20.23l6.56-24.82-71.3-35.63v5.17"/></g><g id="Layer_2" data-name="Layer 2"><path class="cls-10" d="M436.93,129.94V322.06s-17.46,3.37-23.74,14.75c0,0-15.3,11.38-23.15,14.52,0,0-12.17,8.63-14.92,13.34v51.41s-20-21.19-21.58-41.2l-25.9-53.77V238.7s2-49.45,38.07-73.38C365.71,165.32,397.09,136.56,436.93,129.94Z"/><path class="cls-10" d="M436.93,454.35V441.74s-31.83,1.76-30.61,32h0s-.42,31.67,30.61,30.79V454.35"/><path class="cls-4" d="M436.93,129.94V322.06s17.46,3.37,23.74,14.75c0,0,15.3,11.38,23.15,14.52,0,0,12.17,8.63,14.92,13.34v51.41s20-21.19,21.58-41.2l25.9-53.77V238.7s-2-49.45-38.07-73.38C508.15,165.32,476.77,136.56,436.93,129.94Z"/><path class="cls-4" d="M436.93,454.35V441.74s31.83,1.76,30.61,32h0s.42,31.67-30.61,30.79V454.35"/></g><g id="Layer_5" data-name="Layer 5"><path class="cls-11" d="M349.38,400.44s15.5-58.38-6.49-73.16c0,0-20.9-16.94-53.33,6.49,0,0-53,38.92-36.4,82.53,0,0,22.34,46.13,82.17,58,0,0,45.77,9.37,71,5.77V425.31s-49.7,1.35-83.23-45.1C323.09,380.21,344.24,398.19,349.38,400.44Z"/><path class="cls-12" d="M436.93,493.05v-38.7s-20.29-.3-19.41,19.35C417.52,473.7,417.05,493.05,436.93,493.05Z"/><path class="cls-13" d="M524.48,400.44S509,342.06,531,327.28c0,0,20.91-16.94,53.34,6.49,0,0,53,38.92,36.4,82.53,0,0-22.34,46.13-82.17,58,0,0-45.77,9.37-71,5.77V425.31s49.7,1.35,83.23-45.1C550.77,380.21,529.62,398.19,524.48,400.44Z"/><path class="cls-14" d="M436.93,493.05v-38.7s20.29-.3,19.41,19.35C456.34,473.7,456.81,493.05,436.93,493.05Z"/></g><g id="Layer_8" data-name="Layer 8"><path class="cls-15" d="M327.64,49.19s-11.88-4.63-14.57,7h0l11,5.15,3.61-12.11"/><path class="cls-16" d="M546.22,49.19s11.88-4.63,14.57,7h0l-11,5.15-3.61-12.11"/></g><g id="Layer_7" data-name="Layer 7"><path class="cls-17" d="M382.28,152.75,327.64,49.19a13,13,0,0,1-14.57,7l57.06,105.44Z"/><polygon class="cls-4" points="379.67 154.66 350.81 101.03 377.54 156.2 379.67 154.66"/><polygon class="cls-18" points="424.93 304.75 427.93 282.67 376.74 259.07 339.56 274.77 336.64 288.61 351.66 307.47 382.51 313.98 424.93 304.75"/><path class="cls-19" d="M491.58,152.75,546.22,49.19a13,13,0,0,0,14.57,7L503.73,161.59Z"/><polygon class="cls-7" points="494.19 154.66 523.05 101.03 496.32 156.2 494.19 154.66"/><polygon points="448.93 304.75 445.93 282.67 497.13 259.07 534.3 274.77 537.22 288.61 522.2 307.47 491.35 313.98 448.93 304.75"/></g><g id="Layer_3" data-name="Layer 3"><polygon class="cls-20" points="421.12 302.12 423.69 283.22 379.89 263.03 348.07 276.47 345.58 288.31 358.43 304.45 384.82 310.01 421.12 302.12"/><polygon class="cls-21" points="452.74 302.12 450.17 283.22 493.97 263.03 525.79 276.47 528.28 288.31 515.43 304.45 489.04 310.01 452.74 302.12"/></g></svg>