<svg xmlns="http://www.w3.org/2000/svg" viewBox="0 0 841.89 841.89"><defs><style>.cls-1{fill:#858686;}.cls-2{fill:#9b9a9a;}.cls-3{fill:#aaaaab;}.cls-4{fill:#6c6c6c;}.cls-5{fill:#7f7f80;}.cls-6{fill:#8d8d8e;}.cls-7{fill:#575757;}.cls-8{fill:#676767;}.cls-9{fill:#3f3f3f;}.cls-10{fill:#504f4f;}.cls-11{fill:#fafafa;}.cls-12{fill:#e2e2e1;}.cls-13{fill:#666;}.cls-14{fill:#6e6e6d;}.cls-15{fill:#9e9e9e;}.cls-16{fill:#848484;}.cls-17{fill:#878888;}.cls-18{fill:#787878;}.cls-19{fill:#616160;}.cls-20{fill:#737373;}.cls-21{fill:#5c5c5c;}.cls-22{fill:#595957;}.cls-23{fill:#9d9c9c;}.cls-24{fill:#878787;}.cls-25{fill:#a6a6a6;}.cls-26{fill:#616262;}.cls-27{fill:#3e3e3e;}.cls-28{fill:#4a494a;}.cls-29{fill:#222323;}.cls-30{fill:#424242;}.cls-31{fill:#757576;}.cls-32{fill:#5f5f5e;}.cls-33{fill:#4c4b4b;}.cls-34{fill:#e2e1e1;}.cls-35{fill:#bebebe;}.cls-36{fill:#333;}.cls-37{fill:#cac9c9;}.cls-38{fill:#a5a4a4;}.cls-39{fill:#a4aab2;}.cls-40{fill:#d52f2f;}.cls-41{fill:#909499;}.cls-42{fill:#bb2d2d;}.cls-43{fill:#93979b;}.cls-44{fill:#e4b222;}.cls-45{fill:#f2c216;}.cls-46{fill:#2d2525;}.cls-47{fill:#a6a5a6;}.cls-48{fill:#dbdbdb;}.cls-49{fill:#5b3413;}.cls-50{fill:#201917;}.cls-51{fill:#727272;}.cls-52{fill:#999;}.cls-53{fill:#575656;}.cls-54{fill:#4e4d4d;}.cls-55{fill:#353535;}.cls-56{fill:#201c1b;}.cls-57{fill:#c6c6c6;}.cls-58{fill:#adadad;}.cls-59{fill:#686867;}.cls-60{fill:#b2b2b2;}.cls-61{fill:#a9a9a9;}.cls-62{fill:#2d2622;}.cls-63{fill:#deb519;}.cls-64{fill:#f5be27;}</style></defs><title>ant_man_2</title><g id="Layer_22" data-name="Layer 22"><polyline class="cls-1" points="328.97 338.9 322.63 352.34 362.15 373.82 368.9 353.64 328.97 338.9"/><polyline class="cls-2" points="328.97 338.9 318.92 349.18 299.4 332.73 304.76 311.26 328.97 338.9"/><path class="cls-3" d="M304.76,311.26l-3.45,13.82s-19.74-18.08-18-89.37-.11-2.23-.11-2.23l21.57,77.78"/><polyline class="cls-4" points="546.27 338.9 552.61 352.34 513.09 373.82 506.33 353.64 546.27 338.9"/><polyline class="cls-5" points="546.27 338.9 556.31 349.18 575.84 332.73 570.48 311.26 546.27 338.9"/><path class="cls-6" d="M570.47,311.26l3.46,13.82s19.73-18.08,18-89.37.11-2.23.11-2.23l-21.58,77.78"/></g><g id="Layer_21" data-name="Layer 21"><polyline class="cls-7" points="340.49 332.73 328.97 338.9 365.07 365.64 368.9 353.64 340.49 332.73"/><polyline class="cls-8" points="340.49 332.73 327.8 311.26 304.76 311.26 328.97 338.9 340.49 332.73"/><polyline class="cls-9" points="534.74 332.73 546.27 338.9 510.16 365.64 506.33 353.64 534.74 332.73"/><polyline class="cls-10" points="534.74 332.73 547.43 311.26 570.48 311.26 546.27 338.9 534.74 332.73"/></g><g id="Layer_20" data-name="Layer 20"><polygon class="cls-11" points="325.48 307.33 340.49 332.73 362.15 356.12 377.9 331.72 350.09 299.31 325.48 307.33"/><polygon class="cls-12" points="549.76 307.33 534.74 332.73 513.09 356.12 497.34 331.72 525.14 299.31 549.76 307.33"/></g><g id="Layer_19" data-name="Layer 19"><polyline class="cls-13" points="333.67 311.26 345.59 329.16 369.78 349.5 386.02 330.38 362.15 309.19 341.16 296.59 330.86 304.99 333.67 311.26"/><polyline class="cls-10" points="541.57 311.26 529.65 329.16 505.45 349.5 489.21 330.38 513.09 309.19 534.07 296.59 544.38 304.99 541.57 311.26"/></g><g id="Layer_18" data-name="Layer 18"><polyline class="cls-1" points="386.02 352.65 378.97 341.63 367.05 343.06 362.15 356.12 363.3 368.02 370.11 384.28 378.97 389.65 386.02 352.65"/><polyline class="cls-14" points="489.21 352.65 496.27 341.63 508.19 343.06 513.09 356.12 511.94 368.02 505.13 384.28 496.27 389.65 489.21 352.65"/></g><g id="Layer_17" data-name="Layer 17"><path class="cls-15" d="M384.8,349.5s-12.86,16-8.78,41.31l12.45-4.9,2.58-18.77Z"/><path class="cls-16" d="M490.44,349.5s12.85,16,8.77,41.31l-12.45-4.9-2.57-18.77Z"/></g><g id="Layer_16" data-name="Layer 16"><path class="cls-17" d="M313.42,137s2.77-57.49,3.45-70l-8.11,3.21s-5,47.81-6,68.56h0l6,3.29,4.66-5"/><path class="cls-18" d="M365.07,359s-.66-19.14,12.25-14.52a35.34,35.34,0,0,1,10.54,25.45s.94,17.28-6.85,17.45c0,0-6.13,2.68-12.54-10.9h0l-3.4-3.31-1.21,4s5.84,17.83,16.35,16.69c0,0,4.28-.12,6.5-2h0l8.29-2.8,5-25.1-15.92-29.2-13.65,2s-12.13,4.32-9.95,23.53h0l2.8,2.09,1.77-3.32"/><path class="cls-14" d="M561.82,137s-2.77-57.49-3.46-70l8.12,3.21s5,47.81,6,68.56h0l-6,3.29-4.66-5"/><path class="cls-19" d="M510.16,359s.66-19.14-12.25-14.52a35.39,35.39,0,0,0-10.54,25.45s-.93,17.28,6.86,17.45c0,0,6.13,2.68,12.53-10.9h0l3.4-3.31,1.21,4s-5.83,17.83-16.34,16.69c0,0-4.28-.12-6.51-2h0l-8.29-2.8-5-25.1,15.91-29.2,13.66,2s12.13,4.32,9.94,23.53h0l-2.79,2.09L510.16,359"/></g><g id="Layer_15" data-name="Layer 15"><polyline class="cls-20" points="305.06 138.75 299.4 138.75 299.4 145.81 291.75 145.81 291.75 163.01 288.06 185.34 300.75 190.26 305.06 138.75"/><path class="cls-3" d="M410,410.6s-16.12-8.4-23.25-18.87c0,0,6.68-3.56,6.46-16,0,0,1.95-16.66-7.82-31.27h0l6.93-15.27,26.54,1.33,4.41,26.76L410,410.6"/><polyline class="cls-21" points="570.18 138.75 575.84 138.75 575.84 145.81 583.48 145.81 583.48 163.01 587.18 185.34 574.48 190.26 570.18 138.75"/><path class="cls-6" d="M465.27,410.6s16.13-8.4,23.25-18.87c0,0-6.68-3.56-6.45-16,0,0-1.95-16.66,7.82-31.27h0L483,329.16l-26.54,1.33L452,357.25l13.26,53.35"/></g><g id="Layer_14" data-name="Layer 14"><path class="cls-22" d="M293.71,183.65l-2-20.64s-11,22.9-8.45,72.7c0,0,7.72,55.52,21.46,75.55h28.91A6.2,6.2,0,0,1,338.8,305h0L305.06,138.75"/><path class="cls-23" d="M437.62,369.08v60.66s-20.95.18-27.66-19.14h0l-5.49-17.8,9.72-23.26,23.43-.46"/><path class="cls-9" d="M581.52,183.65l2-20.64s11,22.9,8.46,72.7c0,0-7.73,55.52-21.47,75.55h-28.9a6.22,6.22,0,0,0-5.14-6.26h0l33.75-166.25"/><path class="cls-24" d="M437.62,369.08v60.66s20.94.18,27.65-19.14h0l5.5-17.8-9.72-23.26-23.43-.46"/></g><g id="Layer_13" data-name="Layer 13"><path class="cls-25" d="M305.06,138.75l-13.31,52.64s2.95,52.92,11,56.83,2.3-109.47,2.3-109.47"/><path class="cls-26" d="M437.62,362.73v6.35S404,370.09,410,410.6h0l-4.7-9.89,3.21-23.19,20-18.57,9.14,3.78"/><path class="cls-27" d="M427.82,385.9s-14.56,12.66,0,27.22c0,0,3.93,3.43,1.48,6.09a4.9,4.9,0,0,1-7-.82s-8.07-7.55-8.07-18.78c0,0-.62-12.45,10-19,0,0,3-3.06,5.91,0C430.11,380.63,431.65,383.82,427.82,385.9Z"/><polygon class="cls-7" points="437.62 378.06 433.8 378.06 437.62 387.33 437.62 378.06"/><path class="cls-6" d="M570.18,138.75l13.3,52.64s-3,52.92-11,56.83-2.3-109.47-2.3-109.47"/><path class="cls-28" d="M437.62,362.73v6.35s33.57,1,27.65,41.52h0l4.71-9.89-3.21-23.19-20-18.57-9.13,3.78"/><path class="cls-29" d="M447.41,385.9s14.56,12.66,0,27.22c0,0-3.93,3.43-1.48,6.09a4.91,4.91,0,0,0,7-.82s8.07-7.55,8.07-18.78c0,0,.61-12.45-10-19,0,0-3-3.06-5.91,0C445.13,380.63,443.58,383.82,447.41,385.9Z"/><polygon class="cls-30" points="437.62 378.06 441.43 378.06 437.62 387.33 437.62 378.06"/></g><g id="Layer_12" data-name="Layer 12"><path class="cls-8" d="M325.77,128.59h-8.9s2,10.73-11.81,10.16l-2.3,109.47s.18,11.09,6,12h0l11.56,4.67,12.11-23,8.06-87.58-14.72-25.71"/><path class="cls-31" d="M437.62,349.5v13.23s-39.5,4.14-27.66,47.87c0,0-18.16-17.23-5.4-41.49a98.17,98.17,0,0,1,9.51-11.86h0l11.24-12.82,12.31,5.07"/><path class="cls-10" d="M549.47,128.59h8.89s-2,10.73,11.82,10.16l2.3,109.47s-.19,11.09-6,12h0l-11.57,4.67-12.1-23-8.07-87.58,14.73-25.71"/><path class="cls-32" d="M437.62,349.5v13.23s39.49,4.14,27.65,47.87c0,0,18.17-17.23,5.4-41.49a97.36,97.36,0,0,0-9.5-11.86h0l-11.24-12.82-12.31,5.07"/></g><g id="Layer_11" data-name="Layer 11"><path class="cls-33" d="M325.77,128.59s1.84,92-8.9,126.48c0,0-1.93,6.41-8.11,5.18l12.61,37.85,11.88-4.77,6.68-89.75,2.26-64.08-8.44-22-8,11.1"/><polyline class="cls-34" points="437.62 322.33 437.62 349.5 434.57 349.5 434.57 322.67 435.5 319.03 437.62 322.33"/><path class="cls-35" d="M434.57,349.5V322.67l-13.05-2.11L410,330.44s.86,16.87,4.11,26.81C414.07,357.25,425.07,350.16,434.57,349.5Z"/><path class="cls-36" d="M549.47,128.59s-1.84,92,8.89,126.48c0,0,1.93,6.41,8.12,5.18L553.86,298.1,542,293.33l-6.68-89.75L533,139.5l8.45-22,8,11.1"/><polyline class="cls-37" points="437.62 322.33 437.62 349.5 440.67 349.5 440.67 322.67 439.74 319.03 437.62 322.33"/><path class="cls-38" d="M440.67,349.5V322.67l13.05-2.11,11.55,9.88s-.85,16.87-4.1,26.81C461.17,357.25,450.17,350.16,440.67,349.5Z"/></g><g id="Layer_10" data-name="Layer 10"><path class="cls-17" d="M437.62,250.15v72.18s-21.09.77-52.27,22.1c0,0-5.54-8-14.9-7.78v-6.08L344.12,304l-5.32,1-18.48-46.93,5.32-38.63,5.82-5.57,5.32-39.75L331.21,167l.23-42.56,12.93-16.42,18.93,4.3,74.32,137.8"/><path class="cls-14" d="M437.62,250.15v72.18s21.08.77,52.27,22.1c0,0,5.53-8,14.9-7.78v-6.08L531.12,304l5.31,1,18.48-46.93-5.31-38.63-5.82-5.57-5.32-39.75L544,167l-.23-42.56-12.93-16.42-18.93,4.3-74.32,137.8"/></g><g id="Layer_9" data-name="Layer 9"><polyline class="cls-39" points="391.05 290.11 385.35 293.33 347.76 285.26 335.56 264.17 342.19 232.76 347.88 232.21 391.05 290.11"/><path class="cls-40" d="M354.74,112s9,68.74,4.8,120.17h0l27.67-6.16,17.39-51L374.31,106.6l-13.64-4.43L354.74,112"/><path class="cls-39" d="M437.62,250.15v72.18s-4.77-44.42,0-72.18"/><polyline class="cls-41" points="484.19 290.11 489.88 293.33 527.47 285.26 539.68 264.17 533.04 232.76 527.36 232.21 484.19 290.11"/><path class="cls-42" d="M520.5,112s-9,68.74-4.81,120.17h0L488,226.05l-17.38-51,30.29-68.49,13.64-4.43L520.5,112"/><path class="cls-43" d="M437.62,250.15v72.18s4.77-44.42,0-72.18"/><path class="cls-44" d="M359.75,713.07a22.86,22.86,0,0,0,4.91,14.31s1.78-5.76,2.4-7.63l-2.72-9.64-4.59,3"/></g><g id="Layer_8" data-name="Layer 8"><polyline class="cls-33" points="437.62 242.41 437.62 250.15 434.73 251.08 434.73 268.4 391.05 290.11 355.38 283.65 342.19 261.94 347.88 232.21 371.57 229.11 371.57 219.03 376.57 217.74 376.57 227.3 387.21 226.05 437.62 242.41"/><polyline class="cls-36" points="437.62 242.41 437.62 250.15 440.51 251.08 440.51 268.4 484.19 290.11 519.86 283.65 533.04 261.94 527.36 232.21 503.66 229.11 503.66 219.03 498.67 217.74 498.67 227.3 488.02 226.05 437.62 242.41"/><path class="cls-45" d="M364.66,716.43s.9,7.49,3.8,11.9c0,0,10.52-5.8,11.6-15.74h0l-2.51-3-10.09,1.34-2.8,5.49"/><path class="cls-46" d="M356,692.87s-7.91-1.88-10.62-1.65v1.65s-22.65-1.18-35.63,4.72c0,0-14.16,6.37-10.74,8.73a6.59,6.59,0,0,0,3.65-1.38s8.25-4.38,15.23-5.72l14.1-2.89,13.67-1.86.07.82s6.53-2.08,9.5.37Z"/></g><g id="Layer_7" data-name="Layer 7"><path class="cls-47" d="M437.62,162.51v79.9l-50.41-16.36s-.5-12.8-3-40.71h0l10.65-26.25,42.8,3.42"/><path class="cls-6" d="M437.62,162.51v79.9L488,226.05s.5-12.8,3.05-40.71h0l-10.66-26.25-42.79,3.42"/><path class="cls-48" d="M412.36,667.6l3.65-8.35,6.3-11.88,8.17-15,8-13.5,2.67-5.65L447.71,603l5.63-8,3.32-4.15,3.46-3.51,4.14-3.28,4.76-3,3.89-2s5-2.29,9.66-1c0,0,2.15,1.42,2.48,2.62,0,0,.56.26-.94,3.12,0,0-8.08,11.29-9,12.4l-3.3,4.72-9.73,11.79-8.4,10.21-4.06,5-5.6,5.88-3.61,3.93-3.17,3.83L433,646.55l-5.28,6.65-5.15,6-4.3,6.18Z"/><path class="cls-49" d="M413.27,667.12s20.38-41.32,26.82-47.78c0,0,5.23-1,9.66-8l2.38-1.19s-6.25,9.7-6.24,16c0,0-7.92,13.2-11.12,16.68,0,0-15.31,17.69-17.19,23l1.42-.71,12.38-15.85L440,638.83l9.58-11.06s.51-2.24,4-7.38l9.89-15.32s5.35-1.63,6.92-2.68l1.41-1.59s-4.87,2.35-7.11,2.28l6.7-10.41-17.9,25.56-5.12,8.62s-1.33,2.22-1.61-1.21c0,0,3.54-11.59,6.32-15.91l3.37-1.69a17.9,17.9,0,0,0,2.49-2.9l5.82-8.51-5,6.57s-2.31,3.81-5.27,4.84l-3.7,1.58,6.73-10.71s4.53-1,6.62-2.35c0,0,.57,0,1.42-1l2.3-3.18s3.73-1,4.64.2a28.08,28.08,0,0,1,2.16,4.3l.49-.79s-1.51-4.48-3-4.76a7.34,7.34,0,0,0-3.27,0,8.35,8.35,0,0,1,3-3.14s2.5-3.94,5.76-4.27c0,0,2.5.78,7.44-3.32l-.3-.61s-4.8,3.62-7.67,3.18a2.33,2.33,0,0,0-1.81.41,1.92,1.92,0,0,0,.16-2.45s-1.63-1.92-2.36-2.13c0,0-1.38.1.12,1.23,0,0,2.26,1.2,1.49,2.26,0,0-1.64,3.87-2.77,4.48a6,6,0,0,0-2.2,2.05,47.71,47.71,0,0,1-3.39,4.16s-2,2.8-4.21,3.5c0,0-2.52,1.31-3.72,1.15l5.17-7.75,4.64-5.6,4.08-4.55-5.91,5.47-5.1,5.74L457.4,597l-4,6s-1.54,2.38-1.65,0l.46-5.79,4.53-6.08,5.12-4.9,5.48-3.64,5-3-2.25.6-5.3,2.94-5.21,4.08L455,592l-3.66,4.72-2.58,3.38-3.57,5.52-4.57,7.76s-1,2.31.2,1.42l2.17-3.27,3.94-6.18,3.83-5.92-.39,4.4-1.27,3.42-1.35,3-.87,1.6-2.27,3A4.66,4.66,0,0,1,442.3,616s-.69.29-1.3-.82l-1-.54-6.26,10.63-3.66,6.39-3.57,6.3-4.35,7.58-2.87,5.18-3.94,7.61L412.75,664l-1,4Z"/><path class="cls-50" d="M395.06,683.49l-17.51-4s-4.15-4.08-17.93,0c0,0-6.73,4.67-5.58,16.76,0,0,1,13.41,8,19.32,0,0,2.86,2.51,5.44-.88,0,0,5-3.7,8.86-2.12a4,4,0,0,0,5.11-1.12h0l10.6-5.1Z"/></g><g id="Layer_6" data-name="Layer 6"><path class="cls-17" d="M437.62,91.4v71.11s-32.9-.76-53.45,22.83c0,0-3.72-50.27-9.86-78.74h0l41.44-27L437.62,91.4"/><path class="cls-51" d="M437.62,91.4v71.11s32.9-.76,53.45,22.83c0,0,3.71-50.27,9.86-78.74h0l-41.44-27L437.62,91.4"/><path class="cls-46" d="M432.32,678.74s-.49,18.75,2.88,19.67h0l-1.57,4.82-4.88,3.08s-4.76-.23-6.72-1.65l-9.34,6.22s-15.37,4.48-25.15,3.22c0,0-4.27-.9-6.05-2.68,0,0,4.8-2.67,6.22-7.47,0,0,3.55-8.79,2.32-16.6,0,0,.86-4.44-7.75-6.72h0l-4.73-1.17S383,670.19,393,666.24c0,0,9.82-5.13,26.65,0C419.61,666.24,431.46,670.92,432.32,678.74Z"/></g><g id="Layer_5" data-name="Layer 5"><polyline class="cls-52" points="437.62 62.78 437.62 91.4 374.31 106.6 364.13 59.47 437.62 62.78"/><path class="cls-51" d="M374.31,106.6l-7.86-36.41L342.21,83l-25.34,34.46v11.1h8.9S348,110.5,374.31,106.6Z"/><polyline class="cls-5" points="437.62 62.78 437.62 91.4 500.93 106.6 511.11 59.47 437.62 62.78"/><path class="cls-53" d="M500.93,106.6l7.86-36.41L533,83l25.34,34.46v11.1h-8.89S527.25,110.5,500.93,106.6Z"/><path class="cls-48" d="M415.08,674l8-6.67,12.54-8.92,16-11.11,15.12-9.7,5.63-4.41,11.95-7.16,9.88-5.33,5.53-2.55,5.34-1.81,5.91-1.23,6.4-.62,5-.09s6.31.22,10.41,3.88c0,0,1.48,2.56,1.2,3.95,0,0,.44.55-2.56,2.72,0,0-14.06,7.4-15.57,8.06l-5.8,3.14-16,7.07-13.83,6.14-6.7,3-8.74,3.13-5.7,2.17L454,660l-7,3.1-8.8,4.09-8.38,3.53-7.56,4.12Z"/></g><g id="Layer_3" data-name="Layer 3"><g id="Layer_4" data-name="Layer 4"><path class="cls-54" d="M437.62,59.46v3.32l-67.07,6.67s-4.8-.8-10.14,5.34l-43.54,42.7.05-3.3,20.23-25.71,27-29,25.95-2.09Z"/><path class="cls-55" d="M437.62,59.46v3.32l67.07,6.67s4.8-.8,10.14,5.34l43.53,42.7,0-3.3L538.08,88.48l-27-29-25.95-2.09Z"/></g><path class="cls-45" d="M459.26,678.74a45.53,45.53,0,0,1,13.88,8.61h0s10.05,8.46,15.61,15.88h0s10.43,15.54,11.89,25.13h0s14.87,30.3-4.14,51.25L478.71,763l-19.37-22.79s-12.13-13.4-13.23-19.72h0s-2.39-1.94-.06-11.58h0l13.21-30.21"/><path class="cls-56" d="M433.63,703.23s3.44,2.95,2.36,5.72a13.51,13.51,0,0,0-4.32,5.71s-2.94.55-3.24-6.94c0,0,.78-6.3,5.2-4.49"/></g><g id="Layer_2" data-name="Layer 2"><path class="cls-57" d="M437.62,37.51V52.59s-30,1.3-39.46-11.2Z"/><polygon class="cls-58" points="437.62 52.59 437.62 59.47 376.48 65.64 378.66 45.07 398.16 41.39 437.62 52.59"/><path class="cls-59" d="M378.66,45.07l-2.18,20.57s-9.39,1.16-15.8,6.18-43.76,42.37-43.76,42.37-1.12-2.23,7.52-13.94l36-46.74S365.57,47.54,378.66,45.07Z"/><polygon class="cls-40" points="430.14 244.69 430.14 263.97 387.26 285.26 358.49 280.08 345.59 260.23 351.01 236.63 387.86 230.88 430.14 244.69"/><circle class="cls-60" cx="365.07" cy="368.02" r="9.07"/><path class="cls-61" d="M437.62,37.51V52.59s30,1.3,39.46-11.2Z"/><polygon class="cls-6" points="437.62 52.59 437.62 59.47 498.76 65.64 496.58 45.07 477.08 41.39 437.62 52.59"/><path class="cls-28" d="M496.58,45.07l2.18,20.57s9.39,1.16,15.8,6.18,43.76,42.37,43.76,42.37,1.11-2.23-7.53-13.94L514.84,53.51S509.66,47.54,496.58,45.07Z"/><polygon class="cls-42" points="445.1 244.69 445.1 263.97 487.97 285.26 516.75 280.08 529.65 260.23 524.23 236.63 487.37 230.88 445.1 244.69"/><circle class="cls-52" cx="510.16" cy="368.02" r="9.07"/><path class="cls-62" d="M500.64,728.36s-6.58,28.35-13.89,27.62c0,0-10.23-4.14-8,7.06,0,0,13.4,1.22,16.08,5.37,0,0,2.2-5.12-.24-5.85,0,0,5.3-2.46,3.65-11.45,0,0,6.1-1,6.83-6.1C505,745,504.78,740.7,500.64,728.36Z"/><path class="cls-62" d="M488.75,703.23s-11.05,31.66-19.33,29.92c0,0-11.21-6-10.08,7.1,0,0,15.2,3.06,17.75,8.13,0,0,3.15-5.59.45-6.73,0,0,6.38-2.16,5.6-12.66,0,0,7.1-.37,8.57-6.14C491.71,722.85,492,717.88,488.75,703.23Z"/><path class="cls-62" d="M473.14,687.35s-10.35,28.54-17.83,26.87c0,0-10.08-5.57-9.2,6.31,0,0,13.72,2.94,16,7.56,0,0,2.91-5,.48-6.09,0,0,5.8-1.88,5.21-11.4,0,0,6.43-.25,7.82-5.46C475.6,705.14,475.89,700.65,473.14,687.35Z"/><path class="cls-62" d="M459.26,678.74s7.09,4.38,1.57,11.69c0,0-4.29,6.09-6,11.7,0,0-6.35,6.82-8.78,6.82,0,0-1.7-7.54-12.42-5.72v-3.54Z"/><path class="cls-63" d="M393,706.26s1.26-4.91,7.44-4.12c0,0,3.74,0,6.86,4.12a18.34,18.34,0,0,0,7,2.69l5.36,1.58s-.53,7.12,2.63,12.66c0,0,4.59,7.6,2.06,8.24,0,0,11.18,9.36,9.33,16.93,0,0-4.9.48-10.28-15.51,0,0-1.32,1.69-3.74-8.18h0l-3.35-9.39s-4.76-.79-6.51-2.38c0,0-7.11-2.85-11.4-3.32C398.35,709.58,394.07,710.21,393,706.26Z"/></g><g id="Layer_25" data-name="Layer 25"><path class="cls-63" d="M432.32,714.66s2.21,6.85,5.79,3.12c0,0,10.11-10.3,12.9-14.87,0,0-6.22,26.69-.93,31,0,0-4.2,26.6-1.86,28.31,0,0-5.14,20.69-4.52,27.53,0,0,1.11,10,5.95-27.33,0,0,2.71-20.54,3-28.84,0,0,6.2-36,.63-39.78C453.3,693.84,432.47,707.78,432.32,714.66Z"/><path class="cls-63" d="M430.27,714.1s-6.08,20.2,0,28.32c0,0,.88,42.17-12.59,34.67,0,0,3.8,10.2,10.75-.77a134.69,134.69,0,0,0,3.89-33.9,7.61,7.61,0,0,0,1.31-8s-1.56-12.41,0-17.08l.6-3.2Z"/><path class="cls-45" d="M426.45,687.35s.91-5.49-3.87-7.54c0,0-9.46-4.78-9.8,1,0,0-1.13,7.18,4.9,6.95,0,0,5.12-1.25,7.29,1.14C425,688.93,426.46,689.59,426.45,687.35Z"/><path class="cls-45" d="M412,671.23s-1.2-4.34-4.45-2.41c0,0-1.57,3.74,2.23,3.86C409.81,672.68,413.08,673.19,412,671.23Z"/><path class="cls-45" d="M386,682a10.46,10.46,0,0,1,12.41-3s5.66,3.25,7.59-.12c0,0,1.33-1.56-2.17-3a4.57,4.57,0,0,1-2.77-3.07s-.24-3.51-6.75-2.21c0,0-7.34,1.54-12,10.1Z"/><path class="cls-49" d="M416.26,674s42-31.81,51.94-35.11c0,0,5.83,1.69,14-3.27h3s-11.37,6.72-14.57,13.13c0,0-14.87,9.44-19.92,11.36,0,0-24.74,10.25-29.39,14.73h1.82L444,665l14.18-6.19,15.47-6.39s1.67-2,7.85-5.53l18-10.59s6.31,1.07,8.45.8l2.25-.9s-6.18-.09-8.43-1.31l12.18-7.22-31.41,17-9.65,6.19s-2.5,1.59-1-2.06c0,0,9.56-10,14.62-13h4.32a21.2,21.2,0,0,0,4-1.69l10.31-5.72-8.53,4.12s-4.31,2.72-7.88,2.25l-4.59-.28,12.37-7.5s5.15,1.29,8,1a2.89,2.89,0,0,0,2-.3l4-2.07s4.34.86,4.64,2.57a31,31,0,0,1,0,5.5l.91-.55s.76-5.35-.65-6.41a8.44,8.44,0,0,0-3.34-1.72,9.58,9.58,0,0,1,4.72-1.65s4.58-2.75,8.08-1.41c0,0,2.16,2.08,9.32.41v-.78s-6.76,1.25-9.47-.67a2.68,2.68,0,0,0-2.06-.51s1.83-.73,1.42-2.43c0,0-.69-2.8-1.33-3.39,0,0-1.47-.6-.5,1.33,0,0,1.69,2.38.36,3.07,0,0-3.67,3.12-5.13,3.16a6.84,6.84,0,0,0-3.3,1,55.19,55.19,0,0,1-5.6,2.52s-3.48,1.83-6.1,1.42c0,0-3.25,0-4.4-.73l9.26-5.28,7.62-3.34,6.51-2.57-8.85,2.57-8.16,3.25-7,4L490.21,629s-2.79,1.65-1.69-.82l3.44-5.69,7.74-3.9,7.75-2.38,7.48-.92,6.64-.54-2.61-.54-6.92.29L504.61,616l-7.14,2.58-6.16,2.95-4.38,2.14-6.48,3.81-8.65,5.6s-2.18,1.86-.52,1.55l3.89-2.23,7.2-4.3,6.94-4.09-2.64,4.3-3.06,2.85-2.9,2.33L479,634.71l-3.83,1.87a5.38,5.38,0,0,1-3,0s-.86,0-.91-1.5l-.73-1.06-11.85,7.66-7,4.67L444.77,651l-8.34,5.52-5.59,3.83-7.94,5.77-5.56,4.4-3.09,3.53Z"/><path class="cls-64" d="M418.63,702.91s-1.26-6.69,4.42-6.69c0,0,3.57,1.69,1.05,8.41,0,0-5.05,9.67-3.58,15.35,0,0,.63,5.35-2.84,5.83L409,742.42h-1.4v5.33h-1.88s-2.93,12.44-5.86,12.68c0,0-5.91-1.4,6-18,0,0-1.29-1.33,1.17-3.44l9.29-14.41s-3.08-1.41-1.56-7.73C414.7,716.84,418.93,708,418.63,702.91Z"/><path class="cls-45" d="M370.28,696.22s7.39,11.28,3,13.58a38.14,38.14,0,0,0-8,4.53s-3.77,1.7-5.58-2.56c0,0-3.28-6.4,0-11.65,0,0,1-2.79,5.41-5.25,0,0,1.48-6.78-3.44-5.85L357,690.77s-1.64-6.19,2.78-7.28c0,0,5.25-1.75,8.37,2.19,0,0,1.41,4.27,9.4,2.3,0,0,7.94-2,9.47,5.74,0,0,0,4.92-2.79,6.73C384.23,700.45,382.26,688.81,370.28,696.22Z"/><path class="cls-64" d="M382.28,716.43s.15-5.55,2.38-6.32c0,0,3.86-1.4,3.78,3.16,0,0-2.41,13.32-7.3,13,0,0-14.5,21.88-13,29.09,0,0,1.29,5.32,5.67,4.89,0,0-3.09,3.69-7.21-1.37,0,0-3.79-4.46.42-11.93l12.19-21.2S383.33,718.63,382.28,716.43Z"/></g><g id="Layer_26" data-name="Layer 26"><path class="cls-46" d="M378.76,707.29s8.51,8.51,12.33,25.54c0,0,3.83,11.12,3,19.64,0,0-.47,7.9,2.29,3.66,0,0,1.78-3.85,1.19-11,0,0-1.48-9.57-3.56-15,0,0-4.63-13.62-8.48-17.57,0,0-4.19-7.2-6.73-8.48Z"/></g></svg>