<svg xmlns="http://www.w3.org/2000/svg" viewBox="0 0 841.89 841.89"><defs><style>.cls-1{fill:#9f283a;}.cls-2{fill:#7c192d;}.cls-3{fill:#c4c4c4;}.cls-4{fill:#888989;}.cls-5{fill:#edeff0;}.cls-6{fill:#fff;}.cls-7{fill:#e9f5f8;}.cls-8{fill:#c8c7c6;}.cls-9{fill:#efefef;}.cls-10{fill:#c1e4f0;}</style></defs><title>Artboard 1 copy 2</title><g id="Layer_5" data-name="Layer 5"><rect class="cls-1" width="842.09" height="842.09"/></g><g id="Layer_6" data-name="Layer 6"><polyline class="cls-2" points="378 18.88 542.85 198.46 556.66 49.82 892.5 435.08 930.28 985.44 367.51 446.39 350.9 388.34 369.39 405.32 378 18.88"/><polygon class="cls-2" points="564.51 648.14 842 919.85 466.26 919.85 301.92 648.14 564.51 648.14"/></g><g id="Layer_4" data-name="Layer 4"><polygon class="cls-3" points="426.67 159.73 426.67 400.43 382.39 401.12 371.43 415.08 348.71 380.04 284.09 255.41 299.42 198.72 296.69 49.82 335.02 30.92 378 18.88 391.69 152.23 426.67 159.73"/><polygon class="cls-3" points="426.67 403.95 426.67 433.98 418.99 433.98 414.06 439.64 389.1 439.64 367.51 446.39 347.25 408.42 350.9 388.34 370.44 419.56 383.04 403.95 426.67 403.95"/><polygon class="cls-4" points="426.67 159.73 426.67 400.43 470.95 401.12 481.91 415.08 504.63 380.04 569.26 255.41 553.93 198.72 556.66 49.82 518.33 30.92 475.35 18.88 461.65 152.23 426.67 159.73"/><polygon class="cls-4" points="426.67 403.95 426.67 433.98 434.35 433.98 439.29 439.64 464.25 439.64 485.84 446.39 506.1 408.42 502.44 388.34 482.91 419.56 470.31 403.95 426.67 403.95"/><polygon class="cls-5" points="433.19 648.16 433.19 795.81 301.81 648.16 433.19 648.16"/><polygon class="cls-6" points="433.19 654.38 433.19 786.34 315.78 654.38 433.19 654.38"/><polygon class="cls-7" points="433.19 661.71 433.19 775.53 331.91 661.71 433.19 661.71"/><polygon class="cls-8" points="433.03 648.16 433.03 795.81 564.4 648.16 433.03 648.16"/><polygon class="cls-9" points="433.03 654.6 433.03 786.55 550.44 654.6 433.03 654.6"/><polygon class="cls-10" points="433.03 661.71 433.03 775.53 534.3 661.71 433.03 661.71"/></g><g id="Layer_3" data-name="Layer 3"><polygon class="cls-6" points="397.64 256.18 349.99 237.39 316.22 214.94 310.56 235.92 329.55 261.65 388.68 274.25 397.64 256.18"/><polygon class="cls-9" points="455.71 256.18 503.35 237.39 537.12 214.94 542.78 235.92 523.8 261.65 464.67 274.25 455.71 256.18"/></g></svg>