<svg xmlns="http://www.w3.org/2000/svg" viewBox="0 0 841.89 841.89"><defs><style>.cls-1{fill:none;stroke:#bfbdbe;stroke-miterlimit:10;stroke-width:4px;}.cls-2{fill:#c0bebd;}.cls-3{fill:#979696;}.cls-4{fill:#c2b49f;}.cls-5{fill:#998478;}.cls-6{fill:#949894;}.cls-7{fill:#e6d46c;}.cls-8{fill:#e5b34e;}.cls-9{fill:#f8f7f7;}.cls-10{fill:#d2d2d2;}.cls-11{fill:#749948;}.cls-12{fill:#61803c;}.cls-13{fill:#5d7a3a;}.cls-14{fill:#4e6931;}.cls-15{fill:#698941;}.cls-16{fill:#557036;}.cls-17{fill:#fff;}.cls-18{fill:#d7d7d7;}.cls-19{fill:#141d14;}.cls-20{fill:#f7b22f;}.cls-21{fill:#f29121;}.cls-22{fill:#efefef;}.cls-23{fill:#c9b9ac;}.cls-24{fill:#e0dcd7;}.cls-25{fill:#e8e6e6;}.cls-26{fill:#4799d0;}.cls-27{fill:#b9a488;}.cls-28{fill:#c6c3c3;}.cls-29{fill:#d1cfd0;}.cls-30{fill:#377ba5;}.cls-31{fill:#b9a388;}.cls-32{fill:#e3e6e1;}.cls-33{fill:#d2941a;}.cls-34{fill:#c27c12;}.cls-35{fill:#f8b82d;}.cls-36{fill:#fbd043;}.cls-37{fill:#e2a31d;}.cls-38{fill:#e5b341;}.cls-39{fill:#ecae32;}</style></defs><title>avengers_1</title><g id="Layer_11" data-name="Layer 11"><path id="path3" class="cls-1" d="M402,115.24c-88.48,4.54-158.84,78.54-158.84,169.15a170,170,0,0,0,22,84l-17,32.95a202.19,202.19,0,0,1-36.95-116.95c0-111.36,89.25-201.63,199.35-201.63,1.57,0,3.14,0,4.71,0l28.79-58.69h61.52v83A201.93,201.93,0,0,1,610,284.38C610,395.74,520.73,486,410.63,486a196.74,196.74,0,0,1-93.05-23.26l14-29a165.28,165.28,0,0,0,79,20c92.48,0,167.45-75.83,167.45-169.37a169.71,169.71,0,0,0-73.83-140.44V304.23L448,251.06V129.57L378.61,294.46H448V268l65.08,61.18L445.87,380.8V353.47H354.31L294,489.72l-74.63-1.46Z"/><polygon id="polygon5" class="cls-1" points="445.8 399.57 504.14 349.59 504.14 399.57 445.8 399.57"/></g><g id="Layer_2" data-name="Layer 2"><path class="cls-2" d="M493,250s-3.53,8.23-10.35,8.23c0,0-31,7.05-30.8,39,0,0,.47,8.93,1.18,13.63h40Z"/><path class="cls-3" d="M493,250s3.52,8.23,10.34,8.23c0,0,31,7.05,30.8,39,0,0-.47,8.93-1.17,13.63H493Z"/><polygon class="cls-4" points="492.97 310.9 492.97 380.21 481.67 380.21 454.42 356.49 453 310.9 492.97 310.9"/><polygon class="cls-5" points="492.97 310.9 492.97 380.21 504.26 380.21 531.51 356.49 532.94 310.9 492.97 310.9"/><circle class="cls-2" cx="453" cy="426.15" r="18.67"/><circle class="cls-6" cx="532.94" cy="426.15" r="18.67"/><path class="cls-7" d="M456.07,310.9s-4,30.32,6.81,29.15l1.64,28.65s10.58,28.43,7.87,39.47c0,0,5.05,11,6.93,12l-4,16.67-22.55,20,5.87-18.09v-20L440.1,398.07l-8.23-22.79,1.18-31.71L441.27,329l7.52-18.11Z"/><path class="cls-8" d="M530,310.9s4,30.32-6.82,29.15l-1.64,28.65s-10.57,28.43-7.87,39.47c0,0-5.05,11-6.93,12l4,16.67,22.55,20-5.87-18.09v-20l18.56-20.67,8.22-22.79L553,343.57,544.76,329l-7.51-18.11Z"/><path class="cls-9" d="M448.05,359.43l-1.3-29.14,8.85-17.18a76.43,76.43,0,0,1-4.43-23.42c-.26-12.75,0-21.33,0-21.33l-9.36-12L426.19,245.2l-18.47-47.36-3.9,22.64,6,18.73-6-8.06,1.56,14-.52,10.93,2.34,4.42-2.34,4.16s7.8,13.54,5.72,16.92l13.53,10.15-6.5,5.72,5.72,22.64,13.79,12.23,1.3,19.51Z"/><path class="cls-10" d="M537.74,359.43l1.3-29.14-8.85-17.18a76.09,76.09,0,0,0,4.43-23.42c.26-12.75,0-21.33,0-21.33l9.36-12L559.6,245.2l18.47-47.36L582,220.48l-6,18.73,6-8.06-1.57,14,.52,10.93-2.34,4.42,2.34,4.16s-7.8,13.54-5.72,16.92l-13.53,10.15,6.5,5.72-5.72,22.64-13.79,12.23-1.3,19.51Z"/><path class="cls-9" d="M483.91,319.27H463.18S467.73,338.41,483.91,319.27Z"/><path class="cls-10" d="M501.22,319.27H522S517.39,338.41,501.22,319.27Z"/><path class="cls-11" d="M436.83,170.53a23.6,23.6,0,0,1-9.66-8.6s-4-5.61-3.48-21.06c0,0,.7-8.41,6.77-7.92,0,0,6.17.19,9.27,3S436.83,170.53,436.83,170.53Z"/><path class="cls-12" d="M549,170.53a23.53,23.53,0,0,0,9.66-8.6s4-5.61,3.48-21.06c0,0-.7-8.41-6.77-7.92,0,0-6.17.19-9.26,3S549,170.53,549,170.53Z"/><path class="cls-13" d="M437.89,163.09s-5.22-1.85-6.86-10.29c0,0-2.58-11.83,3.25-11.25l3.61,2.7Z"/><path class="cls-14" d="M547.9,163.09s5.22-1.85,6.86-10.29c0,0,2.58-11.83-3.25-11.25l-3.61,2.7Z"/><path class="cls-11" d="M492.9,233.75v-152l-50.27,19.61-7.34,23.06v22.22s-5,3.84.46,8.57c0,0,0,7,11.79,14,0,0-3.12,26-.5,38.75,0,0,11.4,11.5,15.41,19.8,0,0,2.35,8.57,10.37,8.57A63.28,63.28,0,0,0,492.9,233.75Z"/><path class="cls-12" d="M492.9,233.75v-152l50.26,19.61,7.34,23.06v22.22s5,3.84-.46,8.57c0,0,0,7-11.79,14,0,0,3.12,26,.5,38.75,0,0-11.4,11.5-15.41,19.8,0,0-2.35,8.57-10.36,8.57A63.25,63.25,0,0,1,492.9,233.75Z"/><path class="cls-15" d="M447,208s-2.69-9.47.5-38.75c0,0-11.62-6.87-11.79-14,0,0,.15,14.86-1.11,22.33,0,0-2,11.24,3.47,18.71Z"/><path class="cls-16" d="M538.75,208s2.69-9.47-.5-38.75c0,0,11.62-6.87,11.79-14,0,0-.15,14.86,1.11,22.33,0,0,2,11.24-3.47,18.71Z"/><path class="cls-17" d="M480.64,148.69s-1.39,7.36-13.76,7.26a14.18,14.18,0,0,1-12.17-10.78l14.19.53Z"/><path class="cls-15" d="M456,140.94l-11.19,3.77s-1.64.48-2-1c0,0-.27-1.16,1.93-1.78l7.75-2.4Z"/><path class="cls-18" d="M505.15,148.69s1.39,7.36,13.77,7.26a14.17,14.17,0,0,0,12.16-10.78l-14.19.53Z"/><path class="cls-16" d="M529.76,140.94,541,144.71s1.64.48,2-1c0,0,.27-1.16-1.92-1.78l-7.76-2.4Z"/><path class="cls-15" d="M453,197.25s-.55-12.43,6.93-21.9c0,0,6.06-7.6,14.86-10.68,0,0,4.85-1.1,4.08-2.75,0,0-.33-2.86-6.06.66,0,0-13.21,5.39-18.71,17.5,0,0-3.85,9.36-3.63,16.51,0,0-.26,1.62,1,1.62C451.51,198.21,452.36,198.56,453,197.25Z"/><path class="cls-15" d="M492.9,173.15v-2.62a7.56,7.56,0,0,1-6.73-3.64,1.64,1.64,0,0,0-2.24-.31,1.55,1.55,0,0,0,0,2.23A10.6,10.6,0,0,0,492.9,173.15Z"/><path class="cls-15" d="M492.9,198.82a37.88,37.88,0,0,1-12.42-1.92,3.31,3.31,0,0,0-3.53.45s-14,5.49-14.74,5.72c0,0-1.95.47-1.83,1.83,0,0,.47,1.3,2.12.71,0,0,10.63-3.6,14.14-5.25,0,0,2.2-1.48,3.44-.53,0,0,7.29,2.27,12.82,1.34Z"/><path class="cls-15" d="M492.9,206.54a80.09,80.09,0,0,1-9.55-.78s-2.2-.57-2.28.78c0,0-.6,1.7,2.11,1.78,0,0,6.14.68,9.72.76"/><path class="cls-19" d="M472.39,145.32s-10.77-7-23-9.41c0,0-2.72-.21-2.51,2.3,0,0-.31,1.77,2.61,2.4,0,0,15.48,3.87,21.75,9.31l11.4.52a2.22,2.22,0,0,0,2.19-2.09s0-2.51-2.3-2.3Z"/><path class="cls-16" d="M532.79,197.25s.55-12.43-6.93-21.9c0,0-6.06-7.6-14.86-10.68,0,0-4.85-1.1-4.07-2.75,0,0,.33-2.86,6.05.66,0,0,13.21,5.39,18.71,17.5,0,0,3.86,9.36,3.64,16.51,0,0,.25,1.62-1.05,1.62C534.28,198.21,533.44,198.56,532.79,197.25Z"/><path class="cls-16" d="M492.9,173.15v-2.62a7.56,7.56,0,0,0,6.73-3.64,1.62,1.62,0,0,1,2.23-.31,1.54,1.54,0,0,1,0,2.23A10.57,10.57,0,0,1,492.9,173.15Z"/><path class="cls-16" d="M492.9,198.82a37.83,37.83,0,0,0,12.41-1.92,3.31,3.31,0,0,1,3.53.45s14,5.49,14.74,5.72c0,0,1.95.47,1.83,1.83,0,0-.47,1.3-2.12.71,0,0-10.63-3.6-14.13-5.25,0,0-2.21-1.48-3.45-.53,0,0-7.29,2.27-12.81,1.34Z"/><path class="cls-16" d="M492.9,206.54a80,80,0,0,0,9.54-.78s2.2-.57,2.29.78c0,0,.59,1.7-2.12,1.78,0,0-6.13.68-9.71.76"/><path d="M513.4,145.32s10.77-7,23-9.41c0,0,2.72-.21,2.51,2.3,0,0,.32,1.77-2.61,2.4,0,0-15.48,3.87-21.75,9.31l-11.4.52a2.22,2.22,0,0,1-2.19-2.09s0-2.51,2.3-2.3Z"/><path class="cls-19" d="M492.9,99.89V55.43s-13.89-2.33-20-1.52a25.46,25.46,0,0,0,4.67,6.19s-18.17-2.23-23.35-.2a14.14,14.14,0,0,0,6.09,1.42s-8.32.61-11.07,2.13c0,0,4,1.83,4.47,2.84,0,0-10.05-.5-14.62,2,0,0,8.63,2.14,9.65,3.25,0,0-14.21-2.33-20.61,2.13,0,0,6.6,1,7.21,2.24,0,0-7,2.43-7.72,6.29l6.64,59.32L437.39,125s12.18-11.78,13.3-20.41a11.21,11.21,0,0,1-.41,8.22s3.76-1.42,5.08-7.51c0,0,1.11,7.11,3.35,8,0,0,19.18-5,24.56-17.15,0,0,.61,10,6.8,10.86,0,0-.81-8.93.31-10.56C490.38,96.44,492.57,98,492.9,99.89Z"/><path d="M492.9,99.89V55.43s13.89-2.33,20-1.52a25.46,25.46,0,0,1-4.67,6.19s18.17-2.23,23.34-.2a14.14,14.14,0,0,1-6.09,1.42s8.33.61,11.07,2.13c0,0-4,1.83-4.47,2.84,0,0,10.05-.5,14.62,2,0,0-8.63,2.14-9.65,3.25,0,0,14.22-2.33,20.61,2.13,0,0-6.6,1-7.21,2.24,0,0,7,2.43,7.72,6.29l-6.64,59.32L548.4,125s-12.18-11.78-13.29-20.41a11.17,11.17,0,0,0,.4,8.22s-3.75-1.42-5.07-7.51c0,0-1.12,7.11-3.35,8,0,0-19.19-5-24.57-17.15,0,0-.61,10-6.8,10.86,0,0,.81-8.93-.3-10.56C495.42,96.44,493.22,98,492.9,99.89Z"/><polygon class="cls-20" points="329.21 315.52 329.21 416.09 310.71 416.38 306.13 422.22 296.63 407.57 269.63 355.5 276.03 331.81 274.89 269.59 290.91 261.7 308.87 256.67 314.59 312.39 329.21 315.52"/><polygon class="cls-20" points="329.21 417.56 329.21 430.11 326 430.11 323.94 432.48 313.51 432.48 304.49 435.3 296.02 419.43 297.55 411.04 305.71 424.09 310.97 417.56 329.21 417.56"/><polygon class="cls-21" points="329.21 315.52 329.21 416.09 347.71 416.38 352.29 422.22 361.78 407.57 388.78 355.5 382.38 331.81 383.52 269.59 367.5 261.7 349.54 256.67 343.82 312.39 329.21 315.52"/><polygon class="cls-21" points="329.21 417.56 329.21 430.11 332.42 430.11 334.48 432.48 344.91 432.48 353.93 435.3 362.39 419.43 360.87 411.04 352.7 424.09 347.44 417.56 329.21 417.56"/><polygon class="cls-17" points="317.07 355.82 297.17 347.97 283.06 338.59 280.69 347.35 288.62 358.11 313.33 363.37 317.07 355.82"/><polygon class="cls-22" points="341.34 355.82 361.25 347.97 375.36 338.59 377.72 347.35 369.79 358.11 345.08 363.37 341.34 355.82"/><g id="Layer_8" data-name="Layer 8"><path class="cls-23" d="M278.23,150s-5-8.31-7.32-7.5-3.24,4-3.13,5.38.65,10.22,1.12,11.81,2.66,12.55,3,16.08,2.25,7.29,2.9,7.51a3.57,3.57,0,0,0,3.69-1.18c1.1-1.48,2-2.72,2-2.72L280,151.34Z"/><path class="cls-24" d="M275.58,108.72a15.31,15.31,0,0,1-.61-7.15c-2.31-2-9.44-10.46-7.19-20.09.65-1.78-6.25,7.62-6.08,9.71s7,7,7,7l1.36,7.24s5.1,10.17,6.56,10.53-.47-6.92-.47-6.92Z"/><path class="cls-25" d="M276.46,113.16s-4-1.66-3.9-4.73.48-6.26.48-6.26-6.15-2-7.09-17.15c-.7.61-4.26,4.86-4.62,6.74a46.59,46.59,0,0,0,0,7.13l4.49-2.75s-4.8,5.31-4.65,6.26.75,9.58,1,9.93,4.26-3.79,4.26-3.79,1.35,1.77-2.37,6.74c-2.6.36,2.47,6,3.72,6.38s-1.12-3.78,4-8.63c1.06.71.35,6.86.59,9.46s2.83,6.38,4.13,7.33,1.66-16,1.66-16Z"/><path class="cls-26" d="M328.44,63.31h-.1c-2.21,0-41.11.53-49.08,29.32-2.43,10-4.33,14.26-4.09,25.38s4,37.35,4,42.55-.23,27,.48,29.8,13.63,23.09,14.57,25,1.34,2.28,2,3.54,3.86,2.68,7.33,7.1S315,239.45,315.9,240s13.32.63,13.32.63V63.31Z"/><path class="cls-23" d="M329.19,172.15a7.83,7.83,0,0,0-4.71,2.28c-1.81,2-1.45,3.59-3.86,4.43S301,185.8,298.89,188s-1.21,3.12-2.42,6.23-6.16,11.14-4,18.09,4,9.71,6.76,11S312.4,237.18,313,238s1,2.84,4.83,3.18,11.33,0,11.33,0Z"/><path class="cls-17" d="M289.59,155s7,.23,9.1,1.42,15.38,9.57,20.45,8.63c-4.49,3.42-9.12,9.1-14.78,9.45s-8.16.12-9.81-4.49C292.54,166.12,291.12,156.78,289.59,155Z"/><path class="cls-27" d="M380.16,150s5-8.31,7.33-7.5,3.24,4,3.13,5.38-.65,10.22-1.12,11.82-2.66,12.54-3,16.07-2.24,7.29-2.89,7.51a3.59,3.59,0,0,1-3.7-1.18c-1.09-1.48-2-2.72-2-2.72l.41-28.08Z"/><path class="cls-28" d="M382.82,108.72a15.31,15.31,0,0,0,.61-7.15c2.31-2,9.44-10.46,7.19-20.09-.65-1.78,6.25,7.62,6.07,9.71s-6.93,7-6.93,7l-1.36,7.24s-5.1,10.16-6.56,10.52.47-6.91.47-6.91Z"/><path class="cls-29" d="M381.93,113.16s4-1.66,3.9-4.73-.47-6.26-.47-6.26,6.15-2,7.1-17.14c.68.61,4.25,4.85,4.61,6.73a46.57,46.57,0,0,1,0,7.13l-4.48-2.75s4.81,5.32,4.65,6.26-.75,9.58-1,9.93-4.27-3.79-4.27-3.79-1.35,1.77,2.37,6.74c2.6.36-2.47,6-3.72,6.38s1.11-3.78-4-8.63c-1.06.71-.35,6.86-.59,9.46s-2.83,6.38-4.14,7.33-1.65-16-1.65-16Z"/><path class="cls-30" d="M330,63.31h.09c2.22,0,41.12.53,49.09,29.32,2.42,10,4.33,14.26,4.09,25.38s-4,37.35-4,42.55.24,27-.47,29.8-13.63,23.09-14.57,25-1.34,2.28-2.05,3.54-3.86,2.68-7.33,7.1-11.43,13.47-12.29,14-13.32.63-13.32.63V63.31Z"/><path class="cls-31" d="M329.17,172.15a7.83,7.83,0,0,1,4.71,2.28c1.82,2,1.45,3.59,3.87,4.43s19.69,6.95,21.75,9.1,1.21,3.12,2.43,6.23,6.16,11.14,4,18.09-4,9.71-6.76,11S346,237.18,345.39,238s-1,2.84-4.84,3.18-11.36,0-11.36,0Z"/><path class="cls-25" d="M368.81,155s-7,.24-9.1,1.42-15.38,9.57-20.45,8.63c4.49,3.42,9.1,9.1,14.77,9.45s8.16.12,9.82-4.49C365.88,166.12,367.27,156.78,368.81,155Z"/><polygon class="cls-17" points="298.59 129.91 320.02 84.98 329.17 84.98 329.17 95.09 322.86 110.2 329.17 110.2 329.17 120.45 318.45 120.45 313.88 129.91 298.59 129.91"/><polygon class="cls-32" points="359.75 129.91 338.31 84.98 329.17 84.98 329.17 95.09 335.47 110.2 329.17 110.2 329.17 120.45 339.89 120.45 344.46 129.91 359.75 129.91"/></g></g><g id="Layer_4" data-name="Layer 4"><path class="cls-33" d="M436,789.7l-5.89-3.58-4.35-6.87s-35.45-3.85-43.14-12.64c0,0-.83-39.3,15.94-55.79,0,0,10.29-13.19,37.44-11.27Z"/><path class="cls-33" d="M436,789.7l5.88-3.58,4.35-6.87s35.45-3.85,43.15-12.64c0,0,.82-39.3-15.94-55.79,0,0-10.3-13.19-37.44-11.27Z"/></g><g id="Layer_7" data-name="Layer 7"><path class="cls-34" d="M436,772.17s-7.58-5-5.89-15.93H436Z"/><path class="cls-34" d="M436,772.17s7.57-5,5.88-15.93H436Z"/></g><g id="Layer_8-2" data-name="Layer 8"><path class="cls-35" d="M436,756.24h-5.89s-9.75-10.74-13.52-20c0,0-3.65-7.24-8-11.46,0,0-9.47-8.42-9.08-15a23,23,0,0,1,8.93-6s-.64,7,2.53,7.55c0,0,13.44,9.36,15,14.63,0,0,8.41,19.64,10,20.3Z"/><path class="cls-35" d="M436,756.24h5.88s9.75-10.74,13.53-20c0,0,3.64-7.24,8-11.46,0,0,9.47-8.42,9.08-15a22.9,22.9,0,0,0-8.93-6s.64,7-2.52,7.55c0,0-13.45,9.36-15,14.63,0,0-8.41,19.64-10,20.3Z"/></g><g id="Layer_9" data-name="Layer 9"><path class="cls-36" d="M436,752.12s-6.54,1.13-7.79-3.76c0,0-11.16-23.19-14.67-25.82,0,0-12.92-8.48-11.79-14.71l2.86-2s.53,4.52,3.17,5.65c0,0,14.16,10,15.16,14.41,0,0,9.56,24.32,13.06,24.2Z"/><path class="cls-36" d="M436,752.12s6.53,1.13,7.78-3.76c0,0,11.16-23.19,14.67-25.82,0,0,12.92-8.48,11.79-14.71l-2.86-2s-.53,4.52-3.17,5.65c0,0-14.16,10-15.16,14.41,0,0-9.56,24.32-13.05,24.2Z"/></g><g id="Layer_3" data-name="Layer 3"><path class="cls-37" d="M416.54,756a84.47,84.47,0,0,1-11.36-18.09s-21.5-52.39-29.35-89.58c0,0-17.81-69.65,0-55.51,0,0,6,2.88,14.92,19.38,0,0-1.83-22.26-13.35-33.78,0,0-8.38-10.48-19.9,5.5,0,0-15.71,19.9-11.79,52.37,0,0,5.5,59.18,23.05,94.79,0,0,11.78,27.5,32.2,34.3Z"/><path class="cls-37" d="M455.36,756a84.69,84.69,0,0,0,11.35-18.09s21.5-52.39,29.35-89.58c0,0,17.81-69.65,0-55.51,0,0-6,2.88-14.92,19.38,0,0,1.83-22.26,13.35-33.78,0,0,8.38-10.48,19.9,5.5,0,0,15.72,19.9,11.79,52.37,0,0-5.5,59.18-23,94.79,0,0-11.78,27.5-32.2,34.3Z"/></g><g id="Layer_6" data-name="Layer 6"><path class="cls-38" d="M351.18,654.48l20.75-23.4s3.09,14.75,5.29,23.4l-21.35,23.85Z"/><path class="cls-38" d="M358.46,687.65l21-24.75s2.71,9.73,4.3,14.81h0l-22,24.39Z"/><path class="cls-38" d="M520.71,654.48,500,631.08s-3.09,14.75-5.29,23.4L516,678.33Z"/><path class="cls-38" d="M513.43,687.65,492.48,662.9s-2.71,9.73-4.3,14.81h0l22,24.39Z"/></g><g id="Layer_5" data-name="Layer 5"><path class="cls-39" d="M406.39,761.93A95.9,95.9,0,0,1,377,727.22s-25-53.19-25.46-95.9c0,0,.61-30.4,9.65-52,0,0-23,17.86-13.56,71.26,0,0,0,11.5,11.3,55.66,0,0,14.17,49.7,41.69,58.94Z"/><path class="cls-39" d="M465.5,761.93a95.79,95.79,0,0,0,29.37-34.71s25.06-53.19,25.47-95.9c0,0-.62-30.4-9.66-52,0,0,23,17.86,13.56,71.26,0,0,0,11.5-11.3,55.66,0,0-14.17,49.7-41.69,58.94Z"/></g></svg>