<svg xmlns="http://www.w3.org/2000/svg" viewBox="0 0 841.89 841.89"><defs><style>.cls-1{fill:#838b8d;}.cls-2,.cls-25{fill:none;stroke-miterlimit:10;}.cls-2{stroke:#333535;}.cls-3{fill:#6b7172;}.cls-4{fill:#6a6e70;}.cls-5{fill:#4e5051;}.cls-6{fill:#9d9f9a;}.cls-7{fill:#26252d;}.cls-8{fill:#111113;}.cls-9{fill:#dcddd8;}.cls-10{fill:#7a7a79;}.cls-11{fill:#c2c1c1;}.cls-12{fill:#616160;}.cls-13{fill:#8b8c8b;}.cls-14{fill:#2d343a;}.cls-15{fill:#202428;}.cls-16{fill:#131316;}.cls-17{fill:#ec6535;}.cls-18{fill:#cf5632;}.cls-19{fill:#363f48;}.cls-20{fill:#23282d;}.cls-21{fill:#7e7f7d;}.cls-22{fill:#7c8487;}.cls-23{fill:#65696b;}.cls-24{fill:#252b30;}.cls-25{stroke:#1d1d1b;stroke-width:2px;}.cls-26{fill:#515354;}.cls-27{fill:#bfbebe;}.cls-28{fill:#81827f;}.cls-29{fill:#868784;}</style></defs><title>avengers_2</title><g id="Layer_21" data-name="Layer 21"><path class="cls-1" d="M321,333.54a227.8,227.8,0,0,0,10.73,56.15s12.23,7.17,27-6.95c0,0-4.61-13.82-5-20.3h0L321,333.54"/><path class="cls-2" d="M323,352.77s8.78-9.67,19.73,0"/><path class="cls-2" d="M327.27,374.14s13.22-12.13,27.91-3.35"/><path class="cls-3" d="M546.28,333.54a228.37,228.37,0,0,1-10.73,56.15s-12.24,7.17-27-6.95c0,0,4.61-13.82,5-20.3h0l32.73-28.9"/><path class="cls-2" d="M544.23,352.77s-8.78-9.67-19.73,0"/><path class="cls-2" d="M540,374.14s-13.21-12.13-27.9-3.35"/></g><g id="Layer_20" data-name="Layer 20"><path class="cls-4" d="M284.66,184l-24.42,3.67S216.44,288.6,314.89,345.5h0l-13.58-17.05-20.2-39.55,3.07-79.47.48-25.44"/><path class="cls-5" d="M582.58,184,607,187.66S650.8,288.6,552.34,345.5h0l13.59-17.05,20.19-39.55-3.06-79.47L582.58,184"/></g><g id="Layer_19" data-name="Layer 19"><path class="cls-6" d="M439.43,339.25v61.46s-25.44,1.71-37.79-2.53h0L423.47,331l16,8.26"/><path class="cls-7" d="M299.88,199.75,284.66,184s-27.13,53.95-10.47,101.1c0,0,12.41,34.69,40.7,60.41,0,0-37.6-52.61-17.05-89.24l17.05-45.4-15-11.11"/><path class="cls-6" d="M427.81,339.25v61.46s25.43,1.71,37.79-2.53h0L443.76,331l-15.95,8.26"/><path class="cls-8" d="M567.35,199.75,582.58,184s27.13,53.95,10.46,101.1c0,0-12.4,34.69-40.7,60.41,0,0,37.6-52.61,17.06-89.24l-17.06-45.4,15-11.11"/></g><g id="Layer_18" data-name="Layer 18"><polyline class="cls-9" points="311.04 280.28 320.96 333.54 389.28 393.94 325.38 273.13 311.04 280.28"/><path class="cls-10" d="M389.28,393.94s7.74,6.08,21,3.68c0,0,18.15-37.43,16.76-58.62h0l-10.17-9.41L398,341.21l-8.68,52.73"/><polyline class="cls-11" points="556.2 280.28 546.28 333.54 477.96 393.94 541.86 273.13 556.2 280.28"/><path class="cls-12" d="M478,393.94s-7.75,6.08-21,3.68c0,0-18.15-37.43-16.77-58.62h0l10.17-9.41,18.9,11.62L478,393.94"/></g><g id="Layer_17" data-name="Layer 17"><path class="cls-6" d="M318.36,279.53l9.19,49.2,61.73,65.21s18.89-18.84,17.49-52.07h0l-48.59-37.38-14.66-31.36-25.16,6.4"/><path class="cls-13" d="M548.88,279.53l-9.2,49.2L478,393.94s-18.89-18.84-17.49-52.07h0l48.59-37.38,14.65-31.36,25.17,6.4"/></g><g id="Layer_16" data-name="Layer 16"><path class="cls-14" d="M336.19,280.23s-8.42,57.48,53.09,82.21l5-11.26-6.64-25.84-15-47.18-36.51,2.07"/><polyline points="439.43 326.83 439.43 339.25 410.27 339.25 394.3 351.18 394.3 339.25 410.27 326.83 439.43 326.83"/><path class="cls-15" d="M531,280.23s8.42,57.48-53.08,82.21l-5-11.26,6.63-25.84,15-47.18,36.5,2.07"/><polyline points="427.81 326.83 427.81 339.25 456.97 339.25 472.94 351.18 472.94 339.25 456.97 326.83 427.81 326.83"/></g><g id="Layer_15" data-name="Layer 15"><path class="cls-7" d="M353.83,284.52S349,335,394.3,351.18V339.25L398,312.18l-28.85-30.43-15.28,2.77"/><path class="cls-16" d="M513.4,284.52s4.83,50.49-40.46,66.66V339.25l-3.67-27.07,28.85-30.43,15.28,2.77"/></g><g id="Layer_14" data-name="Layer 14"><path class="cls-17" d="M376.24,292.94s-7.93,26.6,16.46,27.43h0l3.09-24.53Z"/><path class="cls-18" d="M491,292.94s7.93,26.6-16.47,27.43h0l-3.08-24.53Z"/></g><g id="Layer_13" data-name="Layer 13"><polyline class="cls-6" points="427.03 326.83 410.27 326.83 390.78 295.84 376.24 264.23 418.04 250.97 427.03 326.83"/><path class="cls-19" d="M286.26,247.51,311,280.28s57.75-10.42,81.66,40.09h0l-1.92-41.31L356.06,251l-69.8-3.47"/><polyline class="cls-6" points="440.2 326.83 456.97 326.83 476.46 295.84 491 264.23 449.19 250.97 440.2 326.83"/><path class="cls-20" d="M581,247.51,556.2,280.28s-57.76-10.42-81.67,40.09h0l1.93-41.31L511.17,251,581,247.51"/></g><g id="Layer_7" data-name="Layer 7"><polyline class="cls-6" points="299.88 209.03 299.88 164.56 321.95 160.14 346.13 181.32 332.87 203.55 321.69 220.81 299.88 209.03"/><path class="cls-9" d="M435.73,223.21l3.7,103.62H427s-8.91-64.37-20.33-70.5h0l.74-16.23L427,210.86l8.7,12.35"/><polyline class="cls-21" points="567.35 209.03 567.35 164.56 545.29 160.14 521.1 181.32 534.37 203.55 545.55 220.81 567.35 209.03"/><path class="cls-11" d="M431.5,223.21l-3.69,103.62H440.2s8.91-64.37,20.34-70.5h0l-.74-16.23-19.6-29.24-8.7,12.35"/></g><g id="Layer_12" data-name="Layer 12"><path class="cls-22" d="M299.88,224.81l-13.62,22.7s73.7,2.09,94.29,43.79c0,0,15.61,23.35,13.75,47.95l16-12.42s-4.7-29.34-23.8-53.7h0l1.19-17.28L323,217.07l-23.13,7.74"/><path class="cls-23" d="M567.35,224.81,581,247.51s-73.7,2.09-94.29,43.79c0,0-15.61,23.35-13.75,47.95l-16-12.42s4.69-29.34,23.8-53.7h0l-1.2-17.28,64.66-38.78,23.12,7.74"/></g><g id="Layer_8" data-name="Layer 8"><path class="cls-19" d="M331.69,218.85s46.41,37.83,91.78,4.36h0L392,193.27l-43.5-18.33-16.81,43.91"/><path class="cls-24" d="M535.55,218.85s-46.41,37.83-91.79,4.36h0l31.47-29.94,43.51-18.33,16.81,43.91"/></g><g id="Layer_9" data-name="Layer 9"><ellipse class="cls-17" cx="376.24" cy="225.48" rx="18.06" ry="18.16"/><ellipse cx="376.24" cy="225.48" rx="14.54" ry="14.62"/><ellipse class="cls-17" cx="376.24" cy="225.48" rx="11.82" ry="11.88"/><ellipse class="cls-25" cx="376.24" cy="225.48" rx="4.31" ry="4.34"/><ellipse class="cls-18" cx="491" cy="225.48" rx="18.06" ry="18.16"/><ellipse cx="491" cy="225.48" rx="14.54" ry="14.62"/><ellipse class="cls-18" cx="491" cy="225.48" rx="11.82" ry="11.88"/><ellipse class="cls-25" cx="491" cy="225.48" rx="4.31" ry="4.34"/></g><g id="Layer_10" data-name="Layer 10"><path class="cls-7" d="M423.47,223.21s-41.05-1.88-65.36-21.37c0,0-15.11,11.95-17.52,23l-8.9-6L329,199.67l15.79-8.43L370,184l53.5,39.22"/><path class="cls-8" d="M443.76,223.21s41.06-1.88,65.36-21.37c0,0,15.11,11.95,17.52,23l8.91-6,2.69-19.18-15.8-8.43L497.26,184l-53.5,39.22"/></g><g id="Layer_11" data-name="Layer 11"><path class="cls-4" d="M423.47,223.21s-39.61,34.31-91.78-4.36h0s-5.74-1.36-3.3,8.86h0s46.75,15.35,58.08,45.42c0,0,31.75-17.83,37-49.92"/><path class="cls-26" d="M443.76,223.21s39.61,34.31,91.79-4.36h0s5.73-1.36,3.29,8.86h0s-46.75,15.35-58.07,45.42c0,0-31.76-17.83-37-49.92"/></g><g id="Layer_6" data-name="Layer 6"><path class="cls-9" d="M358.11,190.34a63.23,63.23,0,0,0-29.72,37.37s-19.48-2.9-28.51-2.9V209l18.48,3.08s3.68-18.47,15.45-29.77c0,0-16.95-17.78-33.93-17.78l0-21.28,58.21-3Z"/><path class="cls-27" d="M509.12,190.34a63.19,63.19,0,0,1,29.72,37.37s19.48-2.9,28.51-2.9V209l-18.47,3.08s-3.68-18.47-15.45-29.77c0,0,17-17.78,33.92-17.78V143.28l-58.22-3Z"/></g><g id="Layer_5" data-name="Layer 5"><path class="cls-6" d="M423.47,223.21s-38.5-4.5-65.36-32.73c0,0-20.3-43.3-58.21-47.06,0,0-1-6.47,11.14-22.19h0L361.68,118l40.71,29.64,21.08,75.55"/><path class="cls-28" d="M443.76,223.21s38.5-4.5,65.36-32.73c0,0,20.31-43.3,58.22-47.06,0,0,1-6.47-11.14-22.19h0L505.56,118l-40.71,29.64-21.09,75.55"/></g><g id="Layer_4" data-name="Layer 4"><polyline class="cls-17" points="405.19 183.99 391.44 183.99 375.85 147.62 311.04 121.23 318.36 110.96 358.12 105.97 400.59 143.42 405.19 183.99"/><polyline class="cls-18" points="462.05 183.99 475.8 183.99 491.39 147.62 556.2 121.23 548.88 110.96 509.12 105.97 466.64 143.42 462.05 183.99"/></g><g id="Layer_3" data-name="Layer 3"><path class="cls-9" d="M423.47,223.21,405.19,184,389.9,139l-71.54-28a189.5,189.5,0,0,1,47.09-39.75h0l38.65,11.2L421,130.18l6,50.51-3.56,42.52"/><path class="cls-27" d="M443.76,223.21,462.05,184l15.29-45,71.54-28a189.67,189.67,0,0,0-47.1-39.75h0l-38.64,11.2-16.93,47.77-6,50.51,3.56,42.52"/></g><g id="Layer_2" data-name="Layer 2"><path class="cls-6" d="M365.45,71.21s63.74,50.12,58,152h12.26V47.38S385.07,48.21,365.45,71.21Z"/><path class="cls-29" d="M501.78,71.21s-63.74,50.12-58,152H431.5V47.38S482.17,48.21,501.78,71.21Z"/><ellipse class="cls-7" cx="433.62" cy="384.92" rx="11.62" ry="9.02"/><path id="path3" class="cls-19" d="M416.82,571.4c-42.33,2.17-76,37.57-76,80.93a81.4,81.4,0,0,0,10.54,40.19l-8.12,15.77a96.78,96.78,0,0,1-17.68-56c0-53.28,42.71-96.48,95.38-96.48.76,0,1.51,0,2.26,0L437,527.8h29.44v39.7a96.62,96.62,0,0,1,49.92,84.83c0,53.28-42.71,96.47-95.39,96.47a94.06,94.06,0,0,1-44.51-11.13l6.71-13.88a79,79,0,0,0,37.8,9.57c44.25,0,80.13-36.28,80.13-81a81.22,81.22,0,0,0-35.33-67.2v76.69l-26.9-25.44V578.25l-33.21,78.9h33.21V644.48L470,673.76l-32.17,24.7V685.38H394l-28.86,65.19-35.7-.7Z"/><polygon id="polygon5" class="cls-19" points="437.77 707.44 465.69 683.52 465.69 707.44 437.77 707.44"/></g></svg>