<svg xmlns="http://www.w3.org/2000/svg" viewBox="0 0 841.89 841.89"><defs><style>.cls-1{fill:#282828;}.cls-2{fill:#131314;}.cls-3{fill:#444;}.cls-4{fill:#333;}.cls-5{fill:#4d4c4c;}.cls-6{fill:#333233;}.cls-7{fill:#1f2020;}.cls-8{fill:#222323;}.cls-9{fill:#3a3a3a;}.cls-10{fill:#2d2d2d;}.cls-11{fill:#d1cfd0;}.cls-12{fill:#303031;}.cls-13{fill:#0b0c0d;}.cls-14{fill:#1c1e1d;}.cls-15{fill:#141414;}.cls-16{fill:#bfbdbe;}.cls-17{fill:#383838;}.cls-18{fill:#1f1f1f;}.cls-19{fill:#363737;}.cls-20{fill:#c4c4c4;}.cls-21{fill:#c7c6c6;}.cls-22{fill:#b2b1b1;}.cls-23{fill:#bbbbbc;}.cls-24{fill:#1b1b1b;}.cls-25{fill:#cdcccc;}.cls-26{fill:#4a494a;}.cls-27{fill:#fff;}.cls-28{fill:#b9b9b9;}.cls-29{fill:#b4b4b4;}.cls-30{fill:#333434;}.cls-31{fill:#171717;}.cls-32{fill:#d1d0d1;}.cls-33{fill:#e5e6e5;}.cls-34{fill:#bababa;}</style></defs><title>black_P</title><g id="Layer_10" data-name="Layer 10"><polyline class="cls-1" points="420.94 93.53 420.94 82.63 331.33 72.91 311.72 39.16 305.16 87.02 318.34 123.06 420.94 93.53"/><polyline class="cls-2" points="420.94 93.53 420.94 82.63 510.56 72.91 530.17 39.16 536.73 87.02 523.55 123.06 420.94 93.53"/></g><g id="Layer_8" data-name="Layer 8"><path class="cls-3" d="M420.94,191.35V90.4s-23.88-1.33-70.79,10.88c0,0-17.81,4.53-30.07,10.49,0,0-2,70.47,17.38,97.06l31.08,17.47,47.87-22Z"/><path class="cls-4" d="M420.94,191.35V90.4s23.89-1.33,70.8,10.88c0,0,17.81,4.53,30.07,10.49,0,0,2,70.47-17.38,97.06L473.35,226.3l-47.87-22Z"/></g><g id="Layer_9" data-name="Layer 9"><polygon class="cls-5" points="290.44 202.65 313.43 90.4 311.72 39.16 277.81 134.38 274.44 158.32 284.4 204.94 290.44 202.65"/><path class="cls-3" d="M420.94,87.59V56.17S376.58,54.51,342,69.58L325.56,82.93l-9.82,19.39,4.28,6.81S371.7,88.51,420.94,87.59Z"/><polygon class="cls-6" points="551.45 202.65 528.46 90.4 530.17 39.16 564.08 134.38 567.45 158.32 557.49 204.94 551.45 202.65"/><path class="cls-4" d="M420.94,87.59V56.17s44.37-1.66,79,13.41l16.43,13.35,9.82,19.39-4.28,6.81S470.19,88.51,420.94,87.59Z"/></g><g id="Layer_2" data-name="Layer 2"><path class="cls-4" d="M420.94,501.26V329s-22.86-2.51-32.93,12.59l6,115.32-16.62,32.23S387.92,500.25,420.94,501.26Z"/><path class="cls-7" d="M420.94,501.26V329s22.87-2.51,32.94,12.59l-6,115.32,16.62,32.23S454,500.25,420.94,501.26Z"/></g><g id="Layer_3" data-name="Layer 3"><polygon class="cls-8" points="377.43 489.17 373.44 486.67 387.08 460.45 381.48 339.98 388.32 347.68 394.05 456.94 377.43 489.17"/><path class="cls-9" d="M373.44,486.67l13.64-26.22-1-21.84L364.4,405.29l-27.08,37.38S351.73,467.88,373.44,486.67Z"/><polygon class="cls-10" points="386.06 438.62 343.18 372.88 334.91 360.33 368.66 321.94 381.48 339.98 386.06 438.62"/><path class="cls-11" d="M337.32,442.67l27.08-37.38-29.49-45H327.5l-55.91-77.58v5.55l83.27,115L334,434.42S333.66,436.78,337.32,442.67Z"/><path class="cls-12" d="M354.86,403.29,334,434.42s-12-38.11-20.24-46.88c0,0-42.65-37.28-42.21-99.24Z"/><polygon class="cls-13" points="464.46 489.17 468.45 486.67 454.81 460.45 460.41 339.98 453.57 347.68 447.84 456.94 464.46 489.17"/><path class="cls-14" d="M468.45,486.67l-13.64-26.22,1-21.84,21.66-33.32,27.08,37.38S490.16,467.88,468.45,486.67Z"/><polygon class="cls-15" points="455.83 438.62 498.71 372.88 506.98 360.33 473.23 321.94 460.41 339.98 455.83 438.62"/><path class="cls-16" d="M504.57,442.67l-27.08-37.38,29.49-45h7.41l55.91-77.58v5.55L487,403.29l20.82,31.13S508.23,436.78,504.57,442.67Z"/><path class="cls-15" d="M487,403.29l20.82,31.13s12-38.11,20.24-46.88c0,0,42.65-37.28,42.21-99.24Z"/></g><g id="Layer_7" data-name="Layer 7"><path class="cls-17" d="M420.94,266.13V210.88l-27.12-29.23-39-15.47-12.13-62.76s-5.84,81,17.76,119.37L334.91,211l-10.81-21.9L318,146.3l-4.56-55.9S281.65,146,288.72,224.47l25.95,5.73,57.62,25.09,1.7,13.58.49,1.71v8.24l46.46-12.69"/><polygon class="cls-8" points="420.94 210.88 420.94 191.35 411.88 201.12 420.94 210.88"/><path class="cls-18" d="M420.94,266.13V210.88l27.13-29.23,39-15.47,12.13-62.76s5.84,81-17.76,119.37L507,211l10.81-21.9,6.11-42.79,4.56-55.9S560.24,146,553.17,224.47l-25.95,5.73L469.6,255.29l-1.7,13.58-.49,1.71v8.24l-46.47-12.69"/><polygon class="cls-15" points="420.94 210.88 420.94 191.35 430.01 201.12 420.94 210.88"/></g><g id="Layer_6" data-name="Layer 6"><path class="cls-19" d="M374,268.87s-.69-10.17-22.62-21c0,0-28.05-12.73-53.69-12.57l12.39,22.41L374,268.87"/><path class="cls-20" d="M271.58,157.84s-1.06,55.8,24.13,88.48h0l8-.1-6-10.9s64.8,4.27,76.31,33.55h0l24.48-5.12V239.83l-61-31S316.76,184.07,320.51,95L342,69.58l-10.66,3.33L313.43,90.4s-9.14,79.51,19.15,124.89L390.32,244V256.8l-11.43,2.28s-17.49-28.95-87.45-39.63c0,0-14.23-55.43-13.63-85.07,0,0-5.76,8.64-6.23,23.46"/><path class="cls-21" d="M412.14,268.54v-48l-42.21-26.5s-15.07-6.12-19.78-92.79l-7.42,2.14S344.85,175.1,364.4,199l39.27,25.28.05,46.56,8.42-2.3"/><path class="cls-19" d="M467.9,268.87s.69-10.17,22.62-21c0,0,28.05-12.73,53.69-12.57l-12.39,22.41L467.9,268.87"/><path class="cls-22" d="M570.31,157.84s1.06,55.8-24.13,88.48h0l-8-.1,6-10.9s-64.8,4.27-76.31,33.55h0l-24.48-5.12V239.83l61-31S525.13,184.07,521.38,95L499.9,69.58l10.66,3.33,17.9,17.49s9.14,79.51-19.15,124.89L451.56,244V256.8L463,259.08s17.49-28.95,87.45-39.63c0,0,14.23-55.43,13.63-85.07,0,0,5.76,8.64,6.23,23.46"/><path class="cls-23" d="M429.75,268.54v-48L472,194.07S487,188,491.74,101.28l7.42,2.14S497,175.1,477.49,199l-39.28,25.28,0,46.56-8.42-2.3"/></g><g id="Layer_5" data-name="Layer 5"><path class="cls-24" d="M373.91,268.84s-36.46-25.45-63.84-27.11L315.63,253l37.46,14.59Z"/><path class="cls-24" d="M468,268.84s36.46-25.45,63.84-27.11L526.26,253,488.8,267.61Z"/></g><g id="Layer_4" data-name="Layer 4"><path class="cls-25" d="M295.89,362.56l3-10.89L279.45,328S281.8,343.13,295.89,362.56Z"/><path class="cls-21" d="M420.94,329v-7.09s-24.8-.57-34.88,11.94l-36.8-51.13s-40.75.91-55-31.31h-7.2s9.28,35.44,58.75,38.66L382,340.5l6.37,7.17-.31-6.05S396.25,327.67,420.94,329Z"/><path class="cls-26" d="M420.94,321.94V273.5l-39.87,11.88v9.5l-16.67,8.89,21.66,30.11S393.33,322.54,420.94,321.94Z"/><polygon class="cls-10" points="420.94 273.5 420.94 266.13 374.48 278.82 374.48 290.17 359.7 297.26 364.39 303.77 381.07 294.88 381.07 285.38 420.94 273.5"/><path class="cls-26" d="M368.66,322,345.85,290.1s-44.79-.11-58.75-38.66h7.2s10.76,30.5,55,31.31l10.44,14.51,14.78-7.09V270.58s-48.14,15.61-72.94-20.78l-1.09-3.48h-4.74s-20.35-20.54-24.13-88.48c0,0-3.26,89.22,0,124.91l55.91,77.58h7.41Z"/><path class="cls-27" d="M300.45,246.32A63.88,63.88,0,0,1,334,254s29.6,12.59,40,14.92l.49,1.71S325.78,287,301.54,249.8Z"/><path class="cls-28" d="M546,362.56l-3-10.89L562.44,328S560.09,343.13,546,362.56Z"/><path class="cls-29" d="M420.94,329v-7.09s24.81-.57,34.89,11.94l36.8-51.13s40.75.91,55-31.31h7.2S545.5,286.88,496,290.1l-36.1,50.4-6.37,7.17.31-6.05S445.64,327.67,420.94,329Z"/><path class="cls-30" d="M420.94,321.94V273.5l39.88,11.88v9.5l16.67,8.89-21.66,30.11S448.56,322.54,420.94,321.94Z"/><polygon class="cls-31" points="420.94 273.5 420.94 266.13 467.41 278.82 467.41 290.17 482.19 297.26 477.49 303.77 460.82 294.88 460.82 285.38 420.94 273.5"/><path class="cls-4" d="M473.23,322,496,290.1s44.79-.11,58.75-38.66h-7.2s-10.76,30.5-55,31.31l-10.45,14.51-14.77-7.09V270.58s48.13,15.61,72.94-20.78l1.09-3.48h4.74s20.35-20.54,24.13-88.48c0,0,3.26,89.22,0,124.91l-55.91,77.58H507Z"/><path class="cls-32" d="M541.44,246.32A63.88,63.88,0,0,0,507.88,254s-29.6,12.59-40,14.92l-.49,1.71s48.7,16.43,72.94-20.78Z"/><polygon class="cls-33" points="420.94 824.67 420.94 707.61 347.82 609.6 338.98 606.54 338.98 615.05 342.38 619.81 308.69 659.28 354.63 636.48 369.6 656.22 335.92 696.04 381.17 672.22 415.54 718.15 400.91 718.5 420.94 824.67"/><polygon class="cls-34" points="420.94 824.67 420.94 707.61 494.06 609.6 502.91 606.54 502.91 615.05 499.51 619.81 533.2 659.28 487.26 636.48 472.29 656.22 505.98 696.04 460.72 672.22 426.35 718.15 440.98 718.5 420.94 824.67"/></g></svg>