<svg xmlns="http://www.w3.org/2000/svg" viewBox="0 0 841.89 841.89"><defs><style>.cls-1{fill:#c9b9ac;}.cls-2{fill:#e0dcd7;}.cls-3{fill:#e8e6e6;}.cls-4{fill:#4799d0;}.cls-5{fill:#fff;}.cls-6{fill:#b9a488;}.cls-7{fill:#c5c2c2;}.cls-8{fill:#d1cfd0;}.cls-9{fill:#357ba5;}.cls-10{fill:#b9a388;}.cls-11{fill:#e3e6e1;}</style></defs><title>cap_a</title><g id="Layer_8" data-name="Layer 8"><path class="cls-1" d="M293.45,258.53S281.05,238,275.35,240s-8,9.78-7.74,13.29,1.61,25.26,2.78,29.2,6.57,31,7.3,39.73,5.55,18,7.16,18.55,6.41.72,9.12-2.93,4.9-6.71,4.9-6.71l-1-69.37Z"/><path class="cls-2" d="M286.89,156.44s-3.26-9.18-1.51-17.65c-5.69-4.87-23.32-25.85-17.77-49.66,1.61-4.38-15.43,18.84-15,24s17.21,17.38,17.21,17.38l3.36,17.89s12.59,25.11,16.21,26-1.17-17.09-1.17-17.09Z"/><path class="cls-3" d="M289.08,167.41s-9.93-4.09-9.64-11.68,1.17-15.48,1.17-15.48-15.19-5-17.52-42.36c-1.71,1.51-10.52,12-11.4,16.65s0,17.62,0,17.62l11.1-6.81s-11.88,13.14-11.49,15.48,1.85,23.66,2.44,24.54S264.25,156,264.25,156s3.34,4.38-5.84,16.65c-6.42.88,6.09,14.9,9.18,15.77s-2.75-9.35,9.81-21.32c2.63,1.75.87,16.94,1.46,23.37s7,15.77,10.22,18.11,4.09-39.44,4.09-39.44Z"/><path class="cls-4" d="M417.5,44.25h-.24c-5.47,0-101.59,1.31-121.27,72.44-6,24.73-10.71,35.24-10.12,62.7s9.93,92.3,9.93,105.15-.58,66.6,1.17,73.61,33.69,57.05,36,61.72,3.31,5.65,5.06,8.77,9.55,6.62,18.11,17.52,28.24,33.3,30.38,34.66,32.91,1.56,32.91,1.56V44.25Z"/><path class="cls-1" d="M419.35,313.16s-7.15.6-11.63,5.63-3.58,8.88-9.54,10.95-48.61,17.16-53.68,22.49-3,7.7-6,15.39-15.21,27.53-9.84,44.69,9.84,24,16.7,27.23,32.51,34.3,34,36.24,2.39,7,11.93,7.86,28,0,28,0Z"/><path class="cls-5" d="M321.5,270.81s17.24.58,22.49,3.51,38,23.65,50.54,21.32C383.43,304.11,372,318.13,358,319s-20.15.29-24.24-11.1C328.81,298.27,325.3,275.19,321.5,270.81Z"/><path class="cls-6" d="M545.3,258.53S557.7,238,563.4,240s8,9.78,7.74,13.29-1.61,25.26-2.78,29.21-6.57,31-7.3,39.72-5.55,18-7.15,18.55-6.42.72-9.13-2.93-4.89-6.71-4.89-6.71l1-69.37Z"/><path class="cls-7" d="M551.86,156.44s3.26-9.18,1.51-17.65c5.7-4.87,23.32-25.85,17.77-49.66-1.61-4.38,15.43,18.84,15,24S569,130.54,569,130.54l-3.36,17.89s-12.59,25.11-16.21,26,1.17-17.08,1.17-17.08Z"/><path class="cls-8" d="M549.67,167.41s9.93-4.09,9.64-11.68-1.17-15.48-1.17-15.48,15.19-5,17.53-42.35c1.7,1.51,10.51,12,11.39,16.65s0,17.61,0,17.61L576,125.35s11.88,13.15,11.49,15.48-1.85,23.66-2.44,24.54S574.5,156,574.5,156s-3.34,4.38,5.84,16.65c6.43.88-6.08,14.9-9.18,15.77s2.75-9.34-9.81-21.32c-2.62,1.75-.87,16.94-1.46,23.37s-7,15.77-10.22,18.11-4.09-39.43-4.09-39.43Z"/><path class="cls-9" d="M421.25,44.25h.24c5.48,0,101.6,1.31,121.27,72.44,6,24.73,10.71,35.24,10.12,62.7S543,271.69,543,284.54s.59,66.6-1.17,73.61-33.68,57.05-36,61.73-3.31,5.64-5.06,8.76-9.54,6.62-18.11,17.52-28.24,33.3-30.38,34.66-32.91,1.56-32.91,1.56V44.25Z"/><path class="cls-10" d="M419.3,313.17s7.17.59,11.65,5.62,3.58,8.88,9.55,10.95,48.66,17.17,53.74,22.49,3,7.7,6,15.39,15.22,27.53,9.85,44.69-9.85,24-16.72,27.23-32.54,34.3-34,36.24-2.39,7-11.94,7.86-28.07,0-28.07,0Z"/><path class="cls-3" d="M517.25,270.81s-17.23.59-22.49,3.51-38,23.66-50.53,21.32c11.1,8.47,22.49,22.49,36.51,23.37s20.15.29,24.24-11.1C510,298.27,513.45,275.19,517.25,270.81Z"/><polygon class="cls-5" points="343.75 208.79 396.71 97.8 419.3 97.8 419.3 122.76 403.72 160.11 419.3 160.11 419.3 185.42 392.82 185.42 381.52 208.79 343.75 208.79"/><polygon class="cls-11" points="494.86 208.79 441.89 97.8 419.3 97.8 419.3 122.76 434.88 160.11 419.3 160.11 419.3 185.42 445.79 185.42 457.08 208.79 494.86 208.79"/><polygon class="cls-5" points="397.31 689.15 325.65 689.15 383.62 731.27 361.48 799.42 419.45 757.3 419.45 621 397.31 689.15"/><polygon class="cls-3" points="455.28 731.27 513.25 689.15 441.59 689.15 419.45 621 419.45 757.3 477.42 799.42 455.28 731.27"/></g></svg>