<svg xmlns="http://www.w3.org/2000/svg" viewBox="0 0 841.89 841.89"><defs><style>.cls-1{fill:#0f1728;}.cls-2{fill:#172d4a;}.cls-3{fill:#050608;}.cls-4{fill:#fff;}.cls-5{fill:#e0e0e0;}.cls-6{fill:#101f30;}.cls-7{fill:#7ccbe1;}.cls-8{fill:#64c4dd;}.cls-9{fill:#5caec2;}.cls-10{fill:#0c597c;}.cls-11{fill:#95d3e2;}.cls-12{fill:#87bdc7;}.cls-13{fill:#ae1f24;}.cls-14{fill:#e0dfdf;}.cls-15{fill:#c42128;}.cls-16{fill:#2b68ac;}.cls-17{fill:#ad792c;}.cls-18{fill:#efefef;}.cls-19{fill:#f9c19a;}.cls-20{fill:#d8ad8f;}.cls-21{fill:#522e14;}.cls-22{fill:#542e14;}.cls-23{fill:#0f273b;}.cls-24{fill:#643d19;}.cls-25{fill:#0d2232;}.cls-26{fill:#4b2b16;}</style></defs><title>cap_a_3</title><g id="Layer_18" data-name="Layer 18"><path class="cls-1" d="M410.47,591.87V546.49s-36-3-69.11,30.76c0,0-25,27.45-24.87,58.43,0,0-1.51,40.05,25,68.28,0,0,29,32.94,68.94,32.94v-145"/><path class="cls-2" d="M332.53,614.93l63.23,107.54s-40.44-1.39-61.94-39.22C333.82,683.25,316.07,650.26,332.53,614.93Z"/><path class="cls-3" d="M410.47,736.9v-145"/><line class="cls-3" x1="410.47" y1="591.87" x2="410.47" y2="546.49"/><polygon class="cls-4" points="410.46 588.71 347.48 588.71 333.82 608.79 399.9 722.47 410.46 722.47 410.46 588.71"/><path class="cls-2" d="M410.47,585.81h-59s14.42-29,59-31.29Z"/><line class="cls-5" x1="410.47" y1="722.47" x2="410.47" y2="588.71"/><path class="cls-6" d="M410.47,554.52v31.29"/><polygon class="cls-7" points="410.46 583.58 410.46 560.3 393.82 560.3 408.3 583.58 410.46 583.58"/><polygon class="cls-7" points="390.28 560.3 356.21 583.58 403.88 583.58 390.28 560.3"/><polygon class="cls-7" points="351.9 700.94 389.2 718.58 365.13 677.44 351.9 700.94"/><polygon class="cls-7" points="330.38 664.48 332.69 623.28 357.34 664.07 330.38 664.48"/><polygon class="cls-7" points="359.51 668.7 361.67 672.16 347.48 698.01 330.38 668.7 359.51 668.7"/><polygon class="cls-8" points="410.46 597 405.33 604.26 347.48 605.07 376.97 654.92 372.65 662.74 380.91 662.74 410.46 714.96 410.46 597"/><polygon class="cls-8" points="396.91 602.44 359.52 602.44 355.03 595.43 362.74 598.93 393.34 598.93 399.9 595.43 396.91 602.44"/><polygon class="cls-8" points="351.42 615.89 370.55 648.02 366.82 655.46 365.89 647.04 350.23 620.75 343.86 616.91 351.42 615.89"/><polygon class="cls-8" points="383.94 672.16 403.07 704.29 399.34 711.74 398.41 703.32 382.75 677.02 376.38 673.18 383.94 672.16"/><polyline class="cls-9" points="413.32 709.94 413.32 595.46 419.32 602.51"/><polygon class="cls-10" points="410.46 604.45 408.58 609.06 353.65 609.06 380.9 655.39 378.6 658.96 382.54 658.96 410.46 705.76 410.46 604.45"/><polygon class="cls-11" points="410.46 623.74 406.06 614.93 365.81 614.93 386.99 650.99 395.58 650.15 390.55 657.28 410.46 693.13 410.46 623.74"/><polyline class="cls-12" points="413.32 688.75 413.32 621.41 418.61 612.86"/><path class="cls-13" d="M504.53,642c0-52.49-39.95-95.28-95.29-95.28v17c43.14,0,79.13,35,79.13,78.13s-36,78.13-79.13,78.13v17C464.58,737.08,504.53,694.44,504.53,642Z"/><path class="cls-14" d="M466.55,642c0,31-26.12,56.3-57.31,56.3v21.83c43.14,0,79.13-35,79.13-78.13.18-43.31-35.82-78.3-78.95-78.3v21.82C440.43,585.66,466.55,610.78,466.55,642Z"/><path class="cls-15" d="M466.55,642c0-31.18-26.12-56.3-57.13-56.3V600c23.21,0,42.92,18.71,42.92,41.92s-19.88,41.93-42.92,41.93v14.37C440.43,698.09,466.55,673,466.55,642Z"/><path class="cls-16" d="M419.6,629.14h29.62l-24.08,17.5,9.18,28.24-24.9-17.5v26.51c23.21,0,42.92-18.71,42.92-41.93s-19.88-42.1-42.92-42.1v1Z"/><path class="cls-14" d="M425.14,646.64l24.08-17.5H419.6L409.42,600.9v56.48l24.9,17.5Z"/><polygon class="cls-17" points="411.58 179.54 411.58 399.92 452.12 400.56 462.16 413.34 482.96 381.25 542.13 267.14 528.1 215.24 530.6 78.91 495.5 61.61 456.15 50.59 443.61 172.68 411.58 179.54"/><polygon class="cls-17" points="411.58 403.15 411.58 430.64 418.62 430.64 423.13 435.82 445.99 435.82 465.75 442.01 484.3 407.23 480.96 388.85 463.07 417.44 451.54 403.15 411.58 403.15"/><polygon class="cls-18" points="438.17 267.85 481.79 250.64 512.71 230.09 517.89 249.3 500.51 272.86 446.37 284.4 438.17 267.85"/><path class="cls-19" d="M282.79,216s-6-5.79-9.81-4.91-6.54,3.9-6.17,9.94,0,33.58,1.51,39.75,4.62,23.39,6.46,24.65,9.77,1.76,10.15-6.92,1.63-60.12,1.63-60.12A10.36,10.36,0,0,0,282.79,216Z"/><polygon class="cls-19" points="309.86 273.34 411.4 257.88 411.85 426.11 375.75 421.75 331.34 379.06 304.17 338.68 301.15 274.15 309.86 273.34"/><path class="cls-20" d="M304.3,273.77s25.41,25.67,36,23.15,71-23.5,71-23.58V262.7L322.41,266l-13.58,1Z"/><path class="cls-21" d="M411.41,399.91s-31.6,3.36-34.37,17.45a54.46,54.46,0,0,0,34.81,8.75Z"/><path class="cls-22" d="M285.3,246.23s-4.15,39.24-9.43,42.64l9.43,19.62,24.56-35.15S285.3,248.06,285.3,246.23Z"/><rect class="cls-19" x="298.76" y="201.12" width="107.93" height="57.81"/><path class="cls-20" d="M305.3,230s18.62-18.13,21.64-17.38,62.39,8.81,68.93,15.85-2.51-15.87-2.51-15.87l-75.73-10.29-16.48,17.86Z"/><path class="cls-23" d="M305.3,86.6c-32.07,49.06-22.26,84.53-22.64,100s3,57.74,2.64,59.63,26.8,30.56,32.46,34,17.36,17,37,6.79,52.79-18.86,56.57-18.49v-223S343.8,45.84,305.3,86.6Zm79.75,160.21C376,254.48,349.33,263,324.68,254c-18.12-16.61-18.12-29.19-18.12-29.19s15.6-17.61,24.15-17.1,59.88,12.07,60.89,15.6S394.11,239.13,385.05,246.81Z"/><path class="cls-24" d="M309.86,273.34s3.49,56.87,4,59.39,12.07,32.2,20.63,39.75,39.24,39.25,39.24,39.25S390,424,411.67,422.17l-.46,8.7s-28,0-35-4.55c-4.51-2.95-54.33-46.82-69.69-65.37-1.61-1.95-5.28-11.62-7.29-34.26s-3.1-34.42-3.1-34.42Z"/><path class="cls-25" d="M327.38,69.81l7.36,134.34h-5.28s-4.16-106.61-16.8-120"/><path class="cls-25" d="M294.36,108.86l12.2,21.89s.63,67.93-2,71.14-20.86,14.52-20.86,14.52l.1-4.15,13.78-7.92,1.88-22.64-16.79-12.27-.65-5.32,19.14,12.3V158.68l-18.49-11.89.6-6.4,19.4,12.82V130.94l-11.22-18.47s2-5.49,2.35-5.31S294.36,108.86,294.36,108.86Z"/><polygon class="cls-25" points="364.2 53.42 373.42 78.86 411.4 78.86 411.4 82.45 372.48 82.45 362.37 54.12 364.2 53.42"/><polygon class="cls-25" points="383.8 48.3 388.14 62.07 411.4 62.07 411.4 65.28 385.68 65.28 380.63 49.03 383.8 48.3"/><path class="cls-26" d="M410.5,426.23l.9-26.3"/><line class="cls-25" x1="409.84" y1="62.07" x2="409.84" y2="65.28"/><polygon class="cls-4" points="370.74 177.41 399.56 108.17 411.85 108.17 411.85 123.74 403.37 147.04 411.85 147.04 411.85 162.83 397.44 162.83 391.29 177.41 370.74 177.41"/></g></svg>