<svg xmlns="http://www.w3.org/2000/svg" viewBox="0 0 841.89 841.89"><defs><style>.cls-1{fill:#272a5d;}.cls-2{fill:#911919;}.cls-3,.cls-4{fill:#fac74b;}.cls-4{stroke:#11110c;}.cls-19,.cls-20,.cls-4{stroke-miterlimit:10;}.cls-5{fill:#604b31;}.cls-6{fill:#816a4e;}.cls-7{fill:#c8a48b;}.cls-8{fill:#b29480;}.cls-9{fill:#98784d;}.cls-10{fill:#74151e;}.cls-11{fill:#5b131e;}.cls-12{fill:#771617;}.cls-13{fill:#1c2141;}.cls-14{fill:#100d0d;}.cls-15{fill:#fff;}.cls-16{fill:#e2e2e1;}.cls-17{fill:#5e141d;}.cls-18{fill:#48111a;}.cls-19,.cls-20{fill:none;}.cls-19{stroke:#7c554c;}.cls-20{stroke:#664740;}</style></defs><title>cap_m_1</title><g id="Layer_27" data-name="Layer 27"><polygon class="cls-1" points="492.05 745.52 415.66 769.32 340.2 742.6 340.2 614.73 492.05 614.73 492.05 745.52"/><polygon class="cls-2" points="492.05 654 416.13 693.53 340.2 654 340.2 614.46 492.05 614.46 492.05 654"/><polygon class="cls-3" points="416.13 700.2 340.2 658.98 340.2 649.6 416.13 686.87 492.05 648.75 492.05 659.14 416.13 700.2"/><polygon class="cls-3" points="416.13 719.26 340.2 678.04 340.2 668.66 416.13 705.93 492.05 667.81 492.05 678.2 416.13 719.26"/><polygon class="cls-4" points="432.59 702.25 457.74 693.53 432.8 684.88 437.61 671.94 424.38 676.6 415.66 651.45 407.01 676.38 394.06 671.58 398.73 684.81 373.58 693.53 398.51 702.18 393.7 715.13 406.93 710.46 415.66 735.61 424.3 710.68 437.25 715.48 432.59 702.25"/></g><g id="Layer_29" data-name="Layer 29"><path class="cls-5" d="M419.14,135.47s41.92,9,41.42,52.45c0,0,15-38,0-56.53Z"/><path class="cls-5" d="M340.76,96.49s-4.55,43,21.37,65h0l36.95-21.62L340.76,96.49"/><path class="cls-6" d="M407.49,166.39V32.72s17.46-5.53,27.14-3.49c0,0-12.35,4.08-13.57,14.28,0,0,19.69-11.73,41.11-.51,0,0-12.24,2-15.3,7.14,0,0,36.2,15.22,46.91,49.42,0,0-8.16-10.16-12.24-10.16,0,0,17.34,25.64,15.3,55.65,0,0-1.53-5.69-11.73-5.69,0,0,5.1,18.36,5.1,32.63,0,0-29.06-41.3-54-35.69l-14.78,30.09H407.49"/><polygon class="cls-7" points="407.49 404.81 407.49 487.36 385.29 500.97 350.33 478.05 328.23 450.12 317.37 412.51 327.06 369.23 401.67 392.34 407.49 404.81"/><polygon class="cls-8" points="407.39 404.81 407.39 487.36 429.59 500.97 464.55 478.05 486.65 450.12 497.51 412.51 487.81 369.23 413.21 392.34 407.39 404.81"/><path class="cls-9" d="M407.49,155.24V21.56s-23.62,3.91-28.93,25.36c0,0,.64-13,5.42-17.72,0,0-21.29,4.41-26.8,18,0,0-1.84-5.5,1.84-9.54,0,0-26.81,25.48-15.8,50.75A10.4,10.4,0,0,1,337,79.52s3,47.18,45,51.87h0l-3.39,23.85h28.87"/><path class="cls-10" d="M294.9,264.06s-7.55-4.68-4.73,34.35-.63,5.3-.63,5.3,0,66.88,18.17,79c0,0,9.25,62.8,23,78.07,0,0,31.73,49.79,76.77,52.05V487.36s-4.47-4-28.93,4c0,0-28.12-13-39.58-33.38,0,0-.15-18.94-11.47-26,0,0,2.38-31.21-1.64-37.1h0l-31-130.76"/><path class="cls-2" d="M407.49,350.53v54.28s-8.12-.69-11.23-6.56c0,0-4.91-3.43-9.19-3.43L384,363.49v-21.2l23.51,8.24"/><path class="cls-11" d="M520,264.06s7.55-4.68,4.73,34.35.63,5.3.63,5.3,0,66.88-18.17,79c0,0-9.25,62.8-23,78.07,0,0-31.73,49.79-76.77,52.05V487.36s4.47-4,28.93,4c0,0,28.12-13,39.58-33.38,0,0,.15-18.94,11.47-26,0,0-2.38-31.21,1.64-37.1h0l31-130.76"/><path class="cls-12" d="M407.39,350.53v54.28s8.12-.69,11.23-6.56c0,0,4.91-3.43,9.19-3.43l3.09-31.33v-21.2l-23.51,8.24"/><path class="cls-1" d="M304.85,227.2s-13.21,11-10,36.86c0,0,4.35,128.6,31,130.76l4.89-17.94Z"/><path class="cls-13" d="M510,227.2s13.21,11,10,36.86c0,0-4.35,128.6-31,130.76l-4.89-17.94Z"/><path class="cls-10" d="M321.07,185.35S305,198.51,305,224.94c0,0-6,122.62,16.12,148.5,0,0,8.63,21.93,33.38,21.37h32.62S390,366,386.38,354h0L321.07,185.35"/><path class="cls-11" d="M493.81,185.35s16.12,13.16,16.12,39.59c0,0,6,122.62-16.12,148.5,0,0-8.63,21.93-33.38,21.37H427.81s-2.94-28.8.69-40.78h0l65.31-168.69"/><path class="cls-14" d="M330.76,350.53s-2.43,23.37,33.72,17.86c0,0,20.39-3.29,21.9-14.35h0l-10.17-22.12-45.45,8.13v10.48"/><path class="cls-15" d="M378.65,355.44s-20.12-13.14-40.92-4.91c0,0-5.45,4,1.18,9,0,0,9.47,9,38.4,0C377.31,359.5,382.07,357.34,378.65,355.44Z"/><path d="M484.12,350.53s2.43,23.37-33.72,17.86c0,0-20.39-3.29-21.9-14.35h0l10.17-22.12,45.45,8.13v10.48"/><path class="cls-16" d="M436.23,355.44s20.12-13.14,40.92-4.91c0,0,5.45,4-1.18,9,0,0-9.47,9-38.4,0C437.57,359.5,432.81,357.34,436.23,355.44Z"/><path class="cls-2" d="M321.07,185.35s-18.44,88.34,11.62,147.75h0l13.36-77.73-25-70"/><path class="cls-17" d="M332.69,333.1s-11.66,2.12-11.2,17.43h9.27s7.52-10,22-7.54c0,0,25,.62,33.58,11.05l21.11-3.51-25.65-24.47-49.15,7"/><path class="cls-12" d="M493.81,185.35s18.44,88.34-11.62,147.75h0l-13.36-77.73,25-70"/><path class="cls-18" d="M482.19,333.1s11.66,2.12,11.2,17.43h-9.27s-7.52-10-22-7.54c0,0-25,.62-33.58,11.05l-21.11-3.51L433,326.06l49.15,7"/><path class="cls-10" d="M407.49,350.53,387.88,343l-55.19-9.89s-19.93-110-11.62-147.75c0,0,4-9,9.68-7.61S407.49,343,407.49,343Z"/><path class="cls-11" d="M407.39,350.53,427,343l55.19-9.89s19.93-110,11.62-147.75c0,0-4-9-9.68-7.61S407.39,343,407.39,343Z"/><path class="cls-1" d="M407.49,336.54V343s-76.07-38.74-76.74-165.25c0,0,1.05-8.28,8.89-9.47h0l39,88.87,28.87,79.4"/><path class="cls-13" d="M407.39,336.54V343s76.07-38.74,76.74-165.25c0,0-1.05-8.28-8.89-9.47h0l-39,88.87-28.87,79.4"/><path class="cls-17" d="M361.26,150.7s-8.38,3-21.62,17.57c0,0-7.43,77.12,27.32,117.5h0L393,259.07l-5-75.53L361.26,150.7"/><path class="cls-18" d="M453.62,150.7s8.38,3,21.62,17.57c0,0,7.43,77.12-27.32,117.5h0l-26.07-26.7,5-75.53,26.78-32.84"/><path class="cls-10" d="M375.54,211.82s-12.17,32-8.58,73.95c0,0,5.28,21.12,24.58,40.29l10.13-65L396,204.63l-20.5,7.19"/><path class="cls-11" d="M439.34,211.82s12.17,32,8.58,73.95c0,0-5.28,21.12-24.58,40.29l-10.13-65,5.63-56.42,20.5,7.19"/><path class="cls-10" d="M375.48,211.85s-14.22-39.43-14.22-61.15L382,131.39s-2.45,17.77,14,23.85v25.38Z"/><path class="cls-2" d="M407.49,211.85V336.54l-16-10.45s3-37.51-8-114.24h24"/><path class="cls-11" d="M439.4,211.85s14.22-39.43,14.22-61.15l-20.75-19.31s2.45,17.77-14,23.85v25.38Z"/><path class="cls-12" d="M407.39,211.85V336.54l16-10.45s-3-37.51,8-114.24h-24"/><polygon class="cls-17" points="407.49 155.24 407.49 211.85 375.5 211.85 391.49 175.75 396.01 155.24 407.49 155.24"/><path class="cls-2" d="M407.49,447.66s-7.37-4.19-14.46,0c0,0-11.71,2.93-20.5,2.09,0,0,12.56,22.62,35,22.62Z"/><path class="cls-19" d="M407.49,426.53s-3.83,2.18-5.82-1.9c-4-8.23-11.66-2.93-11.66-2.93"/><path class="cls-19" d="M387.05,404.81s-5,4.78-3.07,11"/><polygon class="cls-18" points="407.39 155.24 407.39 211.85 439.38 211.85 423.39 175.75 418.87 155.24 407.39 155.24"/><path class="cls-12" d="M407.39,447.66s7.37-4.19,14.46,0c0,0,11.71,2.93,20.5,2.09,0,0-12.56,22.62-35,22.62Z"/><path class="cls-20" d="M407.39,426.53s3.83,2.18,5.82-1.9c4-8.23,11.66-2.93,11.66-2.93"/><path class="cls-20" d="M427.83,404.81s5,4.78,3.07,11"/></g></svg>