<svg xmlns="http://www.w3.org/2000/svg" viewBox="0 0 841.89 841.89"><defs><style>.cls-1{fill:#c72128;}.cls-2{fill:#fff;}.cls-3{fill:#2964ab;}.cls-4{fill:#ae1f24;}.cls-5{fill:#e0dfdf;}.cls-6{fill:#c42128;}.cls-7{fill:#2b68ac;}.cls-8{fill:#f9c19a;}.cls-9{fill:#d8ad8f;}.cls-10{fill:#522e14;}.cls-11{fill:#542e14;}.cls-12{fill:#0f273b;}.cls-13{fill:#643d19;}.cls-14{fill:#0d2232;}.cls-15{fill:#b29179;}.cls-16{fill:#4b2b16;}.cls-17{fill:#3c2313;}.cls-18{fill:#0d1f2b;}.cls-19{fill:#5e391a;}.cls-20{fill:#e3e6e1;}</style></defs><title>cap_a_2</title><g id="Layer_4" data-name="Layer 4"><path class="cls-1" d="M342.84,664.33a88.92,88.92,0,0,1,89-89V556a108.32,108.32,0,0,0,0,216.63v-19.3C382.62,753.15,342.84,713.37,342.84,664.33Z"/><path class="cls-2" d="M342.84,664.33a88.84,88.84,0,0,0,88.81,88.82v-25a63.91,63.91,0,0,1,.2-127.81v-25A88.92,88.92,0,0,0,342.84,664.33Z"/><path class="cls-1" d="M384,664.33a47.57,47.57,0,0,1,47.66-47.66V600.33a63.91,63.91,0,0,0,.2,127.81V711.79A47.57,47.57,0,0,1,384,664.33Z"/><path class="cls-3" d="M384,664.33A47.57,47.57,0,0,0,431.65,712V681.86l-27.17,19.89,10.43-32.1-27.37-19.89h33.67l10.64-32.1v-1.18A47.91,47.91,0,0,0,384,664.33Z"/><path class="cls-2" d="M421.41,649.76H387.54l27.37,19.89-10.43,32.1,27.37-19.89v-64.2Z"/><path class="cls-4" d="M540,664.33A108.38,108.38,0,0,0,431.65,556v19.3a88.82,88.82,0,1,1,0,177.63v19.3A107.92,107.92,0,0,0,540,664.33Z"/><path class="cls-5" d="M495.66,664.33a64,64,0,0,1-64,64v24.81a88.92,88.92,0,0,0,.2-177.83v24.81A64.13,64.13,0,0,1,495.66,664.33Z"/><path class="cls-6" d="M495.66,664.33a63.83,63.83,0,0,0-63.81-64v16.34a47.66,47.66,0,0,1,0,95.32v16.35A64.1,64.1,0,0,0,495.66,664.33Z"/><path class="cls-7" d="M442.29,649.76H476l-27.37,19.89L459,701.75l-27.18-19.89V712a47.76,47.76,0,0,0,0-95.51v1.18Z"/><path class="cls-5" d="M448.59,669.65,476,649.76H442.29l-10.44-32.1v64.2L459,701.75Z"/></g><g id="Layer_12" data-name="Layer 12"><path class="cls-8" d="M282.39,222.79s-6.63-6.36-10.78-5.39-7.18,4.28-6.77,10.91,0,36.9,1.66,43.67,5.08,25.7,7.1,27.08,10.73,1.93,11.14-7.6,1.8-66,1.8-66A11.34,11.34,0,0,0,282.39,222.79Z"/><polygon class="cls-8" points="312.13 285.73 423.67 268.74 424.16 453.54 384.5 448.76 335.73 401.86 305.88 357.51 302.57 286.62 312.13 285.73"/><path class="cls-9" d="M306,286.21s27.91,28.19,39.52,25.42,78-25.81,78-25.9V274.05l-97.6,3.59L311,278.75Z"/><path class="cls-10" d="M423.68,424.77s-34.71,3.69-37.75,19.17a59.82,59.82,0,0,0,38.23,9.6Z"/><path class="cls-11" d="M285.16,256s-4.56,43.11-10.37,46.84l10.37,21.56,27-38.62S285.15,258,285.16,256Z"/><rect class="cls-8" x="299.94" y="206.4" width="118.55" height="63.51"/><path class="cls-9" d="M307.13,238.15s20.45-19.92,23.76-19.09,68.54,9.67,75.72,17.41S403.85,219,403.85,219l-83.18-11.31-18.1,19.63Z"/><path class="cls-12" d="M307.13,80.6c-35.24,53.89-24.46,92.86-24.88,109.85s3.32,63.43,2.91,65.5,29.43,33.57,35.64,37.31,19.07,18.65,40.63,7.46,58-20.73,62.13-20.31v-245S349.41,35.83,307.13,80.6Zm87.6,176c-10,8.43-39.24,17.82-66.33,7.87-19.89-18.24-19.89-32-19.89-32s17.13-19.35,26.53-18.8,65.77,13.27,66.87,17.14S404.68,248.16,394.73,256.59Z"/><path class="cls-13" d="M312.13,285.73S316,348.21,316.52,351s13.27,35.37,22.66,43.66,43.11,43.12,43.11,43.12S400.2,451.21,424,449.22l-.51,9.56s-30.81,0-38.4-5c-5-3.24-59.68-51.43-76.55-71.81-1.77-2.13-5.81-12.75-8-37.62s-3.4-37.81-3.4-37.81Z"/><path class="cls-14" d="M331.38,62.16l8.08,147.57h-5.8S329.1,92.62,315.21,77.91"/><path class="cls-14" d="M295.1,105.06l13.41,24s.69,74.62-2.21,78.14-22.92,16-22.92,16l.12-4.56,15.13-8.7,2.07-24.88-18.45-13.47-.71-5.85,21,13.52V159.78l-20.32-13.06.66-7,21.31,14.08V129.31L291.9,109s2.16-6,2.58-5.83S295.1,105.06,295.1,105.06Z"/><polygon class="cls-14" points="371.82 44.16 381.95 72.11 423.67 72.11 423.67 76.04 380.91 76.04 369.81 44.92 371.82 44.16"/><polygon class="cls-14" points="393.35 38.53 398.12 53.66 423.67 53.66 423.67 57.18 395.42 57.18 389.87 39.34 393.35 38.53"/><path class="cls-9" d="M562.75,221.75s6.63-6.36,10.77-5.39,7.19,4.28,6.78,10.92,0,36.89-1.66,43.66-5.08,25.7-7.1,27.08-10.73,1.94-11.14-7.6-1.8-66.05-1.8-66.05A11.49,11.49,0,0,1,562.75,221.75Z"/><polygon class="cls-9" points="533.73 285.73 423.46 268.74 424.16 453.54 462.63 448.76 510.13 401.86 539.98 357.51 543.29 286.62 533.73 285.73"/><path class="cls-15" d="M539.35,286.21s-27.92,28.19-39.52,25.42-76.7-25.81-76.7-25.9,0-11.68,0-11.68l96.32,3.59,14.92,1.11Z"/><path class="cls-16" d="M423.67,424.79s34.71,3.7,37.75,19.17c0,0-16.65,11.94-38.74,9.72Z"/><path class="cls-17" d="M559.1,254.08s4.56,43.11,10.37,46.84L559.1,322.48l-27-38.61S559.11,256.1,559.1,254.08Z"/><rect class="cls-9" x="428.64" y="206.4" width="117.28" height="63.51" transform="translate(974.56 476.3) rotate(-180)"/><path class="cls-15" d="M538.73,238.15S518.28,218.23,515,219.06s-67.26,9.67-74.45,17.41S443.28,219,443.28,219l81.91-11.31,18.1,19.63Z"/><path class="cls-18" d="M422.5,35.44l.62,245c4.15-.42,39.75,9.12,61.31,20.32s34.41-3.73,40.62-7.46S561.12,258,560.7,256s3.32-48.5,2.9-65.5,10.37-56-24.87-109.85C496.45,35.83,422.5,35.44,422.5,35.44Zm22.72,195.31c1.1-3.87,56.21-16.58,65.6-17.14s26.53,18.8,26.53,18.8,0,13.81-19.9,32c-27.08,10-55.1.56-65.05-7.87S444.11,234.62,445.22,230.75Z"/><path class="cls-19" d="M533.73,285.73s-3.84,62.48-4.39,65.24-13.27,35.37-22.66,43.66-41.84,43.12-41.84,43.12-18.24,13.54-42,11.56l-.72,9.46s32.38,0,40-5c4.95-3.24,58.4-51.43,75.27-71.81,1.77-2.13,5.8-12.75,8-37.62s3.4-37.81,3.4-37.81Z"/><path class="cls-14" d="M514.48,62.16,506.4,209.73h5.8s4.56-117.11,18.45-131.82"/><path class="cls-14" d="M550.75,105.06l-13.4,24s-.69,74.62,2.21,78.14,22.92,16,22.92,16l-.12-4.56-15.13-8.7-2.07-24.88,18.44-13.47.72-5.85-21,13.52V159.78l20.31-13.06-.65-7-21.32,14.08V129.31L554,109s-2.16-6-2.58-5.83S550.75,105.06,550.75,105.06Z"/><polygon class="cls-14" points="474.04 44.16 465.19 72.11 421.95 72.11 421.95 76.04 466.22 76.04 476.05 44.92 474.04 44.16"/><polygon class="cls-14" points="452.28 38.53 447.51 53.66 421.95 53.66 421.95 57.18 450.2 57.18 455.75 39.34 452.28 38.53"/><polygon class="cls-2" points="379.01 180.35 410.66 104.3 424.16 104.3 424.16 121.4 414.85 146.99 424.16 146.99 424.16 164.34 408.33 164.34 401.58 180.35 379.01 180.35"/><polygon class="cls-20" points="469.31 180.35 437.66 104.3 424.16 104.3 424.16 121.4 433.47 146.99 424.16 146.99 424.16 164.34 439.99 164.34 446.74 180.35 469.31 180.35"/></g></svg>