<svg xmlns="http://www.w3.org/2000/svg" viewBox="0 0 841.89 841.89"><defs><style>.cls-1{fill:#a26136;}.cls-2{fill:#8a5130;}.cls-3{fill:#c17341;}.cls-4{fill:#a5613a;}.cls-5{fill:#bb934a;}.cls-6{fill:#a07b3f;}.cls-7{fill:#cad3dc;}.cls-8{fill:#aebdc6;}.cls-9{fill:#9aacb8;}.cls-10{fill:#758086;}.cls-11{fill:#534f4b;}.cls-12{fill:#adbcc5;}.cls-13{fill:#9bacb6;}.cls-14{fill:#b99249;}.cls-15{fill:#505052;}.cls-16{fill:#b0bdcd;}.cls-17{fill:#9babb9;}.cls-18{fill:#3b3b3d;}.cls-19{fill:#2d2b2c;}.cls-20{fill:#788288;}.cls-21{fill:#4e4d4d;}.cls-22{fill:#d0d7e1;}.cls-23{fill:#75828a;}.cls-24{fill:#9daeb8;}.cls-25{fill:#9cabb6;}.cls-26{fill:#757e84;}.cls-27{fill:#cbd4dd;}.cls-28{fill:#b5bfc4;}.cls-29{fill:#b2c0c9;}.cls-30{fill:#45484d;}.cls-31{fill:#767f84;}.cls-32{fill:#905226;}.cls-33{fill:#99abb7;}.cls-34{fill:#363636;}.cls-35{fill:#7e401a;}.cls-36{fill:#c8d3dc;}.cls-37{fill:#282828;}.cls-38{fill:#738088;}.cls-39{fill:#84bed6;}.cls-40{fill:#49788f;}.cls-41{fill:#dededd;}.cls-42{fill:#cfccbf;}.cls-43{fill:#cecec6;}.cls-44{fill:#464648;}.cls-45{fill:#ea4f4d;}.cls-46{fill:#282725;}.cls-47,.cls-48,.cls-55,.cls-61{fill:none;stroke-miterlimit:10;}.cls-47,.cls-48{stroke:#000;}.cls-47{stroke-width:3px;}.cls-49{fill:#53494e;}.cls-50{fill:#3e393f;}.cls-51{fill:#a2a0a2;}.cls-52{fill:#f0f2f1;}.cls-53{fill:#5e5f5f;}.cls-54{fill:#383838;}.cls-55{stroke:#fff;}.cls-56{fill:#e16f6a;}.cls-57{fill:#d3c6b5;}.cls-58{fill:#fdfcf1;}.cls-59{fill:#6f7089;}.cls-60{fill:#f7f5e8;}.cls-61{stroke:#f7f5e8;}</style></defs><title>guardians_1</title><g id="Layer_20" data-name="Layer 20"><path class="cls-1" d="M434.69,123.74V56.64s-8.36-13.7-23.93-13.38c0,0-43.94,3.5-56.52-6.37,0,0-6.21-3.51-6.21-9.24,0,0-16.4,23.26,13,39.19,0,0-20.64,4.78-32.11,22.94a37.64,37.64,0,0,1-35.59,14.66s10.35,42.69,23,55.44l14.36,18.25,34.9-4.55,69.14-49.84"/><path class="cls-2" d="M434.69,56.64s-16.31-27.79-5.8-48.33c0,0,16.39,31.06,37.66,34.72,0,0,55.52,17.86,58.21,48.92,0,0,8.31-15.66,6.6-23.73,0,0,12.23,14.92,7.34,37.18,0,0,14.67,1.95,26.66-11.25,0,0,20,34.94-21.77,76.53L434.71,159Z"/></g><g id="Layer_22" data-name="Layer 22"><path class="cls-3" d="M434.69,123.74V86.12s-15.35-10.22-35-11.53c0,0-14.68-2.89-17.83-11.54,0,0-7.22,27,19.2,46.92,0,0-21,.58-48,11.69,0,0-19.75,6.94-36.74,2.08,0,0,6.34,16.63,25.21,18.21,0,0,26,7.07,26.75,12.58s66.44-30.79,66.44-30.79"/><path class="cls-4" d="M434.69,123.74V86.12s24.19,14.42,30.9,25.11c0,0,8.46-26.62-3.48-38.31,0,0,42.8,15.17,39.56,52.25,0,0,20.66-1.74,25.13-18.66,0,0,7.72,11.19-4,23.64,0,0,20.9.16,25.88-6.27,0,0,9,24.43-29.61,35.63l-84.4-35.77"/></g><g id="Layer_21" data-name="Layer 21"><path class="cls-5" d="M430.09,127.79s4.72-31.71-16.77-31.45c0,0,9.2,5.24,3.29,13.63,0,0-7.46,13.1,0,23.33S430.09,127.79,430.09,127.79Z"/><path class="cls-5" d="M407,138.8S385.57,104.42,356.7,133c0,0,37.22-6.55,37.22,12.58Z"/><path class="cls-6" d="M457.67,138.35s28.26-11.93,20.55-44.41c0,0,32.9,25.14-5.32,50.1S457.67,138.35,457.67,138.35Z"/></g><g id="Layer_19" data-name="Layer 19"><path class="cls-7" d="M305.55,241.7s-18.06-2.19-24.07,15.05c0,0-4.65,16.41,2.18,54.16,0,0,7.39,55.32,6.3,65.41,0,0,4.12,12.33,13.67,16.59l29.73,11,9.06-85.34Z"/><path class="cls-7" d="M305.41,189.62s3.39-31.5,5.76-36.86c0,0,6.85,1.27,10.3,3.82h0l5.7,38.39-14.74,6.25-7-11.6"/><path class="cls-8" d="M563.87,241.7s18-2.19,24.07,15.05c0,0,4.65,16.41-2.19,54.16,0,0-7.38,55.32-6.29,65.41,0,0-4.13,12.33-13.68,16.59l-29.72,11L527,318.57Z"/><path class="cls-9" d="M564,189.62s-3.4-31.5-5.77-36.86c0,0-6.84,1.27-10.29,3.82h0L542.24,195,557,201.22l7-11.6"/></g><g id="Layer_18" data-name="Layer 18"><path class="cls-10" d="M324.5,390.29l-3-87.9-15.7-9.66,6.71,93.32s-8.64-1.95-13.9-28.74c0,0-4.72-33.37-5.26-64.58L305,284.79s-6.43-63.5.45-95.17l9.79,3.68s1.68-26.16,6.27-36.72c0,0,5.93,3.94,9.15,8.06L349,178.1,361,402.72l-14.21,16.4Z"/><path class="cls-11" d="M544.91,390.29l3-87.9,15.7-9.66-6.7,93.32s8.63-1.95,13.89-28.74c0,0,4.72-33.37,5.26-64.58l-11.64-7.94s6.44-63.5-.44-95.17l-9.79,3.68s-1.69-26.16-6.27-36.72c0,0-5.94,3.94-9.15,8.06L520.47,178.1,508.4,402.72l14.21,16.4Z"/></g><g id="Layer_17" data-name="Layer 17"><path class="cls-12" d="M324.54,390.34s-7-18.06-21.23-4.25c0,0-13.53,16.35,5.37,20.92l17.73-6.64Z"/><path class="cls-12" d="M544.87,390.34s7-18.06,21.24-4.25c0,0,13.53,16.35-5.37,20.92L543,400.37Z"/></g><g id="Layer_16" data-name="Layer 16"><path class="cls-8" d="M385.64,140.12s-33.67,6.94-55,24.55c0,0,6.69,6.23,6.38,15.46l-3.67,36,72.5-12Z"/><path class="cls-13" d="M349,407l-24.44-16.67s-12.6,1.6-15.87,16.67l28.23,26L349,407"/><path class="cls-13" d="M483.78,140.12s33.67,6.94,55,24.55c0,0-6.69,6.23-6.38,15.46l3.67,36-72.5-12Z"/><path class="cls-10" d="M520.44,407l24.44-16.67s12.6,1.6,15.87,16.67l-28.24,26-12.07-26"/></g><g id="Layer_15" data-name="Layer 15"><path class="cls-14" d="M328.63,302.72S349.08,330.31,349,407l21,8.9,35.83-27.5-20.22-89.61Z"/><path class="cls-8" d="M434.69,203.93V123.74s-13.63-1.54-22.25,5.54c0,0-8.31,6.46-11.38,6.46l9.7,69.88,23.93-1.69"/><polygon class="cls-15" points="401.06 135.74 385.64 140.05 399.21 201.92 410.76 205.62 401.06 135.74"/><path class="cls-3" d="M540.79,302.72S520.34,330.31,520.44,407l-21.05,8.9-35.83-27.5,20.22-89.61Z"/><path class="cls-13" d="M434.73,203.93V123.74s13.62-1.54,22.24,5.54c0,0,8.31,6.46,11.39,6.46l-9.7,69.88-23.93-1.69"/><polygon class="cls-15" points="468.36 135.74 483.78 140.05 470.21 201.92 458.66 205.62 468.36 135.74"/></g><g id="Layer_14" data-name="Layer 14"><path class="cls-7" d="M434.7,223.87V203.93s-10.58,1.57-31.28-7.05c0,0-27.17-19.87-49.19-4.31,0,0-31.12,18-17.72,29.56L347.78,232Z"/><path class="cls-16" d="M345.32,229.85l-8.82-7.72s-3.64-4.33-8,.63c0,0-11.65,10.26-11.8,24.85v34.95s0,20.5,16.44,25.78c0,0,12.21,3.78,16.8,5.1,0,0,.49,1,.94-1.33s4.43-10.3,3.06-18.3h0Z"/><path class="cls-8" d="M434.71,223.87l0-19.94s10.57,1.57,31.28-7.05c0,0,27.17-19.87,49.19-4.31,0,0,31.11,18,17.71,29.56L521.64,232Z"/><path class="cls-17" d="M524.1,229.85l8.81-7.72s3.65-4.33,8,.63c0,0,11.65,10.26,11.81,24.85v34.95s0,20.5-16.45,25.78c0,0-12.2,3.78-16.79,5.1,0,0-.49,1-.94-1.33s-4.43-10.3-3.07-18.3h0Z"/></g><g id="Layer_13" data-name="Layer 13"><polygon class="cls-18" points="418.11 464.9 414.7 471.5 409.64 479.54 401.69 485.51 393.1 486.41 384.61 480.36 383.97 466.71 388.04 457.13 405.86 447.84 418.11 464.9"/><path class="cls-14" d="M434.71,283V223.86s-26.23-.7-42.85-8.42c0,0-23.87-10.29-35.57,1.64,0,0-19.65,14-21.52,33,0,0-9.15,32.48,19.18,43.74l.57,6.27,19.72,13.36L420.63,302Z"/><polygon class="cls-19" points="451.31 464.9 454.72 471.5 459.77 479.54 467.73 485.51 476.31 486.41 484.81 480.36 485.45 466.71 481.38 457.13 463.56 447.84 451.31 464.9"/><path class="cls-3" d="M434.7,283V223.86s26.23-.7,42.86-8.42c0,0,23.87-10.29,35.57,1.64,0,0,19.65,14,21.52,33,0,0,9.15,32.48-19.19,43.74l-.57,6.27-19.71,13.36L448.79,302Z"/></g><g id="Layer_12" data-name="Layer 12"><path class="cls-20" d="M382.68,458.56s15.75,21.4,31.3,0l-5.4-11-21.39,2.26Z"/><path class="cls-21" d="M486,458.41s-15.75,21.4-31.29,0l5.39-11,21.4,2.26Z"/></g><g id="Layer_11" data-name="Layer 11"><path class="cls-18" d="M387.41,452.43s11.11,18,23.22.81V437Z"/><path class="cls-19" d="M482,452.43s-11.12,18-23.23.81V437Z"/></g><g id="Layer_10" data-name="Layer 10"><path class="cls-22" d="M405.2,445a28.06,28.06,0,0,0-18.46,18.36S381.55,479,391.85,485c0,0,8.35,3.53,16.73-6.13,0,0,7.21-8.24,8.23-14.35v3.9s-3.29,13-15.24,18.94c0,0-4.53,1.38-11.62-.11l-4.51-2L378,468.43l8.51-18.1,14.63-12Z"/><path class="cls-12" d="M337.25,332.66,320.84,316s-4.77-3.67-8.33,0c0,0-3.35,4,0,7.5l16.32,16.26s4.1,3.83,8.42,0C337.25,339.79,339.41,337,337.25,332.66Z"/><path class="cls-12" d="M338.74,356.14l-16.41-16.63s-4.77-3.67-8.32,0c0,0-3.36,4,0,7.5l16.31,16.25s4.11,3.84,8.42,0C338.74,363.26,340.9,360.46,338.74,356.14Z"/><path class="cls-12" d="M341.46,382.49l-16.41-16.63s-4.77-3.67-8.33,0c0,0-3.35,4,0,7.5L333,389.62s4.1,3.83,8.42,0C341.46,389.62,343.62,386.81,341.46,382.49Z"/><path class="cls-22" d="M464.22,445a28,28,0,0,1,18.45,18.36s5.19,15.59-5.1,21.62c0,0-8.35,3.53-16.73-6.13,0,0-7.21-8.24-8.23-14.35v3.9s3.28,13,15.24,18.94c0,0,4.53,1.38,11.62-.11l4.51-2,7.4-16.86-8.51-18.1-14.63-12Z"/><path class="cls-23" d="M532.17,332.66,548.58,316s4.77-3.67,8.32,0c0,0,3.36,4,0,7.5l-16.31,16.26s-4.11,3.83-8.42,0C532.17,339.79,530,337,532.17,332.66Z"/><path class="cls-23" d="M530.68,356.14l16.41-16.63s4.77-3.67,8.32,0c0,0,3.36,4,0,7.5L539.1,363.26s-4.11,3.84-8.42,0C530.68,363.26,528.52,360.46,530.68,356.14Z"/><path class="cls-23" d="M528,382.49l16.41-16.63s4.77-3.67,8.32,0c0,0,3.36,4,0,7.5l-16.31,16.26s-4.11,3.83-8.42,0C528,389.62,525.8,386.81,528,382.49Z"/></g><g id="Layer_9" data-name="Layer 9"><path class="cls-12" d="M403.47,442.78s-23.07,7-20.79,34.68a19.49,19.49,0,0,0,7.27,9.8s-6.54,2-19.92-10.95V450.38L391.85,428l16.73,10.13Z"/><path class="cls-24" d="M465.94,442.78s23.08,7,20.8,34.68a19.56,19.56,0,0,1-7.27,9.8s6.54,2,19.92-10.95V450.38L477.57,428l-16.73,10.13Z"/></g><g id="Layer_8" data-name="Layer 8"><path class="cls-25" d="M362.07,468.43l8,7.83s.07-30.74,24.83-42.51h0l-3-9.35-29.78,6.83v37.2"/><path class="cls-26" d="M507.34,468.43l-7.95,7.83s-.07-30.74-24.83-42.51h0l3-9.35,29.77,6.83v37.2"/></g><g id="Layer_7" data-name="Layer 7"><path class="cls-10" d="M434.71,289.37v-6.19s-36.1-1.74-64,34.78l2,83.89L360.27,399,349,407s-16.81,8.9-18.21,24.15c0,0-1,6.82,2.81,10.44l28.49,26.84s-1.2-24.23,23.08-40.49l13.05,7.81,21.44-45.34Z"/><path class="cls-21" d="M434.7,289.37v-6.19s36.11-1.74,64,34.78l-2,83.89L509.15,399l11.29,8s16.8,8.9,18.21,24.15c0,0,1,6.82-2.81,10.44l-28.5,26.84s1.21-24.23-23.08-40.49l-13,7.81-21.44-45.34Z"/></g><g id="Layer_6" data-name="Layer 6"><path class="cls-27" d="M434.71,292.53v-3.16s-29.9-.93-54.9,28l-27.33-18.53a14.05,14.05,0,0,0-3.24,12L384,336.28V404l11.35,8.79-20.38-13.19s-11.11-10-16.44-3.71L349,407l4.89,4.16,6.48-7.41s2.55-5,7.18-1l27.33,18.83v19h14.78Z"/><path class="cls-28" d="M434.7,292.53v-3.16s29.9-.93,54.91,28l27.32-18.53a14,14,0,0,1,3.25,12l-34.74,25.38V404l-11.34,8.79,20.37-13.19s11.12-10,16.44-3.71L520.44,407l-4.89,4.16-6.49-7.41s-2.55-5-7.18-1l-27.32,18.83v19H459.77Z"/></g><g id="Layer_5" data-name="Layer 5"><path class="cls-10" d="M434.7,407.58v-115s-26.06-.42-52.26,27.15l9.25,8.11v72.84l16.88,15.27Z"/><path class="cls-21" d="M434.71,407.58v-115s26.06-.42,52.27,27.15l-9.25,8.11v72.84L460.84,415.9Z"/></g><g id="Layer_4" data-name="Layer 4"><path class="cls-29" d="M434.7,419.15V407.58S423.24,396,413.54,408.8l-9,12.84s3.4,7.1,0,18.46l7.28,2.63Z"/><path class="cls-30" d="M434.7,387.06v-2s-7.3,1.14-16.59-5.86c0,0-10.6,9.93-21.67,13.67,0,0,15.34-2.6,21.67-10.74C418.11,382.17,426.58,387.54,434.7,387.06Z"/><path class="cls-30" d="M434.7,370.46v-2s-7.3,1.14-16.59-5.85c0,0-10.6,9.92-21.67,13.67,0,0,15.34-2.61,21.67-10.75C418.11,365.57,426.58,370.94,434.7,370.46Z"/><path class="cls-30" d="M434.7,353.86v-2s-7.3,1.14-16.59-5.85c0,0-10.6,9.92-21.67,13.67,0,0,15.34-2.61,21.67-10.74C418.11,349,426.58,354.35,434.7,353.86Z"/><path class="cls-30" d="M434.71,337.26v-1.95s-7.29,1.13-16.59-5.86c0,0-10.6,9.92-21.66,13.67,0,0,15.33-2.61,21.66-10.74C418.12,332.38,426.59,337.75,434.71,337.26Z"/><path class="cls-30" d="M434.7,320.66v-2s-7.3,1.14-16.59-5.86c0,0-10.6,9.92-21.67,13.67,0,0,15.34-2.61,21.67-10.74C418.11,315.78,426.58,321.15,434.7,320.66Z"/><path class="cls-31" d="M354.67,237.45,347.79,232s-16.13,20.93-2.47,42.43c0,0,12.22,20.72,40.32,18.1v-9.36Z"/><path class="cls-32" d="M434.7,246.38v-4.22s-17.53.11-17-20C417.73,222.12,410.08,244.41,434.7,246.38Z"/><path class="cls-33" d="M434.71,419.15V407.58s11.47-11.63,21.16,1.22l9,12.84s-3.39,7.1,0,18.46l-7.27,2.63Z"/><path class="cls-34" d="M434.71,387.06v-2s7.3,1.14,16.6-5.86c0,0,10.6,9.93,21.66,13.67,0,0-15.33-2.6-21.66-10.74C451.31,382.17,442.84,387.54,434.71,387.06Z"/><path class="cls-34" d="M434.71,370.46v-2s7.3,1.14,16.6-5.85c0,0,10.6,9.92,21.66,13.67,0,0-15.33-2.61-21.66-10.75C451.31,365.57,442.84,370.94,434.71,370.46Z"/><path class="cls-34" d="M434.71,353.86v-2s7.3,1.14,16.6-5.85c0,0,10.6,9.92,21.66,13.67,0,0-15.33-2.61-21.66-10.74C451.31,349,442.84,354.35,434.71,353.86Z"/><path class="cls-34" d="M434.7,337.26v-1.95s7.3,1.13,16.6-5.86c0,0,10.59,9.92,21.66,13.67,0,0-15.34-2.61-21.66-10.74C451.3,332.38,442.82,337.75,434.7,337.26Z"/><path class="cls-34" d="M434.71,320.66v-2s7.3,1.14,16.6-5.86c0,0,10.6,9.92,21.66,13.67,0,0-15.33-2.61-21.66-10.74C451.31,315.78,442.84,321.15,434.71,320.66Z"/><path class="cls-31" d="M514.74,237.45l6.88-5.45s16.13,20.93,2.48,42.43c0,0-12.23,20.72-40.32,18.1v-9.36Z"/><path class="cls-35" d="M434.71,246.38v-4.22s17.54.11,17-20C451.69,222.12,459.34,244.41,434.71,246.38Z"/></g><g id="Layer_3" data-name="Layer 3"><path class="cls-36" d="M434.7,435.75v-16.6H418.11s-4.57,29.64-1.42,49.28h18V435.75"/><path class="cls-13" d="M418.11,419.15s-15.23,17.52-16.93,32.31c0,0,8,2.67,15.51,17Z"/><circle class="cls-37" cx="378.04" cy="254.84" r="32.72"/><path class="cls-8" d="M434.71,435.75v-16.6h16.6s4.56,29.64,1.41,49.28h-18V435.75"/><path class="cls-38" d="M451.31,419.15s15.23,17.52,16.93,32.31c0,0-8,2.67-15.52,17Z"/><circle class="cls-37" cx="491.38" cy="254.84" r="32.72"/><polygon class="cls-39" points="477.3 609.13 477.3 574.72 358.36 574.78 354.62 578.03 354.62 609.13 477.3 609.13"/><polygon class="cls-39" points="477.3 609.13 477.3 801.72 359.17 801.72 354.08 797.72 354.62 609.13 477.3 609.13"/></g><g id="Layer_25" data-name="Layer 25"><path class="cls-40" d="M477.3,578.13H363.36s-3.81-.71-4,3.81v27.19h118Z"/></g><g id="Layer_26" data-name="Layer 26"><path class="cls-40" d="M477.3,610.75h-118V796.54s-.68,5.19,2.88,5.18H477.3Z"/><polygon class="cls-41" points="477.3 801.72 477.3 574.72 502.47 574.72 507.54 578.09 507.53 796.79 504.54 801.72 477.3 801.72"/><polygon class="cls-42" points="507.54 604.3 507.54 651.98 513.48 650.92 515.32 644.57 515.03 607.15 512.09 604.3 507.54 604.3"/><polygon class="cls-42" points="402.37 574.72 401.31 570 395.88 568.62 386 569.33 383.25 573.4 390.29 574.77 402.37 574.72"/></g><g id="Layer_32" data-name="Layer 32"><polyline class="cls-43" points="404.96 651.98 390.33 651.98 386.87 654.24 386 658.93 386 757.94 387.04 761.75 392.35 762.86 397.43 761.23 404.96 651.98"/></g><g id="Layer_2" data-name="Layer 2"><path class="cls-44" d="M434.7,455.66V435.75S411.94,444.28,434.7,455.66Z"/><circle class="cls-45" cx="378.04" cy="254.84" r="25.38"/><path class="cls-46" d="M434.71,455.66V435.75S457.47,444.28,434.71,455.66Z"/><circle class="cls-45" cx="491.38" cy="254.84" r="25.38"/><path class="cls-47" d="M359.17,574.72h143.3s5.35,0,5.06,5.5V796.79a4.89,4.89,0,0,1-5.5,4.92H359.17s-5.09-.3-5.09-6.38V579.93S354.71,574.72,359.17,574.72Z"/><line class="cls-47" x1="477.3" y1="801.71" x2="477.3" y2="574.72"/><line class="cls-48" x1="354.08" y1="609.13" x2="477.3" y2="609.13"/><path class="cls-47" d="M507.54,604.3s7.76-2,7.76,4.83v38s.83,5.45-7.76,4.93"/><path class="cls-47" d="M402.37,574.72s1-5.9-4.31-6.1H386.18s-3.48.94-2.86,6.1"/></g><g id="Layer_29" data-name="Layer 29"><polyline class="cls-49" points="400.9 706.67 426.13 706.67 426.13 677.09 400.9 678.39 400.9 706.67"/></g><g id="Layer_27" data-name="Layer 27"><path class="cls-50" d="M400.9,703.44s12.33-4.76,25.23,0v35.33L400.9,736.1Z"/></g><g id="Layer_28" data-name="Layer 28"><circle class="cls-51" cx="413.21" cy="671.57" r="17.33"/><circle class="cls-52" cx="413.21" cy="671.57" r="8.7"/><circle class="cls-53" cx="413.21" cy="671.57" r="6.82"/><circle class="cls-54" cx="413.21" cy="671.57" r="4.15"/><line class="cls-55" x1="413.21" y1="671.57" x2="413.21" y2="667.42"/><line class="cls-55" x1="413.53" y1="671.57" x2="416.32" y2="674.31"/><line class="cls-55" x1="412.91" y1="671.57" x2="410.24" y2="674.46"/><circle class="cls-51" cx="413.21" cy="742.92" r="17.33"/><circle class="cls-52" cx="413.21" cy="742.92" r="8.7"/><circle class="cls-53" cx="413.21" cy="742.92" r="6.82"/><circle class="cls-54" cx="413.21" cy="742.92" r="4.15"/><line class="cls-55" x1="413.21" y1="742.92" x2="413.21" y2="738.77"/><line class="cls-55" x1="413.53" y1="742.92" x2="416.32" y2="745.66"/><line class="cls-55" x1="412.91" y1="742.92" x2="410.24" y2="745.81"/></g><g id="Layer_31" data-name="Layer 31"><polygon class="cls-56" points="425.82 651.98 425.82 762.86 429.31 762.86 431.41 758.78 431.41 655.8 429.44 652.77 425.82 651.98"/><rect class="cls-57" x="423.44" y="651.98" width="2.38" height="6.95"/><polyline class="cls-56" points="423.44 658.93 423.44 651.98 420.02 651.98 420.02 658.93 423.44 658.93"/><rect class="cls-57" x="417.35" y="651.98" width="2.67" height="6.95"/><rect class="cls-56" x="414.93" y="651.98" width="2.43" height="6.95"/><rect class="cls-57" x="412.39" y="651.98" width="2.54" height="6.95"/><rect class="cls-56" x="409.06" y="651.98" width="3.33" height="6.95"/><rect class="cls-57" x="406.39" y="651.98" width="2.67" height="6.95"/><rect class="cls-56" x="404.96" y="651.98" width="1.43" height="6.95"/><rect class="cls-57" x="423.73" y="755.37" width="2.38" height="7.48"/><polyline class="cls-56" points="423.73 762.86 423.73 755.37 420.31 755.37 420.31 762.86 423.73 762.86"/><rect class="cls-57" x="417.64" y="755.37" width="2.67" height="7.48"/><rect class="cls-56" x="415.21" y="755.37" width="2.43" height="7.48"/><rect class="cls-57" x="412.68" y="755.37" width="2.54" height="7.48"/><rect class="cls-56" x="409.35" y="755.37" width="3.33" height="7.48"/><rect class="cls-57" x="406.68" y="755.37" width="2.67" height="7.48"/><rect class="cls-56" x="405.24" y="755.37" width="1.43" height="7.48"/><path class="cls-58" d="M405,656.33h-9.09s-3.52-.12-3.52,2.6V762.85h12.89v-7.48h-4.65V658.93H405Z"/></g><g id="Layer_30" data-name="Layer 30"><rect class="cls-48" x="400.59" y="658.93" width="25.23" height="96.44"/><path class="cls-47" d="M389.16,652h38.38s3.91-.51,3.91,5h0V758.78s.13,4.08-3.78,4.08H390.62A4.58,4.58,0,0,1,386,758V656.33S385.42,652,389.16,652Z"/></g><g id="Layer_34" data-name="Layer 34"><path class="cls-59" d="M396.71,755.67a2.74,2.74,0,0,1-1.14-2.6s2.24.23,2.75-1c0,0,.18-1.84-1.89-.52,0,0-.51.52-2.12.12a7.3,7.3,0,0,0-4.41.86s-1.09,1,1.38,1.89C391.28,754.39,397.84,758.28,396.71,755.67Z"/><path class="cls-59" d="M392.88,748.15s2,2,1.67,0c0,0-.71-.88-1.25-1,0,0,1.8-.83,1.29-2.5,0,0-1.64-1.29-4.93-.75,0,0-3.2-.71.22-1.92,0,0,3.67.13,5.33,1.38,0,0,2.09,2.41.29,3.46,0,0,2.05,2,.3,3.12a3.61,3.61,0,0,1-3.4-.29.86.86,0,0,1-.4-1.29S392.37,747.7,392.88,748.15Z"/><path class="cls-59" d="M391.31,735.36s.17,3.79,1.84,3.59a1.12,1.12,0,0,0-.34-1.34s-.12-1.29,1,0a4.4,4.4,0,0,1,.84,1.88s.95.87.87-.34c0,0-.61-2,0-2.37,0,0,.87-1.17,1.74,2,0,0,1.29,2.33-1.17,2.37,0,0-4.62.38-5.33-1.75C390.73,739.32,389.1,734.32,391.31,735.36Z"/><path class="cls-59" d="M391.82,731.16s1.42,3.08,1.42.31c0,0-.51-2.33,1.9-1.78,0,0,3.19.75.91,4.31,0,0-1.66,1.47-.83-.79s.12-.39.12-.39,0-3.29-1.19,0c0,0,0,2.21-2.33.91,0,0-1.42-.44-1.15-2.49C390.67,731.2,391.33,730.27,391.82,731.16Z"/><path class="cls-59" d="M396.65,730.8a3.21,3.21,0,0,0,.23-3.85s-4.17-5.58-6.73-1.75c0,0-.49,3.1,3.71,5.6l.42-1.19s-3.59-2-2.85-4.08c0,0,1.5-1.06,2.93.81,0,0,2.73,1.84,1.26,3.79Z"/><path class="cls-59" d="M397.43,718.1l-3.57.28a2.22,2.22,0,0,1,1.09,2.14s-.6,1.65-1.09,1.65c0,0,3.64-.69,3.57,1,0,0,.07,1.25-2.89.73,0,0-4.76-.38-3.17-2a2.24,2.24,0,0,0,2-2.62s-1.95-1.72-3.22-1.72c0,0-.85-1.58,1.36-.89,0,0,4.19.89,5.37.27C396.88,716.93,398.46,716.86,397.43,718.1Z"/><path class="cls-59" d="M390.13,710.45s-.31,4.95,2.21,4.95c0,0,4.12.34,3.93-1.4,0,0-.39-4.22-1.84-2.82a4.51,4.51,0,0,1,0,2.33,2.63,2.63,0,0,1-1.23-2.13s-.62-1.07-.62.19c0,0,.07,2,.62,2.23,0,0-1.83.05-2-2.28C391.22,711.52,391.57,709.82,390.13,710.45Z"/><path class="cls-59" d="M395.7,702.66s-2.86,0-2.86-1.43c0,0,.62-2-.45-2.68,0,0,4.65,1.43,4.74,0,0,0,1.16-1.71-.85-.62,0,0-3.89-.36-4.69-1.43,0,0-2.68-.2-.63,1.78a3.36,3.36,0,0,1-.27,3.13s-1.16,1.7.9,1.79c0,0,3.21-.18,3.3.62C394.89,703.82,397,704.9,395.7,702.66Z"/><path class="cls-59" d="M395.86,694.47S393,694,392.05,693c0,0-2.42,0-.65,1.46,0,0,2.53,1.66,3.92,1.45,0,0,1.29.16.92-.65C396.24,695.27,396.48,694.59,395.86,694.47Z"/><path class="cls-59" d="M392.45,693a2.69,2.69,0,0,1,1.81-1,1.61,1.61,0,0,1,.48,0c1.34.27,1.19,1.42,2,1.18,0,0,2-1.06-.91-2.21,0,0-1-.51.45-1.78,0,0,1.21-1.66-.45-1.66,0,0-.16.67-1.58,1.74,0,0-.79.55-1.19-.55a1.42,1.42,0,0,0-1.7-.64s-.75,1.31.59,1.58a1.21,1.21,0,0,1,.79,1.35s-1.74.47-1.3,1.5A1,1,0,0,0,392.45,693Z"/><path class="cls-59" d="M391.49,683.19s3.82,0,4.28-1.83c0,0,1.41-.31-2.24-2.07a16.37,16.37,0,0,1-2.78-1.76s-1.1-1.53-1,0c0,0,1.08,2.23,2.53,2.49,0,0,1.46.42,1.58,1,0,0-2.44-.38-2.66.16C391.17,681.13,390,682.89,391.49,683.19Z"/><path class="cls-59" d="M395.24,673.85s-4.59-2.6-5.05.54c0,0-.46,2.3,3.64,3.22,0,0,2.78.36,2.21-2.39a1.35,1.35,0,0,0-1.43,1.13s-2,.25-2.86-.56c0,0-1.61-2.26.6-1.71,0,0,2.7.88,2.87,2.07C395.22,676.15,397,675.43,395.24,673.85Z"/><path class="cls-59" d="M390.82,670.39s3.45,1.82,3-.25c0,0-.79-4.2,1.2-3.78,0,0,1,1.54.25,5.44,0,0-.12,1.25-3.32.29C391.94,672.09,387.83,670.64,390.82,670.39Z"/><path class="cls-59" d="M393.61,663.79s1.52-.76,1.52.45c0,0,.34,1.1-1.35.62A1,1,0,0,1,393.61,663.79Z"/><path class="cls-59" d="M390.69,660.41s-3.85-4.55,0-2.95l4.46,1.65s-.56,2.9.39,2.95c0,0,1.56-1.5,1.06-5.65,0,0-.79-1.65-1.45,0v1.2s-5.18-2.27-6.17-1.93c0,0-2.09.88-.54,2.88C388.44,658.56,389.29,661.26,390.69,660.41Z"/><path class="cls-60" d="M381,774.63h2.74v7.69s1.17,2.87,2.48,0v-7.69h2.87v7.82s1.3,2.61,2.34,0v-7.82H394v9a3.57,3.57,0,0,1-3.84,2.36s-1.45-.26-1.85-.91a4.24,4.24,0,0,1-2.73.92A3.73,3.73,0,0,1,381,783.7Z"/><path class="cls-60" d="M433.31,785.68h-2.74V778s-1.18-2.87-2.48,0v7.69h-2.87v-7.82s-1.3-2.61-2.34,0v7.82H420.3v-9a3.58,3.58,0,0,1,3.85-2.36s1.45.26,1.85.91a4.26,4.26,0,0,1,2.73-.91,3.73,3.73,0,0,1,4.58,2.28Z"/><path class="cls-60" d="M394.9,785.68v-7.57a4.43,4.43,0,0,1,4.28-3.48s4.53,0,4.53,3.48v7.57h-2.3v-6.83s-.33-2-1.4-2.06a2,2,0,0,0-2.47,1v7.9Z"/><path class="cls-60" d="M433.82,785.68v-7.57a4.43,4.43,0,0,1,4.29-3.48s4.52,0,4.52,3.48v7.57h-2.3v-6.83s-.33-2-1.4-2.06a2,2,0,0,0-2.47,1v7.9Z"/><path class="cls-60" d="M443.35,785.68v-7.57a4.43,4.43,0,0,1,4.29-3.48s4.53,0,4.53,3.48v7.57h-2.31v-6.83s-.33-2-1.4-2.06a2,2,0,0,0-2.47,1v7.9Z"/><path class="cls-60" d="M404.58,774.63v9.31s-.06,1.74,2.79,1.74h3.73v-2.55h-3.67v-8.5Z"/><path class="cls-60" d="M411.63,774.63v11h2.28V781s2.5-.4,2.95,1.93v2.71h2.5v-3.33s-.51-1.78-1.93-2a2.59,2.59,0,0,0,1.93-2.46v-3.29h-2.67v2.83s-.06,1.71-2.73,1.54v-4.37Z"/><circle class="cls-60" cx="438.39" cy="780.79" r="1.94"/><circle class="cls-60" cx="399.5" cy="780.79" r="1.94"/><polygon class="cls-61" points="448.75 720.24 448.75 705.93 452.17 705.93 445.79 693.01 440.33 705.08 442.63 705.08 442.63 720.24 448.75 720.24"/><path class="cls-60" d="M392.28,617.59v3.12H390.4s-.5-2.21-4.33-2.11c0,0-2.93.1-2,1.61,0,0,6.15.3,7.66,2,0,0,2.92,2.42-1.41,4.64,0,0-4.84.81-7.46-1V627h-2.32v-3.91H382s1.31,3,6.35,2.12c0,0,2.5-1.82-.51-1.72,0,0-4.73-.7-6.64-2.11,0,0-2.62-2.12,1.81-3.83,0,0,4.64-1.51,7.56.8v-.91Z"/><path class="cls-60" d="M397.66,623.08s-.7-4.13,2.73-4.51c0,0,3.6-.59,3.87,2.79,0,0,.81,2.69-2.74,4,0,0-2.41.32-3.49-1.5l-1.72,1.77s2.1,1.74,6.18,1.38a6.46,6.46,0,0,0,5.48-3.58s.69-4.08-2.8-5.69a10.29,10.29,0,0,0-8.1-.33s-6.39,3.28-1.62,7.68l.89.55,1.81-1.45A5.28,5.28,0,0,1,397.66,623.08Z"/><polygon class="cls-60" points="409.68 625.06 409.68 618.8 408.17 618.8 408.17 617.1 412.95 617.1 418.35 622.57 418.35 618.85 416.63 618.85 416.63 617.1 422.44 617.1 422.44 618.72 420.76 618.72 420.76 626.7 418.23 626.7 412.34 620.85 412.34 624.98 413.89 624.98 413.89 626.7 408.17 626.7 408.17 624.98 409.68 625.06"/><polygon class="cls-60" points="423.28 617.1 423.28 618.54 424.78 618.54 428.11 622.5 428.11 625.16 426.71 625.16 426.66 626.7 433.52 626.7 433.52 625.25 431.41 625.25 431.41 623.42 435.64 618.88 437.09 618.88 437.09 617.1 432.02 617.1 432.02 618.4 432.79 618.4 430.46 620.73 428.53 618.8 429.8 618.8 429.8 617.1 423.28 617.1"/><circle class="cls-60" cx="436.15" cy="625.76" r="0.94"/></g></svg>