<svg xmlns="http://www.w3.org/2000/svg" viewBox="0 0 841.89 841.89"><defs><style>.cls-1{fill:#8e9156;}.cls-2{fill:#b5bc6e;}.cls-3{fill:#dededd;}.cls-4{fill:#cfccbf;}.cls-5{fill:#cecec6;}.cls-14,.cls-20,.cls-6,.cls-7{fill:none;stroke-miterlimit:10;}.cls-6,.cls-7{stroke:#000;}.cls-6{stroke-width:3px;}.cls-8{fill:#53494e;}.cls-9{fill:#3e393f;}.cls-10{fill:#a2a0a2;}.cls-11{fill:#f0f2f1;}.cls-12{fill:#5e5f5f;}.cls-13{fill:#383838;}.cls-14{stroke:#fff;}.cls-15{fill:#e16f6a;}.cls-16{fill:#d3c6b5;}.cls-17{fill:#fdfcf1;}.cls-18{fill:#6f7089;}.cls-19{fill:#f7f5e8;}.cls-20{stroke:#f7f5e8;}.cls-21{fill:#856236;}.cls-22{fill:#77532b;}.cls-23{fill:#62411d;}.cls-24{fill:#a2815d;}.cls-25{fill:#251911;}.cls-26{fill:#f2d5ba;}.cls-27{fill:#56381b;}.cls-28{fill:#947557;}</style></defs><title>guradians_2</title><g id="Layer_12" data-name="Layer 12"><polygon class="cls-1" points="458.6 603.91 458.6 569.5 339.65 569.57 335.92 572.81 335.92 603.91 458.6 603.91"/><polygon class="cls-1" points="458.6 603.91 458.6 796.5 340.47 796.51 335.38 792.5 335.92 603.91 458.6 603.91"/><path class="cls-2" d="M458.6,572.92H344.66s-3.81-.72-4.05,3.8v27.19h118Z"/><path class="cls-2" d="M458.6,605.53h-118V791.32s-.67,5.19,2.89,5.19H458.6Z"/><polygon class="cls-3" points="458.6 796.5 458.6 569.5 483.77 569.5 488.84 572.88 488.83 791.58 485.84 796.51 458.6 796.5"/><polygon class="cls-4" points="488.84 599.09 488.84 646.76 494.78 645.71 496.62 639.35 496.32 601.93 493.38 599.09 488.84 599.09"/><polygon class="cls-4" points="383.66 569.5 382.61 564.78 377.17 563.4 367.3 564.11 364.54 568.18 371.59 569.55 383.66 569.5"/><polyline class="cls-5" points="386.25 646.77 371.63 646.77 368.17 649.02 367.3 653.72 367.3 752.72 368.34 756.53 373.64 757.64 378.73 756.01 386.25 646.77"/><path class="cls-6" d="M340.47,569.5h143.3s5.35,0,5.06,5.5V791.57a4.9,4.9,0,0,1-5.5,4.93H340.47s-5.09-.3-5.09-6.38V574.71S336,569.5,340.47,569.5Z"/><line class="cls-6" x1="458.6" y1="796.5" x2="458.6" y2="569.5"/><line class="cls-7" x1="335.38" y1="603.91" x2="458.6" y2="603.91"/><path class="cls-6" d="M488.84,599.09s7.76-2,7.76,4.82v38s.83,5.45-7.76,4.93"/><path class="cls-6" d="M383.66,569.5s1-5.89-4.3-6.1H367.48s-3.48.94-2.87,6.1"/><polyline class="cls-8" points="382.2 701.45 407.42 701.45 407.42 671.88 382.2 673.17 382.2 701.45"/><path class="cls-9" d="M382.2,698.23s12.33-4.77,25.22,0v35.33l-25.22-2.67Z"/><circle class="cls-10" cx="394.5" cy="666.35" r="17.33"/><circle class="cls-11" cx="394.5" cy="666.35" r="8.7"/><circle class="cls-12" cx="394.5" cy="666.35" r="6.82"/><circle class="cls-13" cx="394.5" cy="666.35" r="4.15"/><line class="cls-14" x1="394.5" y1="666.35" x2="394.5" y2="662.21"/><line class="cls-14" x1="394.83" y1="666.35" x2="397.62" y2="669.09"/><line class="cls-14" x1="394.21" y1="666.35" x2="391.53" y2="669.25"/><circle class="cls-10" cx="394.5" cy="737.71" r="17.33"/><circle class="cls-11" cx="394.5" cy="737.71" r="8.7"/><circle class="cls-12" cx="394.5" cy="737.71" r="6.82"/><circle class="cls-13" cx="394.5" cy="737.71" r="4.15"/><line class="cls-14" x1="394.5" y1="737.71" x2="394.5" y2="733.56"/><line class="cls-14" x1="394.83" y1="737.71" x2="397.62" y2="740.44"/><line class="cls-14" x1="394.21" y1="737.71" x2="391.53" y2="740.6"/><polygon class="cls-15" points="407.12 646.77 407.12 757.64 410.61 757.64 412.71 753.56 412.71 650.58 410.74 647.56 407.12 646.77"/><rect class="cls-16" x="404.74" y="646.77" width="2.38" height="6.95"/><polyline class="cls-15" points="404.74 653.72 404.74 646.77 401.32 646.77 401.32 653.72 404.74 653.72"/><rect class="cls-16" x="398.65" y="646.77" width="2.67" height="6.95"/><rect class="cls-15" x="396.22" y="646.77" width="2.43" height="6.95"/><rect class="cls-16" x="393.69" y="646.77" width="2.54" height="6.95"/><rect class="cls-15" x="390.36" y="646.77" width="3.33" height="6.95"/><rect class="cls-16" x="387.69" y="646.77" width="2.67" height="6.95"/><rect class="cls-15" x="386.25" y="646.77" width="1.43" height="6.95"/><rect class="cls-16" x="405.03" y="750.15" width="2.38" height="7.48"/><polyline class="cls-15" points="405.03 757.64 405.03 750.15 401.61 750.15 401.61 757.64 405.03 757.64"/><rect class="cls-16" x="398.94" y="750.15" width="2.67" height="7.48"/><rect class="cls-15" x="396.51" y="750.15" width="2.43" height="7.48"/><rect class="cls-16" x="393.98" y="750.15" width="2.54" height="7.48"/><rect class="cls-15" x="390.65" y="750.15" width="3.33" height="7.48"/><rect class="cls-16" x="387.98" y="750.15" width="2.67" height="7.48"/><rect class="cls-15" x="386.54" y="750.15" width="1.43" height="7.48"/><path class="cls-17" d="M386.25,651.11h-9.08s-3.52-.11-3.52,2.6V757.64h12.89v-7.49h-4.65V653.71h4.36Z"/><rect class="cls-7" x="381.89" y="653.71" width="25.23" height="96.44"/><path class="cls-6" d="M370.46,646.77h38.38s3.9-.51,3.9,5h0V753.57s.14,4.08-3.77,4.08H371.92a4.58,4.58,0,0,1-4.58-4.92V651.11S366.72,646.77,370.46,646.77Z"/><path class="cls-18" d="M378,750.46a2.76,2.76,0,0,1-1.14-2.61s2.24.23,2.75-1c0,0,.17-1.83-1.89-.51,0,0-.51.51-2.12.11a7.3,7.3,0,0,0-4.41.86s-1.09,1,1.37,1.89C372.57,749.17,379.14,753.06,378,750.46Z"/><path class="cls-18" d="M374.18,742.93s2,2,1.66,0c0,0-.7-.87-1.25-1,0,0,1.8-.83,1.3-2.5,0,0-1.64-1.29-4.93-.75,0,0-3.2-.71.22-1.91,0,0,3.66.12,5.33,1.37,0,0,2.08,2.42.29,3.46,0,0,2,2,.29,3.13a3.57,3.57,0,0,1-3.39-.3.86.86,0,0,1-.4-1.29S373.67,742.48,374.18,742.93Z"/><path class="cls-18" d="M372.61,730.15s.17,3.79,1.83,3.58a1.09,1.09,0,0,0-.33-1.33s-.12-1.3,1,0a4.42,4.42,0,0,1,.83,1.88s1,.88.88-.33c0,0-.62-2,0-2.38,0,0,.87-1.17,1.75,2,0,0,1.29,2.33-1.17,2.38,0,0-4.62.37-5.33-1.75C372,734.11,370.4,729.1,372.61,730.15Z"/><path class="cls-18" d="M373.12,725.94s1.42,3.09,1.42.32c0,0-.51-2.34,1.9-1.78,0,0,3.19.74.91,4.31,0,0-1.66,1.46-.83-.79s.12-.4.12-.4,0-3.28-1.19,0c0,0,0,2.22-2.33.91,0,0-1.43-.43-1.15-2.49C372,726,372.63,725.05,373.12,725.94Z"/><path class="cls-18" d="M377.94,725.59a3.2,3.2,0,0,0,.23-3.85s-4.16-5.58-6.72-1.75c0,0-.5,3.09,3.71,5.6l.42-1.2s-3.59-2-2.86-4.08c0,0,1.51-1.06,2.94.82,0,0,2.73,1.83,1.26,3.79Z"/><path class="cls-18" d="M378.73,712.89l-3.57.27a2.24,2.24,0,0,1,1.09,2.14s-.6,1.65-1.09,1.65c0,0,3.64-.69,3.57,1,0,0,.07,1.24-2.89.72,0,0-4.76-.38-3.17-2a2.24,2.24,0,0,0,2-2.62s-2-1.72-3.22-1.72c0,0-.85-1.59,1.36-.9,0,0,4.18.9,5.36.28C378.17,711.72,379.76,711.65,378.73,712.89Z"/><path class="cls-18" d="M371.43,705.24s-.31,5,2.21,5c0,0,4.12.34,3.93-1.41,0,0-.39-4.22-1.85-2.81a4.36,4.36,0,0,1,0,2.32,2.61,2.61,0,0,1-1.22-2.13s-.62-1.07-.62.19c0,0,.07,2,.62,2.24,0,0-1.83,0-2-2.28C372.52,706.31,372.86,704.61,371.43,705.24Z"/><path class="cls-18" d="M377,697.45s-2.86,0-2.86-1.43c0,0,.62-2-.45-2.68,0,0,4.65,1.43,4.73,0,0,0,1.17-1.71-.84-.63,0,0-3.89-.36-4.69-1.43,0,0-2.68-.19-.63,1.79a3.39,3.39,0,0,1-.27,3.13s-1.16,1.69.9,1.78c0,0,3.21-.18,3.3.63C376.19,698.61,378.25,699.68,377,697.45Z"/><path class="cls-18" d="M377.16,689.25s-2.9-.48-3.82-1.45c0,0-2.41,0-.64,1.45,0,0,2.52,1.66,3.92,1.45,0,0,1.29.16.91-.65C377.53,690.05,377.78,689.37,377.16,689.25Z"/><path class="cls-18" d="M373.75,687.8a2.72,2.72,0,0,1,1.8-1,2.77,2.77,0,0,1,.49,0c1.34.28,1.18,1.42,2,1.19,0,0,2-1.07-.91-2.22,0,0-.94-.51.46-1.78,0,0,1.21-1.66-.46-1.66,0,0-.15.68-1.58,1.74,0,0-.79.56-1.18-.55a1.41,1.41,0,0,0-1.7-.63s-.75,1.3.59,1.58a1.2,1.2,0,0,1,.79,1.34s-1.74.48-1.3,1.5A.93.93,0,0,0,373.75,687.8Z"/><path class="cls-18" d="M372.78,678s3.83,0,4.29-1.84c0,0,1.41-.31-2.24-2.07a15.41,15.41,0,0,1-2.78-1.76s-1.1-1.53-1,0c0,0,1.07,2.23,2.53,2.49,0,0,1.46.42,1.57,1,0,0-2.43-.39-2.65.15C372.47,675.91,371.25,677.67,372.78,678Z"/><path class="cls-18" d="M376.54,668.64s-4.59-2.61-5.05.53c0,0-.46,2.3,3.63,3.22,0,0,2.79.36,2.22-2.38a1.35,1.35,0,0,0-1.43,1.12s-2,.25-2.87-.55c0,0-1.6-2.27.61-1.71,0,0,2.7.87,2.86,2.06C376.51,670.93,378.32,670.22,376.54,668.64Z"/><path class="cls-18" d="M372.12,665.17s3.44,1.83,3-.25c0,0-.79-4.19,1.2-3.78,0,0,1,1.54.25,5.44,0,0-.12,1.25-3.32.29C373.24,666.87,369.13,665.42,372.12,665.17Z"/><path class="cls-18" d="M374.9,658.57s1.52-.76,1.52.45c0,0,.35,1.11-1.34.62A1,1,0,0,1,374.9,658.57Z"/><path class="cls-18" d="M372,655.2s-3.85-4.56,0-3l2.81,3.42a4,4,0,0,0,2,1.19s1.56-1.5,1.06-5.66c0,0-.79-1.65-1.45,0v3.93s-3.95-5.53-6.17-4.66c0,0-2.09.88-.54,2.89C369.74,653.35,370.59,656.05,372,655.2Z"/><path class="cls-19" d="M362.29,769.41H365v7.7s1.17,2.86,2.48,0v-7.7h2.86v7.83s1.31,2.6,2.35,0v-7.83h2.57v9a3.57,3.57,0,0,1-3.84,2.36s-1.45-.26-1.85-.92a4.24,4.24,0,0,1-2.73.92,3.73,3.73,0,0,1-4.58-2.28Z"/><path class="cls-19" d="M414.6,780.47h-2.73v-7.69s-1.18-2.87-2.48,0v7.69h-2.87v-7.82s-1.3-2.61-2.35,0v7.82H401.6v-9a3.58,3.58,0,0,1,3.84-2.37s1.46.27,1.86.92a4.21,4.21,0,0,1,2.73-.92,3.71,3.71,0,0,1,4.57,2.28Z"/><path class="cls-19" d="M376.2,780.47v-7.58a4.43,4.43,0,0,1,4.28-3.48s4.53,0,4.53,3.48v7.58h-2.3v-6.84s-.33-2-1.4-2.06a2,2,0,0,0-2.47,1v7.91Z"/><path class="cls-19" d="M415.12,780.47v-7.58a4.43,4.43,0,0,1,4.28-3.48s4.53,0,4.53,3.48v7.58h-2.3v-6.84s-.33-2-1.4-2.06a2,2,0,0,0-2.47,1v7.91Z"/><path class="cls-19" d="M424.65,780.47v-7.58a4.43,4.43,0,0,1,4.28-3.48s4.53,0,4.53,3.48v7.58h-2.3v-6.84s-.33-2-1.4-2.06a2,2,0,0,0-2.47,1v7.91Z"/><path class="cls-19" d="M385.88,769.41v9.32s-.06,1.73,2.79,1.74h3.73v-2.56h-3.67v-8.5Z"/><path class="cls-19" d="M392.93,769.41v11.06h2.27v-4.65s2.5-.39,3,1.94v2.71h2.5v-3.34s-.51-1.78-1.93-2a2.59,2.59,0,0,0,1.93-2.46v-3.29H398v2.83s-.06,1.71-2.73,1.54v-4.37Z"/><circle class="cls-19" cx="419.69" cy="775.58" r="1.94"/><circle class="cls-19" cx="380.8" cy="775.58" r="1.94"/><polygon class="cls-20" points="430.05 715.02 430.05 700.71 433.46 700.71 427.09 687.8 421.63 699.87 423.93 699.87 423.93 715.02 430.05 715.02"/><path class="cls-19" d="M373.58,612.37v3.13H371.7s-.51-2.22-4.34-2.12c0,0-2.92.1-2,1.61,0,0,6.15.31,7.66,2,0,0,2.92,2.42-1.41,4.63,0,0-4.84.81-7.46-1v1.18h-2.32v-3.9h1.51s1.31,3,6.35,2.11c0,0,2.5-1.81-.51-1.71,0,0-4.73-.71-6.64-2.12,0,0-2.62-2.11,1.81-3.83,0,0,4.64-1.51,7.56.81v-.91Z"/><path class="cls-19" d="M379,617.87s-.69-4.14,2.74-4.51c0,0,3.6-.59,3.87,2.79,0,0,.8,2.68-2.74,4,0,0-2.42.32-3.49-1.51l-1.72,1.77s2.1,1.74,6.18,1.38a6.41,6.41,0,0,0,5.47-3.58s.7-4.08-2.79-5.69a10.28,10.28,0,0,0-8.11-.32s-6.39,3.27-1.61,7.68l.89.54,1.81-1.45A5.65,5.65,0,0,1,379,617.87Z"/><polygon class="cls-19" points="390.98 619.85 390.98 613.59 389.46 613.59 389.46 611.89 394.25 611.89 399.65 617.35 399.65 613.63 397.93 613.63 397.93 611.89 403.74 611.89 403.74 613.51 402.06 613.51 402.06 621.48 399.52 621.48 393.64 615.63 393.64 619.76 395.19 619.76 395.19 621.48 389.46 621.48 389.46 619.76 390.98 619.85"/><polygon class="cls-19" points="404.58 611.89 404.58 613.33 406.08 613.33 409.41 617.29 409.41 619.94 408.01 619.94 407.96 621.48 414.82 621.48 414.82 620.04 412.71 620.04 412.71 618.2 416.94 613.67 418.39 613.67 418.39 611.89 413.32 611.89 413.32 613.18 414.09 613.18 411.76 615.52 409.83 613.59 411.1 613.59 411.1 611.89 404.58 611.89"/><circle class="cls-19" cx="417.45" cy="620.54" r="0.94"/></g><g id="Layer_14" data-name="Layer 14"><path class="cls-21" d="M409.09,131.7H394.86L356.14,66.1,318.2,79.54l-4.74,52.16-20.55-21.34-15.81,7.9,48,238.26c1.45,5.61,2.91,11.25,4.16,16.17,29.82,70.06,93.9,66.46,93.9,66.46l.37,0V71.66Z"/><path class="cls-22" d="M541.87,111.15,519,127l3.95-71.13-34-31.62-43.47,68L451,17.1l-13.44-4-14,58.51V439.12c75.37-3.34,93.08-62.41,93.08-62.41l48.21-239.79Z"/><ellipse class="cls-23" cx="376.31" cy="247.84" rx="30.91" ry="31.82"/><ellipse class="cls-21" cx="374.4" cy="252.46" rx="29" ry="29.86"/><ellipse class="cls-24" cx="370.37" cy="257.01" rx="26.79" ry="27.58"/><ellipse class="cls-25" cx="370.37" cy="257.62" rx="26.79" ry="9.78"/><circle class="cls-26" cx="359.88" cy="257.67" r="5.22"/><ellipse class="cls-27" cx="479.45" cy="249.99" rx="30.91" ry="31.82"/><ellipse class="cls-22" cx="477.54" cy="254.61" rx="29" ry="29.86"/><ellipse class="cls-28" cx="473.51" cy="259.16" rx="26.79" ry="27.58"/><ellipse class="cls-25" cx="473.51" cy="259.78" rx="26.79" ry="9.78"/><circle class="cls-26" cx="463.02" cy="259.83" r="5.22"/><path class="cls-27" d="M361.16,380.27s36.36-70.34,117.37-11.46C478.53,368.81,395.94,335.61,361.16,380.27Z"/></g></svg>