<svg xmlns="http://www.w3.org/2000/svg" viewBox="0 0 841.89 841.89"><defs><style>.cls-1{fill:#d7d7d7;}.cls-2{fill:#fff;}.cls-3{fill:#749948;}.cls-4{fill:#61803c;}.cls-5{fill:#5d7a3a;}.cls-6{fill:#4e6931;}.cls-7{fill:#698941;}.cls-8{fill:#557036;}.cls-9{fill:#141d14;}</style></defs><title>hulk2</title><g id="Layer_8" data-name="Layer 8"><path class="cls-1" d="M418.23,687.57v-21.4s3.29-13.65,20.53-13.65c0,0,13.61-1.83,16.8,9.55,0,0,5.46-12.29,13.65-12.74,0,0,8.65,1.36,10.93,8.65,0,0,3.19-.91,5-8.65,0,0,5-2.73,16.84,19.12,0,0-9.83,5.37-11.59,11.13l-11.26-3-8.25,6H453.62s-5.76,6.26-10.51,7C443.11,689.59,421.88,692.05,418.23,687.57Z"/><path class="cls-1" d="M418.23,723.15v12.22s17.28,10.59,29.5,0c0,0,28.79,4.71,37.49-3.76,0,0,13.85-8.46,14.94-15,0,0,3.26-6,7.87-9,0,0,9-9,1.09-17.4,0,0-14.67-3.24-16.84,4.37,0,0-4.89,14.94-7.06,15.48l-7.34,1.09s-6.52,6.8-5.16,9.51c0,0-16.57-6.8-28.25,1.89C444.47,722.6,435.18,715.81,418.23,723.15Z"/><path class="cls-2" d="M418.23,687.57v-21.4s-3.29-13.65-20.53-13.65c0,0-13.61-1.83-16.8,9.55,0,0-5.46-12.29-13.65-12.74,0,0-8.65,1.36-10.93,8.65,0,0-3.18-.91-5-8.65,0,0-5-2.73-16.84,19.12,0,0,9.84,5.37,11.59,11.13l11.26-3,8.25,6h17.27s5.76,6.26,10.51,7C393.35,689.59,414.58,692.05,418.23,687.57Z"/><path class="cls-2" d="M418.23,723.15v12.22s-17.28,10.59-29.5,0c0,0-28.79,4.71-37.49-3.76,0,0-13.85-8.46-14.94-15,0,0-3.25-6-7.87-9,0,0-9-9-1.09-17.4,0,0,14.67-3.24,16.84,4.37,0,0,4.89,14.94,7.06,15.48l7.34,1.09s6.52,6.8,5.16,9.51c0,0,16.57-6.8,28.25,1.89C392,722.6,401.28,715.81,418.23,723.15Z"/><path class="cls-3" d="M270.34,337.38a62.29,62.29,0,0,1-25.61-22.79s-10.5-14.86-9.22-55.83c0,0,1.85-22.29,18-21,0,0,16.36.51,24.56,7.93S270.34,337.38,270.34,337.38Z"/><path class="cls-4" d="M567.64,337.38a62.35,62.35,0,0,0,25.61-22.79s10.5-14.86,9.22-55.83c0,0-1.85-22.29-18-21,0,0-16.36.51-24.55,7.93S567.64,337.38,567.64,337.38Z"/><path class="cls-5" d="M273.15,317.66s-13.83-4.88-18.18-27.28c0,0-6.84-31.37,8.62-29.83l9.56,7.17Z"/><path class="cls-6" d="M564.82,317.66s13.83-4.88,18.19-27.28c0,0,6.84-31.37-8.62-29.83l-9.57,7.17Z"/><path class="cls-3" d="M419,505V102.07l-133.27,52-19.45,61.14v58.92s-13.17,10.17,1.22,22.73c0,0,0,18.41,31.26,37.09,0,0-8.27,68.85-1.33,102.74,0,0,30.22,30.48,40.85,52.47,0,0,6.23,22.72,27.48,22.72A167.66,167.66,0,0,0,419,505Z"/><path class="cls-4" d="M419,505V102.07l133.26,52,19.45,61.14v58.92s13.17,10.17-1.21,22.73c0,0,0,18.41-31.26,37.09,0,0,8.27,68.85,1.33,102.74,0,0-30.22,30.48-40.85,52.47,0,0-6.23,22.72-27.49,22.72A167.59,167.59,0,0,1,419,505Z"/><path class="cls-7" d="M297.42,436.67s-7.14-25.12,1.33-102.74c0,0-30.82-18.22-31.26-37.09,0,0,.39,39.39-3,59.18,0,0-5.29,29.83,9.2,49.62Z"/><path class="cls-8" d="M540.56,436.67s7.14-25.12-1.33-102.74c0,0,30.82-18.22,31.26-37.09,0,0-.39,39.39,3,59.18,0,0,5.3,29.83-9.19,49.62Z"/><path class="cls-2" d="M386.5,279.49S382.82,299,350,298.73c0,0-25.18-1.7-32.25-28.58l37.63,1.42Z"/><path class="cls-7" d="M321.25,258.94l-29.66,10s-4.37,1.28-5.28-2.73c0,0-.72-3.09,5.1-4.73L312,255.11Z"/><path class="cls-1" d="M451.48,279.49S455.16,299,488,298.73c0,0,25.17-1.7,32.25-28.58l-37.63,1.42Z"/><path class="cls-8" d="M516.72,258.94l29.67,10s4.36,1.28,5.27-2.73c0,0,.73-3.09-5.09-4.73L526,255.11Z"/><path class="cls-7" d="M313.21,408.25s-1.46-33,18.38-58.08c0,0,16.06-20.14,39.4-28.31,0,0,12.85-2.92,10.8-7.3,0,0-.87-7.58-16.05,1.76,0,0-35,14.3-49.61,46.4,0,0-10.22,24.81-9.64,43.78,0,0-.67,4.29,2.78,4.29C309.27,410.79,311.51,411.7,313.21,408.25Z"/><path class="cls-7" d="M419,344.35v-7s-10.61,1.22-17.85-9.64c0,0-2.79-3.29-5.92-.82,0,0-2.8,2.46,0,5.92C395.22,332.84,402.29,344.35,419,344.35Z"/><path class="cls-7" d="M419,412.4a100.63,100.63,0,0,1-32.92-5.08,8.71,8.71,0,0,0-9.35,1.19s-37.22,14.54-39.09,15.16c0,0-5.16,1.25-4.85,4.85,0,0,1.25,3.44,5.63,1.88,0,0,28.19-9.54,37.47-13.92,0,0,5.84-3.91,9.12-1.41,0,0,19.35,6,34,3.56Z"/><path class="cls-7" d="M419,432.87s-18.79-.55-25.3-2.07c0,0-5.84-1.52-6.06,2.07,0,0-1.58,4.49,5.61,4.72,0,0,16.26,1.79,25.75,2"/><path class="cls-9" d="M364.63,270.55s-28.55-18.58-61-25c0,0-7.21-.56-6.65,6.1,0,0-.83,4.7,6.93,6.37,0,0,41,10.26,57.66,24.67l30.21,1.39a5.91,5.91,0,0,0,5.83-5.54s0-6.66-6.1-6.1Z"/><path class="cls-8" d="M524.77,408.25s1.46-33-18.39-58.08c0,0-16.05-20.14-39.4-28.31,0,0-12.84-2.92-10.8-7.3,0,0,.88-7.58,16.06,1.76,0,0,35,14.3,49.61,46.4,0,0,10.22,24.81,9.63,43.78,0,0,.67,4.29-2.78,4.29C528.7,410.79,526.47,411.7,524.77,408.25Z"/><path class="cls-8" d="M419,344.35v-7s10.61,1.22,17.84-9.64c0,0,2.8-3.29,5.93-.82,0,0,2.79,2.46,0,5.92C442.76,332.84,435.69,344.35,419,344.35Z"/><path class="cls-8" d="M419,412.4a100.63,100.63,0,0,0,32.92-5.08,8.71,8.71,0,0,1,9.35,1.19s37.21,14.54,39.09,15.16c0,0,5.16,1.25,4.85,4.85,0,0-1.26,3.44-5.63,1.88,0,0-28.19-9.54-37.47-13.92,0,0-5.84-3.91-9.13-1.41,0,0-19.34,6-34,3.56Z"/><path class="cls-8" d="M419,432.87s18.79-.55,25.3-2.07c0,0,5.84-1.52,6.06,2.07,0,0,1.57,4.49-5.61,4.72,0,0-16.26,1.79-25.75,2"/><path d="M473.35,270.55s28.55-18.58,61-25c0,0,7.21-.56,6.66,6.1,0,0,.83,4.7-6.93,6.37,0,0-41,10.26-57.66,24.67l-30.22,1.39a5.91,5.91,0,0,1-5.82-5.54s0-6.66,6.1-6.1Z"/><path class="cls-9" d="M419,150.12V32.24s-36.83-6.19-53-4c0,0,5.38,10.23,12.38,16.42,0,0-48.18-5.92-61.9-.54a37.39,37.39,0,0,0,16.14,3.77s-22.06,1.62-29.33,5.65c0,0,10.5,4.85,11.84,7.54,0,0-26.64-1.35-38.75,5.38,0,0,22.87,5.65,25.56,8.61,0,0-37.67-6.19-54.63,5.65,0,0,17.5,2.7,19.11,5.92,0,0-18.57,6.46-20.45,16.69l17.6,157.26,8.23-44s32.3-31.22,35.26-54.09c0,0,4,9.15-1.08,21.8,0,0,10-3.77,13.46-19.92,0,0,3,18.84,8.88,21.26,0,0,50.86-13.18,65.13-45.48,0,0,1.61,26.37,18,28.8,0,0-2.15-23.69.81-28C412.31,141,418.14,145,419,150.12Z"/><path d="M419,150.12V32.24s36.82-6.19,53-4c0,0-5.38,10.23-12.38,16.42,0,0,48.17-5.92,61.9-.54a37.46,37.46,0,0,1-16.15,3.77s22.07,1.62,29.34,5.65c0,0-10.5,4.85-11.85,7.54,0,0,26.65-1.35,38.76,5.38,0,0-22.88,5.65-25.57,8.61,0,0,37.68-6.19,54.63,5.65,0,0-17.49,2.7-19.1,5.92,0,0,18.57,6.46,20.45,16.69l-17.6,157.26-8.24-44s-32.29-31.22-35.25-54.09c0,0-4,9.15,1.08,21.8,0,0-10-3.77-13.46-19.92,0,0-3,18.84-8.88,21.26,0,0-50.87-13.18-65.13-45.48,0,0-1.62,26.37-18,28.8,0,0,2.15-23.69-.81-28C425.67,141,419.84,145,419,150.12Z"/></g></svg>