<svg xmlns="http://www.w3.org/2000/svg" viewBox="0 0 841.89 841.89"><defs><style>.cls-1{fill:#d39632;}.cls-2{fill:#ad792c;}.cls-3{fill:#fff;}.cls-4{fill:#efefef;}.cls-5{fill:#0f1728;}.cls-6{fill:#172d4a;}.cls-7{fill:#050608;}.cls-8{fill:#101f30;}.cls-9{fill:#e0e0e0;}.cls-10{fill:#7ccbe1;}.cls-11{fill:#71b5c5;}.cls-12{fill:#64c4dd;}.cls-13{fill:#5caec2;}.cls-14{fill:#0c597c;}.cls-15{fill:#0b485e;}.cls-16{fill:#95d3e2;}.cls-17{fill:#87bdc7;}</style></defs><title>ironMan_3</title><g id="Layer_4" data-name="Layer 4"><polygon class="cls-1" points="426.67 159.73 426.67 400.43 382.39 401.12 371.43 415.08 348.71 380.04 284.09 255.41 299.42 198.72 296.69 49.82 335.02 30.92 378 18.88 391.69 152.23 426.67 159.73"/><polygon class="cls-1" points="426.67 403.95 426.67 433.98 418.99 433.98 414.06 439.64 389.1 439.64 367.51 446.39 347.25 408.42 350.9 388.34 370.44 419.56 383.04 403.95 426.67 403.95"/><polygon class="cls-2" points="426.67 159.73 426.67 400.43 470.95 401.12 481.91 415.08 504.63 380.04 569.26 255.41 553.93 198.72 556.66 49.82 518.33 30.92 475.35 18.88 461.65 152.23 426.67 159.73"/><polygon class="cls-2" points="426.67 403.95 426.67 433.98 434.35 433.98 439.29 439.64 464.25 439.64 485.84 446.39 506.1 408.42 502.44 388.34 482.91 419.56 470.31 403.95 426.67 403.95"/></g><g id="Layer_3" data-name="Layer 3"><polygon class="cls-3" points="397.64 256.18 349.99 237.39 316.22 214.94 310.56 235.92 329.55 261.65 388.68 274.25 397.64 256.18"/><polygon class="cls-4" points="455.71 256.18 503.35 237.39 537.12 214.94 542.78 235.92 523.8 261.65 464.67 274.25 455.71 256.18"/></g><g id="Layer_18" data-name="Layer 18"><path class="cls-5" d="M416.67,629V580s-38.9-3.27-74.68,33.24c0,0-27.06,29.67-26.88,63.15,0,0-1.64,43.28,27.06,73.79,0,0,31.31,35.6,74.5,35.6V629"/><path class="cls-6" d="M332.44,653.93l68.34,116.22s-43.71-1.51-66.94-42.39C333.84,727.76,314.66,692.11,332.44,653.93Z"/><path class="cls-7" d="M416.67,629V580s38.9-3.27,74.68,33.24c0,0,27.07,29.67,26.88,63.15,0,0,1.64,43.28-27.06,73.79,0,0-31.31,35.6-74.5,35.6V629"/><path class="cls-8" d="M500.9,653.93,432.57,770.15s43.7-1.51,66.94-42.39C499.51,727.76,518.69,692.11,500.9,653.93Z"/><polygon class="cls-3" points="416.67 625.59 348.6 625.59 333.83 647.29 405.25 770.15 416.67 770.15 416.67 625.59"/><path class="cls-6" d="M416.67,622.46h-63.8s15.58-31.38,63.8-33.82Z"/><polygon class="cls-9" points="416.67 625.59 484.74 625.59 499.51 647.29 428.09 770.15 416.67 770.15 416.67 625.59"/><path class="cls-8" d="M416.67,622.46h63.8s-15.58-31.38-63.8-33.82Z"/><polygon class="cls-10" points="416.67 620.05 416.67 594.88 398.69 594.88 414.33 620.05 416.67 620.05"/><polygon class="cls-10" points="394.85 594.88 358.04 620.05 409.55 620.05 394.85 594.88"/><polygon class="cls-10" points="353.38 746.88 393.69 765.94 367.68 721.48 353.38 746.88"/><polygon class="cls-10" points="330.12 707.47 332.62 662.95 359.26 707.03 330.12 707.47"/><polygon class="cls-10" points="361.6 712.04 363.93 715.78 348.6 743.71 330.12 712.04 361.6 712.04"/><polygon class="cls-11" points="416.67 620.05 416.67 594.88 434.65 594.88 419.01 620.05 416.67 620.05"/><polygon class="cls-11" points="438.49 594.88 475.3 620.05 423.79 620.05 438.49 594.88"/><polygon class="cls-11" points="479.96 746.88 439.65 765.94 465.67 721.48 479.96 746.88"/><polygon class="cls-11" points="503.22 707.47 500.73 662.95 474.08 707.03 503.22 707.47"/><polygon class="cls-11" points="471.74 712.04 469.41 715.78 484.74 743.71 503.22 712.04 471.74 712.04"/><polygon class="cls-12" points="416.67 634.54 411.12 642.4 348.6 643.27 380.47 697.14 375.8 705.6 384.73 705.6 416.67 762.03 416.67 634.54"/><polygon class="cls-12" points="402.02 640.43 361.61 640.43 356.76 632.85 365.09 636.64 398.17 636.64 405.25 632.85 402.02 640.43"/><polygon class="cls-12" points="352.86 654.96 373.53 689.68 369.5 697.73 368.49 688.63 351.57 660.21 344.69 656.06 352.86 654.96"/><polygon class="cls-12" points="388.01 715.78 408.68 750.5 404.64 758.55 403.64 749.45 386.72 721.03 379.84 716.88 388.01 715.78"/><polygon class="cls-13" points="416.67 634.54 422.22 642.4 484.74 643.27 452.87 697.14 457.54 705.6 448.61 705.6 416.67 762.03 416.67 634.54"/><polygon class="cls-13" points="431.32 640.43 471.73 640.43 476.58 632.85 468.25 636.64 435.18 636.64 428.09 632.85 431.32 640.43"/><polygon class="cls-13" points="480.48 654.96 459.81 689.68 463.84 697.73 464.85 688.63 481.77 660.21 488.65 656.06 480.48 654.96"/><polygon class="cls-13" points="445.33 715.78 424.66 750.5 428.7 758.55 429.7 749.45 446.62 721.03 453.5 716.88 445.33 715.78"/><polygon class="cls-14" points="416.67 642.6 414.63 647.58 355.27 647.58 384.73 697.65 382.23 701.51 386.49 701.51 416.67 752.09 416.67 642.6"/><polygon class="cls-15" points="416.67 642.6 418.71 647.58 478.07 647.58 448.62 697.65 451.11 701.51 446.85 701.51 416.67 752.09 416.67 642.6"/><polygon class="cls-16" points="416.67 663.44 411.91 653.93 368.41 653.93 391.3 692.9 400.58 691.99 395.15 699.69 416.67 738.44 416.67 663.44"/><polygon class="cls-17" points="416.67 663.44 421.43 653.93 464.93 653.93 442.05 692.9 432.76 691.99 438.19 699.69 416.67 738.44 416.67 663.44"/></g></svg>