<svg xmlns="http://www.w3.org/2000/svg" viewBox="0 0 841.89 841.89"><defs><style>.cls-1{fill:#c4c4c4;}.cls-2{fill:#888989;}.cls-3{fill:#fff;}.cls-4{fill:#efefef;}.cls-5{fill:#0d2635;}.cls-6{fill:#061219;}.cls-7{fill:#88cedd;}.cls-8{fill:#78b5be;}.cls-9{fill:#121323;}.cls-10{fill:#050609;}.cls-11{fill:#e3f3f8;}.cls-12{fill:#a2d9f1;}.cls-13{fill:#cedce0;}.cls-14{fill:#92c2d3;}.cls-15{fill:#224a66;}.cls-16{fill:#1b394b;}.cls-17{fill:#7ab7c1;}.cls-18{fill:#93c3d7;}.cls-19{fill:#84adbc;}</style></defs><title>ironMan_2</title><g id="Layer_4" data-name="Layer 4"><polygon class="cls-1" points="426.67 159.73 426.67 400.43 382.39 401.12 371.43 415.08 348.71 380.04 284.09 255.41 299.42 198.72 296.69 49.82 335.02 30.92 378 18.88 391.69 152.23 426.67 159.73"/><polygon class="cls-1" points="426.67 403.95 426.67 433.98 418.99 433.98 414.06 439.64 389.1 439.64 367.51 446.39 347.25 408.42 350.9 388.34 370.44 419.56 383.04 403.95 426.67 403.95"/><polygon class="cls-2" points="426.67 159.73 426.67 400.43 470.95 401.12 481.91 415.08 504.63 380.04 569.26 255.41 553.93 198.72 556.66 49.82 518.33 30.92 475.35 18.88 461.65 152.23 426.67 159.73"/><polygon class="cls-2" points="426.67 403.95 426.67 433.98 434.35 433.98 439.29 439.64 464.25 439.64 485.84 446.39 506.1 408.42 502.44 388.34 482.91 419.56 470.31 403.95 426.67 403.95"/></g><g id="Layer_3" data-name="Layer 3"><polygon class="cls-3" points="397.64 256.18 349.99 237.39 316.22 214.94 310.56 235.92 329.55 261.65 388.68 274.25 397.64 256.18"/><polygon class="cls-4" points="455.71 256.18 503.35 237.39 537.12 214.94 542.78 235.92 523.8 261.65 464.67 274.25 455.71 256.18"/></g><g id="Layer_13" data-name="Layer 13"><path class="cls-5" d="M426.67,568s-45.17-3.75-87.18,43.85c0,0-19.16,21.41-19.88,57.21,0,0-3.56,39,23.18,72.67,0,0,25.24,35.8,83.88,40.59"/><path class="cls-6" d="M426.67,568s45.17-3.75,87.18,43.85c0,0,19.17,21.41,19.89,57.21,0,0,3.56,39-23.19,72.67,0,0-25.24,35.8-83.88,40.59"/><path class="cls-7" d="M426.67,580.22s-40-3.32-77.17,38.81c0,0-17,19-17.6,50.64,0,0-3.15,34.52,20.52,64.32,0,0,22.35,31.7,74.25,35.93"/><path class="cls-8" d="M426.67,580.22s40-3.32,77.17,38.81c0,0,17,19,17.6,50.64,0,0,3.15,34.52-20.52,64.32,0,0-22.34,31.7-74.25,35.93"/><path class="cls-9" d="M426.67,585.82s-37.62-3.13-72.61,36.51c0,0-16,17.84-16.56,47.66,0,0-3,32.47,19.31,60.52,0,0,21,29.83,69.86,33.81"/><path class="cls-10" d="M426.67,585.82s37.63-3.13,72.62,36.51c0,0,16,17.84,16.56,47.66,0,0,3,32.47-19.31,60.52,0,0-21,29.83-69.87,33.81"/><polygon class="cls-11" points="352.05 624.74 426.67 624.74 426.67 764.32 423.68 764.32 348.51 630.34 352.05 624.74"/><polygon class="cls-12" points="426.67 619.49 416.55 619.49 404.13 589.63 426.67 585.82 426.67 619.49"/><polygon class="cls-12" points="389.89 619.49 380.87 601.05 358.22 619.49 389.89 619.49"/><polygon class="cls-12" points="397.98 734.54 386.69 751.68 414.08 761.82 397.98 734.54"/><polygon class="cls-12" points="360.24 668.68 339.76 669.98 344.55 641.17 360.24 668.68"/><polygon class="cls-12" points="383.77 711.64 372.82 692.51 341.59 698.23 364.2 735.27 383.77 711.64"/><polygon class="cls-13" points="501.3 624.74 426.67 624.74 426.67 764.32 429.67 764.32 504.83 630.34 501.3 624.74"/><polygon class="cls-14" points="426.67 619.49 436.79 619.49 449.22 589.63 426.67 585.82 426.67 619.49"/><polygon class="cls-14" points="463.45 619.49 472.47 601.05 495.12 619.49 463.45 619.49"/><polygon class="cls-14" points="455.36 734.54 466.66 751.68 439.26 761.82 455.36 734.54"/><polygon class="cls-14" points="493.1 668.68 513.59 669.98 508.79 641.17 493.1 668.68"/><polygon class="cls-14" points="469.57 711.64 480.52 692.51 511.76 698.23 489.15 735.27 469.57 711.64"/><polyline class="cls-15" points="426.67 764.32 423.68 764.32 424.18 715.73 388.78 654.93 348.51 630.34 352.05 624.74 391.91 649.87 426.67 649.87"/><polygon class="cls-7" points="426.67 646.67 426.67 631.33 369.86 631.33 394.18 646.67 426.67 646.67"/><polygon class="cls-7" points="387.59 657.77 362.68 643.24 420.97 742.88 420.97 715.87 387.59 657.77"/><polyline class="cls-16" points="426.67 764.32 429.67 764.32 429.16 715.73 464.56 654.93 504.83 630.34 501.3 624.74 461.44 649.87 426.67 649.87"/><polygon class="cls-17" points="426.67 646.67 426.67 631.33 483.48 631.33 459.16 646.67 426.67 646.67"/><polygon class="cls-17" points="465.75 657.77 490.66 643.24 432.37 742.88 432.37 715.87 465.75 657.77"/><polygon class="cls-18" points="426.67 703.95 426.67 657.25 398.76 657.25 426.67 703.95"/><polygon class="cls-19" points="426.67 703.95 426.67 657.25 454.59 657.25 426.67 703.95"/></g></svg>