<svg xmlns="http://www.w3.org/2000/svg" viewBox="0 0 841.89 841.89"><defs><style>.cls-1{fill:#6ec7e0;}.cls-2{fill:#62b2c4;}.cls-3{fill:#053642;}.cls-4{fill:#042227;}.cls-5{fill:#021f1d;}.cls-6{fill:#040a09;}.cls-7{fill:#671b18;}.cls-8{fill:#4c1313;}.cls-9{fill:#9fd7e5;}.cls-10{fill:#8dbbc7;}.cls-11{fill:#122f44;}.cls-12{fill:#0d212d;}.cls-13{fill:#96d4e5;}.cls-14{fill:#87bfcc;}.cls-15{fill:#f7b22f;}.cls-16{fill:#f29121;}.cls-17{fill:#fff;}.cls-18{fill:#efefef;}</style></defs><title>ironMan_1</title><g id="Layer_1" data-name="Layer 1"><path class="cls-1" d="M428.52,794.06V579.81S324.64,581.1,318.15,686.93C318.15,686.93,316.85,783.67,428.52,794.06Z"/><path class="cls-2" d="M429.14,794.06V579.81S533,581.1,539.52,686.93C539.52,686.93,540.81,783.67,429.14,794.06Z"/><path class="cls-3" d="M428.52,783.48V594.26S336.78,595.4,331,688.87C331,688.87,329.9,774.31,428.52,783.48Z"/><path class="cls-4" d="M429.14,783.48V594.26s91.75,1.14,97.48,94.61C526.62,688.87,527.77,774.31,429.14,783.48Z"/><path class="cls-5" d="M428.52,772.73V605s-81.32,1-86.4,83.87C342.12,688.87,341.1,764.6,428.52,772.73Z"/><path class="cls-6" d="M429.14,772.73V605s81.33,1,86.41,83.87C515.55,688.87,516.57,764.6,429.14,772.73Z"/><path class="cls-7" d="M429.14,613.71v-33.9H412.9s-3.26,20,1.52,39.62l14.72-5.72"/><path class="cls-7" d="M399.42,623.76s-12.28-27.2-20.32-35.43l-30.24,21.72s11.81,23.54,31.9,34.06"/><path class="cls-7" d="M366.41,654.88s-25-13.82-38-17.57L315.69,670.8s14.15,14.29,46,12.42S366.41,654.88,366.41,654.88Z"/><path class="cls-7" d="M356.46,698s-29.53,3.5-38.31,11.32l12.24,32.36s26.07-4.69,42.83-16.45Z"/><path class="cls-7" d="M380.68,736.73s-22,21.56-25.88,30.58l25.88,18.43s10.91-5.3,23.53-33.72Z"/><path class="cls-7" d="M429.14,761.43v32.63H410.89s.26-31.14,4.29-42.47l14,9.84"/><path class="cls-8" d="M428.52,613.71v-33.9h16.25s3.26,20-1.52,39.62l-14.73-5.72"/><path class="cls-8" d="M458.24,623.76s12.29-27.2,20.32-35.43l30.25,21.72s-11.82,23.54-31.9,34.06"/><path class="cls-8" d="M491.26,654.88s25-13.82,38-17.57L542,670.8s-14.16,14.29-46,12.42S491.26,654.88,491.26,654.88Z"/><path class="cls-8" d="M501.21,698s29.53,3.5,38.31,11.32l-12.24,32.36s-26.07-4.69-42.83-16.45Z"/><path class="cls-8" d="M477,736.73s21.95,21.56,25.87,30.58L477,785.74s-10.91-5.3-23.53-33.72Z"/><path class="cls-8" d="M428.52,761.43v32.63h18.25s-.25-31.14-4.28-42.47l-14,9.84"/><path class="cls-9" d="M429.14,763.77V614s-72.63.91-77.17,74.91C352,688.87,351.06,756.51,429.14,763.77Z"/><path class="cls-10" d="M428.52,763.77V614s72.64.91,77.18,74.91C505.7,688.87,506.6,756.51,428.52,763.77Z"/><path class="cls-11" d="M429.14,726.05V649.94s-36.9.46-39.2,38.06C389.94,688,389.48,722.36,429.14,726.05Z"/><path class="cls-12" d="M428.52,726.05V649.94s36.9.46,39.21,38.06C467.73,688,468.19,722.36,428.52,726.05Z"/><path class="cls-13" d="M429.14,710.15V667.39s-20.73.26-22,21.38C407.12,688.77,406.86,708.07,429.14,710.15Z"/><path class="cls-14" d="M428.52,710.15V667.39s20.73.26,22,21.38C450.55,688.77,450.81,708.07,428.52,710.15Z"/></g><g id="Layer_4" data-name="Layer 4"><polygon class="cls-15" points="426.67 159.73 426.67 400.43 382.39 401.12 371.43 415.08 348.71 380.04 284.09 255.41 299.42 198.72 296.69 49.82 335.02 30.92 378 18.88 391.69 152.23 426.67 159.73"/><polygon class="cls-15" points="426.67 403.95 426.67 433.98 418.99 433.98 414.06 439.64 389.1 439.64 367.51 446.39 347.25 408.42 350.9 388.34 370.44 419.56 383.04 403.95 426.67 403.95"/><polygon class="cls-16" points="426.67 159.73 426.67 400.43 470.95 401.12 481.91 415.08 504.63 380.04 569.26 255.41 553.93 198.72 556.66 49.82 518.33 30.92 475.35 18.88 461.65 152.23 426.67 159.73"/><polygon class="cls-16" points="426.67 403.95 426.67 433.98 434.35 433.98 439.29 439.64 464.25 439.64 485.84 446.39 506.1 408.42 502.44 388.34 482.91 419.56 470.31 403.95 426.67 403.95"/></g><g id="Layer_3" data-name="Layer 3"><polygon class="cls-17" points="397.64 256.18 349.99 237.39 316.22 214.94 310.56 235.92 329.55 261.65 388.68 274.25 397.64 256.18"/><polygon class="cls-18" points="455.71 256.18 503.35 237.39 537.12 214.94 542.78 235.92 523.8 261.65 464.67 274.25 455.71 256.18"/></g></svg>