<svg xmlns="http://www.w3.org/2000/svg" viewBox="0 0 841.89 841.89"><defs><style>.cls-1{fill:#fffffe;}.cls-2{fill:#d2d2d2;}.cls-3{fill:#cc2c31;}.cls-4{fill:#922824;}.cls-5{fill:#2c3651;}.cls-6,.cls-7{fill:none;stroke-miterlimit:10;stroke-width:3px;}.cls-6{stroke:#2c3651;}.cls-7{stroke:#1e2a40;}.cls-8{fill:#1e2a40;}.cls-9{fill:#fff;}</style></defs><title>spiderMan_1</title><g id="Layer_12" data-name="Layer 12"><path class="cls-1" d="M422.68,782.94V614.28S404.47,617,405.16,640s11.77,25.42,11.77,25.42-1.49.34-3,4.47L378,655.16l3.44-31.26,10.3-21.64L378,622.18l-6.53,32.63s6.87,10.31,38.13,16.49c0,0-47.06-.69-62.17-8.93l5.49-30.23,9.62-29.88L345,629.74,336.8,665.8l28.51,8.25,44,.69s-4.28,6.08-5.06,9.34L359.63,684l-35.05,15,21.25,74.55L356,787.49l-9.93-34.22-6-51.2,26.49-7.2,35.09-4.94-37.3,20.3,9.26,56.07,11.93,27.37-7.95-28.26-5.07-52.75L399.69,698s-6.46,37.56,2.82,63.56C402.51,761.52,411,781,422.68,782.94Z"/><path class="cls-2" d="M422.68,782.94V614.28S440.88,617,440.19,640s-11.77,25.42-11.77,25.42,1.49.34,3,4.47l35.89-14.77L463.9,623.9l-10.31-21.64,13.74,19.92,6.53,32.63S467,665.12,435.73,671.3c0,0,47.06-.69,62.17-8.93l-5.49-30.23-9.62-29.88,17.52,27.48,8.24,36.06L480,674.05l-44,.69s4.28,6.08,5.06,9.34l44.6-.09,35,15-21.25,74.55-10.15,13.91,9.93-34.22,6-51.2-26.48-7.2-35.1-4.94,37.3,20.3-9.26,56.07-11.93,27.37,7.95-28.26,5.08-52.75L445.67,698s6.45,37.56-2.83,63.56C442.84,761.52,434.35,781,422.68,782.94Z"/></g><g id="Layer_2" data-name="Layer 2"><polygon class="cls-3" points="420.94 21.04 345.12 38.12 293.87 100.52 270.85 208.22 292.39 341.92 301.3 355.29 339.92 421.51 337.7 428.83 361.46 469.68 420.94 491.22 420.94 21.04"/><polygon class="cls-4" points="419.38 21.04 495.2 38.12 546.45 100.52 569.48 208.22 547.94 341.92 539.03 355.29 500.4 421.51 502.63 428.83 478.86 469.68 419.38 491.22 419.38 21.04"/></g><g id="Layer_3" data-name="Layer 3"><ellipse class="cls-5" cx="420.39" cy="286.46" rx="5.96" ry="9.46"/><line class="cls-6" x1="420.94" y1="286.46" x2="369.49" y2="32.63"/><line class="cls-7" x1="419.38" y1="286.46" x2="470.83" y2="32.63"/></g><g id="Layer_4" data-name="Layer 4"><line class="cls-6" x1="420.94" y1="286.46" x2="314.75" y2="75.09"/><line class="cls-7" x1="419.38" y1="286.46" x2="525.57" y2="75.09"/></g><g id="Layer_5" data-name="Layer 5"><line class="cls-6" x1="420.94" y1="288.76" x2="329.21" y2="403.15"/><line class="cls-7" x1="419.38" y1="288.76" x2="511.11" y2="403.15"/></g><g id="Layer_6" data-name="Layer 6"><line class="cls-6" x1="420.94" y1="286.46" x2="368.38" y2="472.19"/><line class="cls-7" x1="419.38" y1="286.46" x2="471.95" y2="472.19"/></g><g id="Layer_7" data-name="Layer 7"><polyline class="cls-6" points="420.94 331.24 408.5 330.42 398.66 316.55 367.31 286.45 412.65 244.86 420.94 244.86"/><polyline class="cls-7" points="419.38 331.24 431.82 330.42 441.67 316.55 473.02 286.45 427.68 244.86 419.38 244.86"/></g><g id="Layer_8" data-name="Layer 8"><polyline class="cls-6" points="420.94 371.59 396.45 373.02 368.44 354.23 344.35 326.91 347.86 242.26 382.65 210.23 402.39 194.93 420.94 197.19"/><polyline class="cls-6" points="420.94 124.19 386.8 118 352.54 150.29 306.32 223.69 314.52 289.67 313.45 345.95 343.58 385.24 385.47 411.78 420.94 414.49"/><polyline class="cls-6" points="420.94 66.44 375.47 62.13 330.96 107.35 298.87 159.54 300.96 192.19"/><polyline class="cls-6" points="420.94 453.09 371.3 461.45 338.13 427.41"/><line class="cls-6" x1="301.86" y1="356.25" x2="350.07" y2="313.9"/><line class="cls-6" x1="284.34" y1="291.99" x2="326.77" y2="282.11"/><line class="cls-6" x1="273.55" y1="225.04" x2="315.23" y2="227.25"/><polyline class="cls-7" points="419.38 371.59 443.88 373.02 471.88 354.23 495.97 326.91 492.47 242.26 457.68 210.23 437.93 194.93 419.38 197.19"/><polyline class="cls-7" points="419.38 124.19 453.53 118 487.79 150.29 534.01 223.69 525.8 289.67 526.87 345.95 496.75 385.24 454.85 411.78 419.38 414.49"/><polyline class="cls-7" points="419.38 66.44 464.86 62.13 509.37 107.35 541.46 159.54 539.37 192.19"/><polyline class="cls-7" points="419.38 453.09 469.02 461.45 502.2 427.41"/><line class="cls-7" x1="538.47" y1="356.25" x2="490.26" y2="313.9"/><line class="cls-7" x1="555.98" y1="291.99" x2="513.55" y2="282.11"/><line class="cls-7" x1="566.77" y1="225.04" x2="525.09" y2="227.25"/></g><g id="Layer_9" data-name="Layer 9"><path class="cls-5" d="M405.58,272.25v14.21l-66,57.08-38.89-50.61L288,244.86V192.19l10.87-39.37,7.45,25.61,42.82,62.65,46.08,38S400,282.75,405.58,272.25Z"/><path class="cls-8" d="M437.18,272.25v14.21l66.05,57.08,38.88-50.61,12.66-48.07V192.19l-10.88-39.37-7.45,25.61-42.82,62.65-46.08,38S442.74,282.75,437.18,272.25Z"/><ellipse class="cls-5" cx="420.39" cy="286.46" rx="6.96" ry="9.46"/></g><g id="Layer_10" data-name="Layer 10"><polygon class="cls-2" points="453.43 291.01 453.43 283.97 502.2 249.25 541.46 183.85 545.93 240.98 534.01 286.45 502.2 331.24 453.43 291.01"/><polygon class="cls-9" points="388.86 291.01 388.86 283.97 340.09 249.25 300.83 183.85 296.36 240.98 308.28 286.45 340.09 331.24 388.86 291.01"/></g></svg>