<svg xmlns="http://www.w3.org/2000/svg" viewBox="0 0 841.89 841.89"><defs><style>.cls-1{fill:#c1172e;}.cls-2{fill:#a61926;}.cls-3{fill:#ead3b4;}.cls-4{fill:#cbaf93;}.cls-5{fill:#28292b;}.cls-6{fill:#303334;}.cls-7{fill:#2b2d2d;}.cls-8{fill:#3d3936;}.cls-9{fill:#1f201f;}.cls-10{fill:#626361;}.cls-11{fill:#f9d701;}.cls-12{fill:#b18613;}.cls-13{fill:#d7a902;}.cls-14{fill:#61b230;}.cls-15{fill:#eac307;}.cls-16{fill:#997014;}.cls-17{fill:#c19409;}.cls-18{fill:#579b33;}</style></defs><title>strange_1</title><g id="Layer_26" data-name="Layer 26"><path class="cls-1" d="M384.92,543.07S371.59,423.69,246.75,372.18c0,0,19.4-24.24,24.85-51.51s18.18-44.88,35.15-53.65,96.36,88.79,96.36,88.79S383.71,527.92,384.92,543.07Z"/><path class="cls-2" d="M459.27,545.32s13.33-119.39,138.17-170.9c0,0-19.39-24.24-24.85-51.51S554.41,278,537.45,269.26s-96.36,88.8-96.36,88.8S460.48,530.17,459.27,545.32Z"/><path class="cls-3" d="M392.3,459.42a41.75,41.75,0,0,1-25.81-21.14c-18.14-35.4-41.79-96.94-43.32-108a22.61,22.61,0,0,0-.41-2.3L305.46,257a19.4,19.4,0,0,1-.55-4.55V137.6a36.06,36.06,0,0,1,36-35.95h81.49V467.9l-.14,0Z"/><path class="cls-4" d="M519.51,334.77s32.73-11.82,36.37-42.72,7.27-60,.9-60.91c0,0-2.88-16.36-16.89-14.54S514.06,243,514.06,245.69,501.33,338.41,519.51,334.77Z"/><path class="cls-4" d="M453.53,459.42a43,43,0,0,0,26.75-21.14c18.82-35.4,43.33-96.94,44.92-108a22.65,22.65,0,0,1,.42-2.3L543.56,257a18.42,18.42,0,0,0,.57-4.55V137.6c0-19.77-16.78-35.95-37.28-35.95H422.36V467.9l.14,0Z"/><path class="cls-5" d="M422.36,354.68v20s-3.64-1.82-4.09-3.18S372.82,378.77,371,381s-4.54,34.09-2.27,37.73,15.91,19.54,17.72,20.9,10.91,8.19,19.55,0,16.36-5,16.36-5v33.17s-50.45,3.64-70-54.08a74.35,74.35,0,0,0,7.72-12.27c2.73-5.91,7.27-5.91-.91-14.55s8.18-21.36,16.37-23.63,25.45-9.55,27.72-15.46,12.73,5,15.91,5.91Z"/><path class="cls-6" d="M422.36,354.68v20s3.64-1.82,4.09-3.18,45.45,7.27,47.27,9.54,4.54,34.09,2.27,37.73-15.91,19.54-17.72,20.9-10.91,8.19-19.55,0-16.36-5-16.36-5v33.17s50.45,3.64,70-54.08a74.35,74.35,0,0,1-7.72-12.27c-2.73-5.91-7.27-5.91.91-14.55s-8.18-21.36-16.37-23.63-25.45-9.55-27.72-15.46-12.73,5-15.91,5.91Z"/><path class="cls-5" d="M423,421.35v18.89s-15-4.36-17-18.89C406,421.35,418.61,424.26,423,421.35Z"/><path class="cls-7" d="M423,421.35v18.89s15-4.36,16.95-18.89C439.92,421.35,427.33,424.26,423,421.35Z"/><path class="cls-3" d="M320.39,337.5S287.67,325.68,284,294.77s-7.27-60-.91-60.9c0,0,2.89-16.36,16.9-14.54s25.83,26.36,25.83,29.08S338.57,341.13,320.39,337.5Z"/><path class="cls-8" d="M300.29,220.31c-1.4,0-2.8-4.19-4.19-4.19-8,4.44-15.44.41-22.68-1-.82,4.74-1,10.08.91,18.24,4.25,18.18,9.7,6.06,13.94,28.48,0,0,.61,7.88,2.43,10.31s23.63,21.21,23.63,21.21,7.27,44.23,15.76,52.72c0,0-10.31-46.06-7.88-77.57s3-35.15,12.72-43c0,0-.21-1.38-.54-3.67C323.78,216.49,312,219,300.29,220.31Z"/><path class="cls-9" d="M431.9,152.8V37.66s-11.52-5.45-18.18-5.45-55.15,7.87-79.39,24.24S298,83.11,293.12,103.11s-7.27,50.3-9.7,59.39-6.06,19.39-6.66,33.93c-.34,8-2.33,12.91-3.34,18.73,7.24,1.37,14.67,5.4,22.68,1,1.39,0,2.79,4.19,4.19,4.19,11.74-1.3,23.49-3.82,34.1,1.54-1.65-11.44-6.21-46.23-1.76-53.29,5.33-8.49,21.09-21.21,32-19.39,0,0-5.46,29.69,0,46.05s15.75,27.27,18.78,27.88c0,0-17-18.18-13.33-30.3s5.46-39.74,15.15-43.2l3,3.2h24.85s-3,24.24,1.82,32.12,10.3,17,13.33,17-12.12-17-10.3-25.45-.61-21.82,1.82-23.64S431.9,152.8,431.9,152.8Z"/><path class="cls-9" d="M556.84,221.12c.4-9,.79-16,1.36-17.63,1.75-4.84,5-25.15-3.74-49.39-.74-23,3.49-30.9-7.72-52.42S520.81,65.32,488.41,62c-10.22-15.76-18.69-28.79-41.87-22.42-8.23-11.82-8.06-11.52-9.89-11.52s-6.56,2.43-9.06,7.58-5.23,115.14-5.23,115.14,6.73-.91,8.72,0c0,0-2.74,25.45.25,34.24s1.5,3.94,1.5,3.94,0-31.21,1.49-31.51,3.25,39.22,4.09,49.07c.06.64.11,1.16.15,1.53.75,6.06-1.24-58.48,3.49-57.27s30.41,0,30.41,0,12.46-22.1,13.46-21.8,1.49,14.55,1.49,14.55,29.67,13,31.66,23c1.91,9.58-1.21,44.47-2.79,53.76C529.8,220.12,543.32,218.46,556.84,221.12Z"/><path class="cls-8" d="M516.28,220.29c-.07.4-.14.78-.2,1.08l6,10.3c.75,1.29,1.84,6.78,2.79,12.46s1.76,11.56,1.95,13.6c.74,8.18,3.73,40.91-3.49,71.51s-4,18.79-4,18.79S534,311.67,533,287.12c0,0,15.45-4.54,19.44-14.24,2.68-6.51,3.56-33.34,4.37-51.76C543.32,218.46,529.8,220.12,516.28,220.29Z"/><path class="cls-10" d="M522.06,231.67s18.2-.07,24.26-1.59c0,0-19,3.77-23.15,4.08"/><path class="cls-10" d="M547.53,238.72S526,243,524.58,242.55l.81,5S545,239.63,547.53,238.72Z"/><path class="cls-10" d="M326.79,235.41S299.07,233,297,229.93c0,0,12.42,10.56,28.56,9.52Z"/><path class="cls-10" d="M324.39,245.43s-21.53-1.86-23.35-4.29c0,0,5.33,6.15,22.81,8.53Z"/></g><g id="Layer_28" data-name="Layer 28"><path class="cls-11" d="M415.3,772.11c-1.35-2-2.74-3.93-4.14-5.81a61.05,61.05,0,0,1-22.11-9.09,6.75,6.75,0,0,0,1.12,5l-22.28-18.63a29.06,29.06,0,0,0,7,.55,61.13,61.13,0,0,1-10.23-19c-.92-.52-1.81-1-2.69-1.5-3.06,4-4.85,6.32-4.85,6.32l-1.3-9.47a102.55,102.55,0,0,0-15.13-6.06s1.92-3.71,14.45,1.14l-.75-5.47c2.55-1.58,4.95-3.12,7.25-4.63a61,61,0,0,1,5.89-25.65,15.35,15.35,0,0,0-1.31.93c-17.19,13.45,0-8.58,0-8.58s6.08-13.92,10.37-10.06c0,0,.09,1.21.47,3.31a61.4,61.4,0,0,1,20.73-15.27,11.7,11.7,0,0,0-2-1.53c4.72-6.08,16.71-7.55,27.23-7.45v-4.37c-36.39.44-85.6,35.29-96.19,65.06a11.81,11.81,0,0,0,.33,8.65C340.21,740.7,386.5,775,423,775.38v-3.27Z"/><path class="cls-12" d="M396.94,745c10.25,8.32,20,16.52,26,21.68V735.94a40.3,40.3,0,0,1-12.18-2.23A115.85,115.85,0,0,0,396.94,745Z"/><path class="cls-12" d="M406.74,732.18C394.27,726.93,382.54,717,378.3,708a4.74,4.74,0,0,1-.16-3.73,22.52,22.52,0,0,1,1.26-2.64c-5.86,7.22-11,13.81-14.95,18.81,7.1,4.6,17.05,12.2,27,20.18a58.92,58.92,0,0,0,9.23-4.67C402.47,734.86,404.51,733.59,406.74,732.18Z"/><path class="cls-12" d="M364.65,725.15a61.13,61.13,0,0,0,10.23,19,46.49,46.49,0,0,0,13.41-2.39A152,152,0,0,0,364.65,725.15Z"/><path class="cls-12" d="M397.78,650.16a61.4,61.4,0,0,0-20.73,15.27A79,79,0,0,0,385,687.85C409.59,665.59,402.05,654,397.78,650.16Z"/><path class="cls-12" d="M387.3,692a.22.22,0,0,0,.05.08c9.52-8.6,24-15.72,35.62-15.84V652.89C412.52,662.5,399.21,677.66,387.3,692Z"/><path class="cls-12" d="M394.59,747.49c-3.13,3.5-5.12,6.79-5.54,9.72a61.05,61.05,0,0,0,22.11,9.09A150.58,150.58,0,0,0,394.59,747.49Z"/><path class="cls-12" d="M367.52,679.83a61,61,0,0,0-5.89,25.65,218.66,218.66,0,0,0,18.09-13.13C376,682.25,374,675.69,367.52,679.83Z"/><path class="cls-13" d="M378.3,708c4.24,9,16,18.93,28.44,24.18.95-.59,1.94-1.22,3-1.87-15.8-8.39-23.12-21.19-27.63-32l-2.67,3.28a22.52,22.52,0,0,0-1.26,2.64A4.74,4.74,0,0,0,378.3,708Z"/><path class="cls-13" d="M401,709.53a21.55,21.55,0,0,1-.29-3.43A22.26,22.26,0,0,1,423,683.83v-7.58c-11.64.12-26.1,7.24-35.62,15.84A90.45,90.45,0,0,0,401,709.53Z"/><path class="cls-13" d="M421.25,735.1a70.29,70.29,0,0,1-8.07-3.07l-2.39,1.68A40.3,40.3,0,0,0,423,735.94v-.29Z"/><path class="cls-14" d="M423,726.13v-.54l-.45.29Z"/><path class="cls-14" d="M423,721.83v-38a22.26,22.26,0,0,0-22.26,22.27,21.55,21.55,0,0,0,.29,3.43,100.7,100.7,0,0,0,18.48,14.54Z"/><path class="cls-11" d="M374.88,744.17a29.06,29.06,0,0,1-7-.55l22.28,18.63a6.75,6.75,0,0,1-1.12-5A61.69,61.69,0,0,1,374.88,744.17Z"/><path class="cls-11" d="M388.29,741.78a46.49,46.49,0,0,1-13.41,2.39,61.69,61.69,0,0,0,14.17,13c.42-2.93,2.41-6.22,5.54-9.72C392.49,745.48,390.38,743.58,388.29,741.78Z"/><path class="cls-11" d="M410.79,733.71c-1.35-.45-2.71-1-4.05-1.53-2.23,1.41-4.27,2.68-6,3.77a58.92,58.92,0,0,1-9.23,4.67c1.83,1.46,3.65,2.94,5.46,4.41A115.85,115.85,0,0,1,410.79,733.71Z"/><path class="cls-11" d="M406.74,732.18c1.34.57,2.7,1.08,4.05,1.53l2.39-1.68c-1.21-.55-2.36-1.12-3.48-1.72C408.68,731,407.69,731.59,406.74,732.18Z"/><path class="cls-11" d="M423,725.59v-3.76l-3.49,2.24c1,.61,2,1.21,3,1.81Z"/><path class="cls-11" d="M357.11,730s1.79-2.37,4.85-6.32c-2.17-1.18-4.23-2.23-6.15-3.15Z"/><path class="cls-11" d="M395.74,648.63a11.7,11.7,0,0,1,2,1.53A61.07,61.07,0,0,1,423,644.75v-3.57C412.45,641.08,400.46,642.55,395.74,648.63Z"/><path class="cls-11" d="M363.13,719.6a61.32,61.32,0,0,1-1.52-13.5c0-.21,0-.41,0-.62-2.3,1.51-4.7,3-7.25,4.63l.75,5.47c.86.33,1.76.71,2.72,1.12A44.37,44.37,0,0,1,363.13,719.6Z"/><path class="cls-11" d="M363.13,719.6l1.32.84c3.9-5,9.09-11.59,14.95-18.81a29.79,29.79,0,0,1,2.49-3.72c-.8-1.94-1.51-3.8-2.17-5.56a218.66,218.66,0,0,1-18.09,13.13c0,.21,0,.41,0,.62A61.32,61.32,0,0,0,363.13,719.6Z"/><path class="cls-11" d="M385,687.85q1.06,2,2.33,4.16c11.91-14.35,25.22-29.51,35.67-39.12v-8.14a61.07,61.07,0,0,0-25.19,5.41C402.05,654,409.59,665.59,385,687.85Z"/><path class="cls-11" d="M381.89,697.91a29.79,29.79,0,0,0-2.49,3.72l2.67-3.28Z"/><path class="cls-11" d="M376.58,662.12c-4.29-3.86-10.37,10.06-10.37,10.06s-17.19,22,0,8.58a15.35,15.35,0,0,1,1.31-.93,61,61,0,0,1,9.53-14.4C376.67,663.33,376.58,662.12,376.58,662.12Z"/><path class="cls-11" d="M379.72,692.35q2.83-2.33,5.25-4.5a79,79,0,0,1-7.92-22.42,61,61,0,0,0-9.53,14.4C374,675.69,376,682.25,379.72,692.35Z"/><path class="cls-11" d="M387.35,692.09a.22.22,0,0,1-.05-.08l-.5.6Z"/><path class="cls-11" d="M382.07,698.35c4.51,10.77,11.83,23.57,27.63,32l5.38-3.42A22.25,22.25,0,0,1,401,709.53a90.45,90.45,0,0,1-13.65-17.44l-.55.52C385.19,694.54,383.61,696.46,382.07,698.35Z"/><path class="cls-11" d="M413.18,732a70.29,70.29,0,0,0,8.07,3.07l1.72.55v-7.29a21.54,21.54,0,0,1-3.79-.35C417.13,729.35,415.12,730.69,413.18,732Z"/><path class="cls-11" d="M422.52,725.88,419.18,728a21.54,21.54,0,0,0,3.79.35v-2.23Z"/><path class="cls-11" d="M415.08,726.89l4.4-2.82A100.7,100.7,0,0,1,401,709.53,22.25,22.25,0,0,0,415.08,726.89Z"/><path class="cls-11" d="M415.08,726.89l-5.38,3.42c1.12.6,2.27,1.17,3.48,1.72,1.94-1.34,3.95-2.68,6-4A21.57,21.57,0,0,1,415.08,726.89Z"/><path class="cls-11" d="M422.52,725.88c-1-.6-2-1.2-3-1.81l-4.4,2.82a21.57,21.57,0,0,0,4.1,1.12Z"/><path class="cls-11" d="M386.8,692.61l.5-.6Q386,689.9,385,687.85q-2.42,2.17-5.25,4.5c.66,1.76,1.37,3.62,2.17,5.56A43.63,43.63,0,0,1,386.8,692.61Z"/><path class="cls-11" d="M386.8,692.61a43.63,43.63,0,0,0-4.91,5.3l.18.44C383.61,696.46,385.19,694.54,386.8,692.61Z"/><path class="cls-11" d="M340.68,714.44a102.55,102.55,0,0,1,15.13,6.06l-.68-4.92C342.6,710.73,340.68,714.44,340.68,714.44Z"/><path class="cls-11" d="M411.16,766.3c1.4,1.88,2.79,3.8,4.14,5.81H423v-4.67A62.15,62.15,0,0,1,411.16,766.3Z"/><path class="cls-11" d="M362,723.65c.88.48,1.77,1,2.69,1.5-.39-1.19-.75-2.38-1.07-3.59Z"/><path class="cls-11" d="M423,766.71c-6.05-5.16-15.78-13.36-26-21.68-.84.83-1.63,1.65-2.35,2.46a150.58,150.58,0,0,1,16.57,18.81A62.15,62.15,0,0,0,423,767.44Z"/><path class="cls-11" d="M391.48,740.62c-10-8-19.93-15.58-27-20.18l-.87,1.12c.32,1.21.68,2.4,1.07,3.59a152,152,0,0,1,23.64,16.63C389.33,741.44,390.39,741.06,391.48,740.62Z"/><path class="cls-11" d="M388.29,741.78c2.09,1.8,4.2,3.7,6.3,5.71.72-.81,1.51-1.63,2.35-2.46-1.81-1.47-3.63-2.95-5.46-4.41C390.39,741.06,389.33,741.44,388.29,741.78Z"/><path class="cls-11" d="M363.13,719.6a44.37,44.37,0,0,0-5.28-2.9c-1-.41-1.86-.79-2.72-1.12l.68,4.92c1.92.92,4,2,6.15,3.15l1.62-2.09C363.42,720.91,363.27,720.26,363.13,719.6Z"/><path class="cls-11" d="M363.58,721.56l.87-1.12-1.32-.84C363.27,720.26,363.42,720.91,363.58,721.56Z"/><path class="cls-15" d="M519.63,706.1c-2.74-17.81-57.69-69.31-96-69.31l-.69,0v4.37c13,.12,23.8,2.63,15.75,1.75-1.6-.17-3.83.74-6.54,2.51a61.37,61.37,0,0,1,45.24,32.39,15.26,15.26,0,0,0-.32-9.08c-4.53-13.11,18.84,38,12.42,43.83,0,0-1.84-9-5.64-13.73a61.89,61.89,0,0,1,.45,7.25,61.08,61.08,0,0,1-12.15,36.65l1.4.24,2.59.4-1.74-.27L450,765.9a13.7,13.7,0,0,1-1.66,1.54L450,765.9a12.71,12.71,0,0,0,3.36-6.53,61,61,0,0,1-29.57,8l5.46,4.69H423v3.27l.69,0C461.94,775.4,523.8,733.19,519.63,706.1Z"/><path class="cls-16" d="M423.84,735.94H423v30.77l.84.71a61,61,0,0,0,29.57-8C454.3,753.24,449.61,744.45,423.84,735.94Z"/><path class="cls-16" d="M423,676.25h.32c12.62,0,29.13,11.1,38.16,20.32a43.46,43.46,0,0,0,5.06-3.7c.27-.83,8.68-6.63,10.91-15a61.37,61.37,0,0,0-45.24-32.39,74,74,0,0,0-9.21,7.45Z"/><path class="cls-16" d="M477.1,696.51c-1.48.64-5.55,2.54-11.17,5.33A11.46,11.46,0,0,1,468,706.1c1.48,8.87-14.81,21.49-30.55,27a163.12,163.12,0,0,0,34.72,9.61,61.08,61.08,0,0,0,12.15-36.65,61.89,61.89,0,0,0-.45-7.25C482.07,696.6,479.82,695.33,477.1,696.51Z"/><path class="cls-17" d="M445.23,706.1c0,.44,0,.87-.06,1.31,6.61-4.34,12.4-8.2,16.28-10.85-9-9.22-25.54-20.32-38.16-20.32H423v7.58A22.26,22.26,0,0,1,445.23,706.1Z"/><path class="cls-17" d="M426.49,728.05q5.13,2.7,11,5.09c15.74-5.55,32-18.17,30.55-27a11.46,11.46,0,0,0-2.08-4.26c-6,2.95-13.67,6.91-21.9,11.43A22.23,22.23,0,0,1,426.49,728.05Z"/><path class="cls-11" d="M423,735.94h.87l-.87-.29Z"/><path class="cls-14" d="M423,726.13c1.15.65,2.32,1.29,3.52,1.92A22.23,22.23,0,0,0,444,713.27c-6.9,3.8-14.15,8-21.06,12.32Z"/><path class="cls-18" d="M445.17,707.41c0-.44.06-.87.06-1.31A22.26,22.26,0,0,0,423,683.83v38C430.4,717.05,438.22,712,445.17,707.41Z"/><path class="cls-15" d="M489.52,712.58c6.42-5.8-16.95-56.94-12.42-43.83a15.26,15.26,0,0,1,.32,9.08,60.89,60.89,0,0,1,6.46,21C487.68,703.56,489.52,712.58,489.52,712.58Z"/><path class="cls-15" d="M466.51,692.86a43.46,43.46,0,0,1-5.06,3.7,42.68,42.68,0,0,1,4.48,5.28c5.62-2.79,9.69-4.69,11.17-5.33,2.72-1.18,5,.09,6.78,2.34a60.89,60.89,0,0,0-6.46-21C475.19,686.23,466.78,692,466.51,692.86Z"/><path class="cls-15" d="M444,713.27c8.23-4.52,15.94-8.48,21.9-11.43a42.68,42.68,0,0,0-4.48-5.28c-3.88,2.65-9.67,6.51-16.28,10.85A22.22,22.22,0,0,1,444,713.27Z"/><path class="cls-15" d="M423,725.59c6.91-4.33,14.16-8.52,21.06-12.32a22.22,22.22,0,0,0,1.14-5.86c-6.95,4.56-14.77,9.64-22.2,14.42Z"/><path class="cls-15" d="M432.18,645.44c2.71-1.77,4.94-2.68,6.54-2.51,8,.88-2.73-1.63-15.75-1.75v3.57A60.78,60.78,0,0,1,432.18,645.44Z"/><path class="cls-15" d="M423,652.89a74,74,0,0,1,9.21-7.45,60.78,60.78,0,0,0-9.21-.69Z"/><path class="cls-11" d="M450,765.9l-1.66,1.54A13.7,13.7,0,0,0,450,765.9Z"/><path class="cls-15" d="M453.38,759.37A12.71,12.71,0,0,1,450,765.9l24.41-22.78,1.74.27-2.59-.4-1.4-.24A61.65,61.65,0,0,1,453.38,759.37Z"/><path class="cls-15" d="M423.84,735.94c25.77,8.51,30.46,17.3,29.54,23.43a61.65,61.65,0,0,0,18.8-16.62,163.12,163.12,0,0,1-34.72-9.61A45.08,45.08,0,0,1,423.84,735.94Z"/><path class="cls-15" d="M423,728.36v7.29l.87.29a45.08,45.08,0,0,0,13.62-2.8q-5.85-2.39-11-5.09A21.53,21.53,0,0,1,423,728.36Z"/><path class="cls-15" d="M423,728.36a21.53,21.53,0,0,0,3.52-.31c-1.2-.63-2.37-1.27-3.52-1.92Z"/><path class="cls-15" d="M423,772.11h6.3l-5.46-4.69-.84,0Z"/><path class="cls-11" d="M423,767.44l.84,0-.84-.71Z"/></g></svg>