<svg xmlns="http://www.w3.org/2000/svg" viewBox="0 0 841.89 841.89"><defs><style>.cls-1{fill:#c0bebd;}.cls-2{fill:#979696;}.cls-3{fill:#c2b49f;}.cls-4{fill:#998478;}.cls-5{fill:#949894;}.cls-6{fill:#e6d46c;}.cls-7{fill:#e5b34e;}.cls-8{fill:#f8f7f7;}.cls-9{fill:#d2d2d2;}.cls-10{fill:#742220;}</style></defs><title>thor</title><g id="Layer_11" data-name="Layer 11"><path class="cls-1" d="M424,137.89s-7,16.38-20.59,16.38c0,0-61.77,14-61.3,77.68,0,0,.93,17.78,2.34,27.14H424Z"/><path class="cls-2" d="M424,137.89s7,16.38,20.59,16.38c0,0,61.77,14,61.3,77.68,0,0-.93,17.78-2.34,27.14H424Z"/><polygon class="cls-3" points="424.04 259.09 424.04 397.04 401.56 397.04 347.33 349.82 344.49 259.09 424.04 259.09"/><polygon class="cls-4" points="424.04 259.09 424.04 397.04 446.52 397.04 500.75 349.82 503.59 259.09 424.04 259.09"/><circle class="cls-1" cx="344.49" cy="488.46" r="37.17"/><circle class="cls-5" cx="503.59" cy="488.46" r="37.17"/><path class="cls-6" d="M350.6,259.09s-8,60.34,13.56,58l3.27,57s21,56.57,15.66,78.54c0,0,10.05,22,13.79,23.85l-7.94,33.19-44.89,39.74,11.69-36V473.71l-36.93-41.14-16.37-45.35,2.34-63.11,16.36-29,15-36Z"/><path class="cls-7" d="M497.68,259.09s7.95,60.34-13.56,58l-3.27,57s-21,56.57-15.67,78.54c0,0-10.05,22-13.79,23.85l7.95,33.19,44.88,39.74-11.69-36V473.71l36.94-41.14,16.36-45.35-2.34-63.11-16.36-29-15-36Z"/><path class="cls-8" d="M334.64,355.67l-2.59-58,17.61-34.18a151.84,151.84,0,0,1-8.8-46.61c-.52-25.38,0-42.47,0-42.47l-18.65-23.83-31.07-22.27L254.37,34.06,246.6,79.11l11.91,37.29L246.6,100.35l3.11,28-1,21.76,4.66,8.8-4.66,8.29s15.54,26.93,11.4,33.66L287,221l-12.95,11.39,11.39,45.06,27.45,24.34,2.59,38.84Z"/><path class="cls-9" d="M513.15,355.67l2.59-58-17.61-34.18a151.67,151.67,0,0,0,8.81-46.61c.51-25.38,0-42.47,0-42.47l18.64-23.83,31.07-22.27,36.78-94.25,7.76,45.05L589.28,116.4l11.91-16.05-3.1,28,1,21.76-4.66,8.8,4.66,8.29s-15.53,26.93-11.39,33.66L560.8,221l13,11.39-11.4,45.06L534.9,301.81l-2.59,38.84Z"/><circle class="cls-1" cx="371.97" cy="688.98" r="25.33"/><circle class="cls-5" cx="469.92" cy="688.98" r="25.33"/><path class="cls-8" d="M406,275.74H364.75S373.82,313.83,406,275.74Z"/><path class="cls-9" d="M440.46,275.74h41.26S472.65,313.83,440.46,275.74Z"/><polyline class="cls-10" points="344.05 -398.7 920.04 3.02 1051.11 3.02 1051.11 -518.78 593.43 -914.09 560.13 -758.5 451.39 -650.78 396.88 -772.61 254.37 -914.09 289.54 -759.78 365.2 -521.26 361.29 -422.53 344.05 -398.7"/></g></svg>