<svg xmlns="http://www.w3.org/2000/svg" viewBox="0 0 841.89 841.89"><defs><style>.cls-1{fill:#e2cdae;}.cls-2{fill:#c6b399;}.cls-3{fill:#bc9f64;}.cls-4{fill:#a08658;}.cls-5{fill:#fff;}.cls-6{fill:#e2e1e0;}.cls-7{fill:#8c7562;}.cls-8{fill:#2f3230;}.cls-9{fill:#715e51;}.cls-10{fill:#181918;}.cls-11{fill:#231f14;}.cls-12{fill:#4d4c4c;}.cls-13{fill:#353535;}.cls-14{fill:#676566;}.cls-15{fill:#504f4f;}.cls-16{fill:#484747;}.cls-17{fill:#333;}.cls-18{fill:#32504c;}.cls-19{fill:#9d8555;}.cls-20{fill:#253a37;}.cls-21{fill:#7d6a47;}.cls-22{fill:#2b4a43;}.cls-23{fill:#2d2d2d;}.cls-24{fill:#8a8385;}.cls-25{fill:#5f5e5f;}.cls-26{fill:#8e878b;}.cls-27{fill:#6e6b6c;}.cls-28{fill:#444;}.cls-29{fill:#757274;}</style></defs><title>thor_3</title><g id="Layer_15" data-name="Layer 15"><polyline class="cls-1" points="414.43 372.32 414.43 407.14 402.49 440.27 363.76 430.41 347.92 403.79 363.76 378.73 414.43 372.32"/><polyline class="cls-2" points="414.43 372.28 414.43 407.1 426.38 440.24 465.11 430.37 480.95 403.75 465.11 378.69 414.43 372.28"/></g><g id="Layer_14" data-name="Layer 14"><path class="cls-3" d="M414.43,465.26V407.14s-9.71-4.27-14.82-4c0,0,2.78,11,0,18.85,0,0,2.24,12.07-14.67,8.82,0,0-26.65-5.23-25.26-27.69,0,0,.93-18.28,21.82-21.53,0,0,27.79-.93,32.93-9.28V355.83l-9.12-22-54,19.48-27.86-7.89-10.38,25.07,28.48,68.71,35.29,26.09,33.73,12.45,3.84-12.45"/><path class="cls-4" d="M414.43,465.23V407.1s9.72-4.27,14.83-4c0,0-2.79,11,0,18.85,0,0-2.25,12.07,14.66,8.82,0,0,26.66-5.22,25.27-27.68,0,0-.93-18.28-21.82-21.53,0,0-27.8-.93-32.94-9.29V355.79l9.12-22,54,19.48,27.87-7.9,10.38,25.07-28.49,68.72L452,465.23l-33.74,12.44-3.84-12.44"/></g><g id="Layer_13" data-name="Layer 13"><path class="cls-1" d="M414.43,295.55v60.28s-7.43-8.36-16.65-3.17c0,0-15,6.33-20.45,8.06,0,0-23.17,8.27-33.55,24.49l-8.22-7.78,1.92-16.71-6,12.68-5.18-9.8,1.15-7.77-4.84,6.31-8.91-19.39-.65-16.88L300.75,308.3l-5.81-26.69,18.15-37,52.32-.92,41.52,11.86,7.5,40"/><path class="cls-2" d="M414.43,295.52v60.27s7.44-8.35,16.66-3.17c0,0,15,6.34,20.45,8.07,0,0,23.16,8.27,33.55,24.48l8.22-7.77-1.92-16.71,5.95,12.67,5.19-9.79-1.16-7.78,4.85,6.31,8.91-19.39.65-16.88,12.33-17.57,5.82-26.69-18.15-37-52.33-.91-41.51,11.86-7.51,40"/></g><g id="Layer_16" data-name="Layer 16"><path class="cls-5" d="M393.88,298.69l-60.24-12.75S342.22,335.44,393.88,298.69Z"/><path class="cls-6" d="M432.67,298.65l60.25-12.75S484.33,335.41,432.67,298.65Z"/></g><g id="Layer_12" data-name="Layer 12"><path class="cls-3" d="M386.68,252.86s4.79,17.54-1.74,19.74c0,0-10.23.78-16.5-4.06,0,0-28.67-8.61-47.85.28l35.27-27.23,30.82,11.27"/><path class="cls-4" d="M442.19,252.83s-4.8,17.54,1.73,19.74c0,0,10.24.78,16.51-4.07,0,0,28.67-8.61,47.84.29L473,241.56l-30.82,11.27"/></g><g id="Layer_11" data-name="Layer 11"><path class="cls-7" d="M384.94,260.31s-36.55-4.1-49.2,3.11c0,0-34.11,12.7-28,32.13,0,0-.36,16.22,7.51,20.87L307,313.56l-5.57-35.85,7-21.74,39.7-12.51,34.69,5.72,2.12,11.13"/><polyline class="cls-8" points="301.42 277.71 293.53 275.8 288.69 278.29 294.08 314.63 303.42 317.82 309.57 333.43 305.39 344 334.55 403.79 337.48 394.39 313.74 342.75 318.67 331.49 315.22 316.42 306.99 313.56 301.42 277.71"/><path class="cls-9" d="M443.92,260.28s36.56-4.11,49.21,3.11c0,0,34.1,12.69,28,32.13,0,0,.36,16.21-7.51,20.86l8.24-2.86,5.57-35.84-7-21.74-39.7-12.52-34.69,5.72-2.13,11.14"/><polyline class="cls-10" points="527.45 277.68 535.34 275.76 540.17 278.25 534.78 314.59 525.44 317.79 519.3 333.4 523.48 343.96 494.32 403.75 491.39 394.35 515.13 342.71 510.2 331.46 513.64 316.38 521.88 313.52 527.45 277.68"/></g><g id="Layer_10" data-name="Layer 10"><path class="cls-11" d="M408.06,289.3s-6.89-24.41-24.93-28.09h0s-28.22-13.94-51.18-.16a94.19,94.19,0,0,0-30.53,16.66l-13.19-3.2,66.2-37,60,22-6.37,29.72"/><polyline class="cls-12" points="288.69 278.29 282.24 281.61 284.74 316.42 309.82 380.69 327.49 389.32 305.39 344 309.57 333.43 303.42 317.82 294.08 314.63 288.69 278.29"/><path d="M420.81,289.27s6.89-24.41,24.92-28.1h0S474,247.23,496.92,261a94.21,94.21,0,0,1,30.53,16.67l13.19-3.2-66.2-37-60,22,6.38,29.73"/><polyline class="cls-13" points="540.17 278.25 546.62 281.57 544.13 316.38 519.05 380.66 501.38 389.29 523.48 343.96 519.3 333.4 525.44 317.79 534.78 314.59 540.17 278.25"/></g><g id="Layer_9" data-name="Layer 9"><path class="cls-14" d="M404.84,269.24S377.65,258.68,369,256.79a85.88,85.88,0,0,0-26.28-3.53s-6.14.47-22.52,8.82l-37.94,19.53v-3.9l20.25-29.42,51.94-10.75L388.2,248l17.11,14.28-.47,6.93"/><path class="cls-15" d="M424,269.21s27.19-10.57,35.86-12.45a85.51,85.51,0,0,1,26.28-3.53s6.14.47,22.52,8.81l37.93,19.53v-3.89l-20.25-29.43-51.93-10.74L440.67,248l-17.12,14.28.48,6.93"/></g><g id="Layer_8" data-name="Layer 8"><path class="cls-16" d="M404.56,266.86s-39.53-18-54.45-18.2c0,0-11.91-2.23-22.56,4.84l-45.31,24.21V272.6l16.64-17.06,38.54-13.95,28,2.13,29,12.69,10.93,5.9-.66,5.32"/><path class="cls-17" d="M424.31,266.83s39.53-18,54.45-18.21c0,0,11.91-2.22,22.56,4.85l45.3,24.21v-5.11L530,255.5l-38.55-13.94-28,2.13-29,12.68-10.94,5.91.67,5.31"/></g><g id="Layer_7" data-name="Layer 7"><path class="cls-14" d="M282.24,212.39V272.6s49.65-28.38,61.43-27.42c0,0,15.63-1,44.5,11.55l18.76,8.66-4.44-69.09L282.24,212.39"/><path class="cls-15" d="M546.62,212.35v60.22S497,244.19,485.19,245.15c0,0-15.63-1-44.49,11.54l-18.76,8.66,4.44-69.08,120.24,16.08"/></g><g id="Layer_6" data-name="Layer 6"><path class="cls-18" d="M300.75,162.58s-17.51,22-18.51,49.81c0,0,9.66,27.93,29.52,13.5h0l8.83-34.1-19.84-29.21"/><path class="cls-19" d="M414.43,465.26v20.61s-34.7-1-56.19-20.61h0L336.09,431s2.33-27.91,5.65-30.24c0,0,4.3,29.57,12.95,37.88,0,0,0-6,4.33,2.66,0,0,9,17.61,18.61,17.28,0,0-2.33-7.31,5.65.66C383.28,459.28,404.72,475.9,414.43,465.26Z"/><path class="cls-20" d="M528.11,162.54s17.51,22,18.51,49.81c0,0-9.65,27.93-29.52,13.5h0l-8.83-34.1,19.84-29.21"/><path class="cls-21" d="M414.43,465.23v20.6s34.71-1,56.19-20.6h0L492.78,431s-2.33-27.91-5.65-30.23c0,0-4.3,29.57-12.95,37.88,0,0,0-6-4.33,2.66,0,0-9,17.61-18.61,17.27,0,0,2.33-7.31-5.65.67C445.59,459.25,424.15,475.86,414.43,465.23Z"/></g><g id="Layer_5" data-name="Layer 5"><path class="cls-12" d="M327.8,124a273.56,273.56,0,0,0-27.05,38.59s8.26,7.16,9.91,31.93l1.1,31.38,19.87-14.43L358,146.06Z"/><path class="cls-22" d="M264.09,225.89a240.55,240.55,0,0,0-1.17,71.1h0l8.82.77L269,224.4l-4.94,1.49"/><path class="cls-17" d="M501.07,124a273.52,273.52,0,0,1,27,38.58s-8.25,7.16-9.91,31.93l-1.1,31.38-19.86-14.43L470.86,146Z"/><path class="cls-20" d="M564.77,225.85A240.37,240.37,0,0,1,566,297h0l-8.82.78,2.7-73.37,4.94,1.49"/></g><g id="Layer_4" data-name="Layer 4"><path class="cls-16" d="M331.64,119.39l-3.83,4.55s6.84,72,3.83,87.46l5.6,1,6.43-56.31-12-36.69"/><path class="cls-14" d="M265.76,219.11l-1.67,6.78s2.86,49.24-1.17,71.1h0l10.93-.05V228.19l-8.09-9.08"/><path class="cls-23" d="M497.23,119.36l3.83,4.55s-6.84,72-3.83,87.46l-5.6,1L485.19,156l12-36.68"/><path class="cls-12" d="M563.11,219.08l1.66,6.77S561.92,275.1,566,297h0L555,296.9V228.16l8.1-9.08"/></g><g id="Layer_3" data-name="Layer 3"><path class="cls-12" d="M394.38,89.7s-39.78,9-62.74,29.69c0,0,6.72,37.54,5.6,93l63.26,6.72L394.38,89.7"/><path class="cls-22" d="M281.29,41.25s-13,47.3-14.11,113.16c0,0-.71,45.43-1.42,64.7,0,0,4.62,11.19,3.55,48.09,0,0-1.42,18.42-6.39,29.79v10.65h5s26,75.28,37,106.55c0,0,22.09,59,39.72,70.61,0,0,16.11,7.06,24.68,9.08l-34.72-90.09-7.06-14.47-17.67-8.63-25.08-64.27-2.5-49.22-5.05-70.9,3-106.6,1.07-48.45"/><path class="cls-17" d="M434.49,89.67s39.77,9,62.74,29.69c0,0-6.72,37.53-5.6,93l-63.27,6.73,6.13-129.41"/><path class="cls-20" d="M547.58,41.21s13,47.31,14.11,113.16c0,0,.71,45.44,1.42,64.71,0,0-4.62,11.19-3.55,48.08,0,0,1.42,18.42,6.39,29.79v10.66h-5s-26,75.27-37,106.54c0,0-22.09,59-39.72,70.62,0,0-16.11,7.06-24.69,9.08l34.73-90.1,7.05-14.46,17.68-8.63,25.08-64.28,2.49-49.22,5.06-70.89-3-106.6-1.07-48.46"/></g><g id="Layer_2" data-name="Layer 2"><path class="cls-24" d="M414.43,295.55V66.94s-3.84-1.83-3.84,4.11v224.5Z"/><path class="cls-25" d="M410.59,71.05S397.18,78.5,394.38,89.7c0,0,6.1,197.15,16.21,205.85Z"/><path class="cls-26" d="M282.24,212.39s-4.62-138,6.46-195.47c0,0-6.87,9.23-7.41,24.33,0,0-5.28,48-5.87,75.81,0,0-3.56,56-3.56,96.54,0,0-.89,38.51,2.07,46,0,0,.93,7.55,8.31,7.55Z"/><path class="cls-27" d="M414.43,295.52V66.9s3.84-1.82,3.84,4.11V295.52Z"/><path class="cls-28" d="M418.27,71s13.42,7.45,16.22,18.66c0,0-6.1,197.14-16.22,205.85Z"/><path class="cls-29" d="M546.62,212.35s4.63-138-6.45-195.47c0,0,6.87,9.23,7.41,24.33,0,0,5.28,48,5.87,75.81,0,0,3.56,56,3.56,96.54,0,0,.88,38.51-2.08,46.06,0,0-.92,7.54-8.31,7.54Z"/></g></svg>