<svg xmlns="http://www.w3.org/2000/svg" viewBox="0 0 841.89 841.89"><defs><style>.cls-1{fill:#c3aa88;}.cls-2{fill:#ab9479;}.cls-3{fill:#c0bebd;}.cls-4{fill:#949894;}.cls-5{fill:#e2cc5f;}.cls-6{fill:#e6d46d;}.cls-7{fill:#ce9e48;}.cls-8{fill:#e4b34e;}.cls-9{fill:#fff;}.cls-10{fill:#e0e0e0;}.cls-11{fill:#cbaa5f;}.cls-12{fill:#dbbe71;}.cls-13{fill:#f0d186;}.cls-14{fill:#be9c5d;}.cls-15{fill:#caa767;}.cls-16{fill:#bd9854;}.cls-17{fill:#a88545;}.cls-18{fill:#d0ab65;}.cls-19{fill:#a8854f;}.cls-20{fill:#d8bf54;}.cls-21{fill:#dec76a;}.cls-22{fill:#4a7b9b;}.cls-23{fill:#3b6c8a;}.cls-24{fill:#d1a969;}.cls-25{fill:#a88750;}.cls-26{fill:#d6bc72;}.cls-27{fill:#cfad66;}</style></defs><title>thor_2</title><g id="Layer_9" data-name="Layer 9"><path class="cls-1" d="M326.15,219.34s-11.56-21.17-23.83-6c0,0-1,10.34,2.56,15.71,0,0,1.53,17,1.53,26.08,0,0,3.12,37,26.86,37.94h0l-7.12-73.78"/><path class="cls-2" d="M549.89,219.29s11.57-21.17,23.84-5.95c0,0,1,10.34-2.56,15.71,0,0-1.53,17-1.53,26.08,0,0-3.12,37-26.86,37.94h0l7.11-73.78"/></g><g id="Layer_4" data-name="Layer 4"><path class="cls-1" d="M438.22,431.61V80.4L342.31,120l-16.16,99.38s3,83,20.2,129.29c0,0,20.19,36.67,23.22,46.32C369.57,395,397.84,434.5,438.22,431.61Z"/><path class="cls-2" d="M437.82,431.56V80.34l95.92,39.56,16.15,99.39s-3,83-20.19,129.29c0,0-20.19,36.66-23.22,46.31C506.48,394.89,478.21,434.45,437.82,431.56Z"/><circle class="cls-3" cx="371.86" cy="475.13" r="37.17"/><circle class="cls-4" cx="503.79" cy="475.13" r="37.17"/><path class="cls-5" d="M438,301.34s-38.56-5-69.92,31.38c0,0-26.32-19.45-35.8-50.15,0,0,1.27,36.13,11.57,60.62,0,0,24.23,45.89,24.73,52.55,0,0,30.11,42.32,69.42,36l.25-79.54s-17.91-4.75-16.92,20.69c0,0-6.22,26.4-28.61-3.33,0,0-18.17-20.92,2.24-31.39,0,0,13.68-9,43.29-13.07Z"/><path class="cls-6" d="M315.55,282.57s4.42,61.56-4.37,92.06c0,0,7-3.5,9.11-9.17,0,0,2.79,51.67-14.77,83.66,0,0,11.2-2.1,14.93-7.34,0,0,6,47.19-7.46,78.13,0,0,63.25-34.93,60-118.67h0l-29.16-82.16-10.56-26S322.46,293.74,315.55,282.57Z"/><path class="cls-7" d="M438.08,301.28s38.56-5,69.91,31.39c0,0,26.33-19.46,35.81-50.15,0,0-1.27,36.12-11.57,60.62,0,0-24.24,45.89-24.73,52.55,0,0-30.11,42.32-69.42,36l-.25-79.54s17.91-4.75,16.92,20.69c0,0,6.22,26.39,28.61-3.33,0,0,18.16-20.92-2.24-31.39,0,0-13.68-9-43.29-13.08Z"/><path class="cls-8" d="M560.5,282.52s-4.42,61.56,4.36,92.06c0,0-7-3.5-9.1-9.17,0,0-2.79,51.67,14.76,83.66,0,0-11.2-2.1-14.92-7.34,0,0-6,47.19,7.46,78.13,0,0-63.25-34.94-60-118.67h0L532.23,319l10.55-25.95S553.59,293.68,560.5,282.52Z"/><path class="cls-7" d="M461.51,214.2a25.2,25.2,0,0,1,16.83-14.29s23.79-3.15,41.78,4.15c0,0,7.21,4-7.82,3.52,0,0-20.55-1.89-33.25,1.84C479.05,209.42,466.45,214.24,461.51,214.2Z"/><path class="cls-5" d="M415.07,213a25.22,25.22,0,0,0-17.41-13.59s-23.89-2.17-41.57,5.85c0,0-7,4.31,8,3.2,0,0,20.44-2.73,33.29.48C397.35,208.93,410.14,213.22,415.07,213Z"/><path class="cls-9" d="M354.44,224s32-10.19,60.63,0C415.07,224,385.73,258.74,354.44,224Z"/><path class="cls-10" d="M522,224s-32-10.19-60.62,0C461.37,224,490.7,258.74,522,224Z"/><path class="cls-6" d="M437.85,49.55s4.29,75.55-16.33,89.51c0,0-65.16,12.42-95.73,80.11h0s-5.08-10.66-14.6-11.44c0,0,1.57-84,8.17-100.59C319.36,107.14,352.26,59.66,437.85,49.55Z"/><path class="cls-8" d="M438.19,49.5s-4.28,75.55,16.34,89.5c0,0,65.16,12.42,95.73,80.12h0s5.08-10.66,14.6-11.44c0,0-1.57-84-8.17-100.6C556.69,107.08,523.79,59.6,438.19,49.5Z"/><polyline class="cls-11" points="516.33 582.09 497.44 563.59 442.75 618.27 461.74 636.69 516.33 582.09"/><polygon class="cls-12" points="497.44 563.59 496.07 544.81 423.26 616.56 442.75 618.27 497.44 563.59"/><polygon class="cls-13" points="496.07 544.81 474.14 543.14 420.94 594.97 423.26 616.56 496.07 544.81"/><polyline class="cls-14" points="493.59 668.84 512.18 689.13 567.58 634.61 548.49 614.55 493.59 668.84"/><polygon class="cls-15" points="512.18 689.13 516.33 709.34 586.12 639.91 567.58 634.61 512.18 689.13"/><polygon class="cls-16" points="516.33 709.34 534.76 710.52 590.16 655.84 586.12 639.91 516.33 709.34"/><circle class="cls-17" cx="496.24" cy="583.22" r="5.43"/><circle class="cls-17" cx="479.35" cy="600.39" r="5.43"/><circle class="cls-17" cx="462.74" cy="616.56" r="5.43"/><circle class="cls-17" cx="547.15" cy="635.17" r="5.43"/><circle class="cls-17" cx="530.26" cy="652.34" r="5.43"/><circle class="cls-17" cx="513.65" cy="668.51" r="5.43"/><polyline class="cls-18" points="479.35 650.83 446.95 685.08 436.44 675.22 468.16 641.83 479.35 650.83"/><polyline class="cls-19" points="479.35 650.83 489.33 663.45 458.51 694.94 446.95 685.08 479.35 650.83"/><polygon class="cls-20" points="477.73 652.55 466.65 643.42 464.37 645.82 475.53 654.87 477.73 652.55"/><polygon class="cls-21" points="477.73 652.55 487.68 665.15 485.63 667.23 475.53 654.87 477.73 652.55"/><polygon class="cls-20" points="446.95 685.08 436.44 675.22 429.48 674.22 429.48 681.94 439.78 691.75 446.95 685.08"/><polygon class="cls-21" points="446.95 685.08 458.51 694.94 459.69 702.35 451.15 702.35 439.78 691.75 446.95 685.08"/><polygon class="cls-22" points="439.78 691.75 366.55 766.65 355.13 755.4 429.48 681.94 439.78 691.75"/><polygon class="cls-23" points="439.78 691.75 451.15 702.35 376.96 777.23 366.55 766.65 439.78 691.75"/><path class="cls-20" d="M366.54,766.65,355.13,755.4s-4.18-.88-3.46,3.34l10.8,11.87Z"/><path class="cls-21" d="M366.54,766.65l-4.07,4,10.76,10.26s5.69,1.1,3.73-3.64Z"/><path class="cls-20" d="M354.13,778.79l-11.41-11.25s-4.19-.88-3.46,3.34l10.8,11.87Z"/><path class="cls-21" d="M354.13,778.79l-4.07,4L360.82,793s5.69,1.1,3.73-3.64Z"/><path class="cls-20" d="M341.74,791l-11.41-11.25s-4.18-.88-3.46,3.34l10.8,11.87Z"/><path class="cls-21" d="M341.74,791l-4.07,4,10.76,10.26s5.69,1.1,3.73-3.64Z"/><path class="cls-20" d="M329.35,803.08l-11.41-11.24s-4.19-.89-3.46,3.33l10.79,11.88Z"/><path class="cls-21" d="M329.35,803.08l-4.08,4L336,817.31s5.69,1.09,3.74-3.64Z"/><polygon class="cls-24" points="351.67 758.74 342.72 767.54 354.13 778.79 362.47 770.62 351.67 758.74"/><polygon class="cls-25" points="354.13 778.79 362.47 770.62 373.23 780.87 364.55 789.37 354.13 778.79"/><polygon class="cls-24" points="339.25 770.91 330.3 779.71 341.71 790.96 350.05 782.78 339.25 770.91"/><polygon class="cls-25" points="341.71 790.96 350.05 782.78 360.81 793.04 352.13 801.54 341.71 790.96"/><polygon class="cls-24" points="326.87 783.04 317.92 791.85 329.33 803.09 337.67 794.92 326.87 783.04"/><polygon class="cls-25" points="329.33 803.09 337.67 794.92 348.42 805.18 339.75 813.68 329.33 803.09"/></g><g id="Layer_6" data-name="Layer 6"><polygon class="cls-26" points="516.33 582.09 530.4 600.57 479.66 651.03 461.74 636.69 516.33 582.09"/><polygon class="cls-27" points="548.49 614.55 530.1 600.39 479.35 650.83 493.59 668.84 548.49 614.55"/></g></svg>